<?xml version="1.0" encoding="UTF-8"?>
<!DOCTYPE svg PUBLIC "-//W3C//DTD SVG 1.1//EN" "http://www.w3.org/Graphics/SVG/1.1/DTD/svg11.dtd">
<!-- Creator: CorelDRAW -->
<svg xmlns="http://www.w3.org/2000/svg" xml:space="preserve" width="2.25082in" height="2.25082in" version="1.1" style="shape-rendering:geometricPrecision; text-rendering:geometricPrecision; image-rendering:optimizeQuality; fill-rule:evenodd; clip-rule:evenodd"
viewBox="0 0 210.76 210.76"
 xmlns:xlink="http://www.w3.org/1999/xlink"
 xmlns:xodm="http://www.corel.com/coreldraw/odm/2003">
 <defs>
  <style type="text/css">
   <![CDATA[
    .str0 {stroke:#373435;stroke-width:0.62;stroke-miterlimit:2.61313}
    .fil1 {fill:#FEFEFE}
    .fil0 {fill:#121212}
   ]]>
  </style>
 </defs>
 <g id="Layer_x0020_1">
  <metadata id="CorelCorpID_0Corel-Layer"/>
  <g id="_1633437237328">
   <rect class="fil0 str0" x="0.31" y="0.31" width="210.13" height="210.13" rx="13.35" ry="13.35"/>
   <g>
    <path class="fil1" d="M73.45 96.26c16.96,0 35.12,0.22 51.92,0.01 1.53,-0.02 1.88,-0.28 3.51,-0.29 4.79,-0.04 2.85,-0.07 3.31,4.05l0.78 13.9c-2.41,0 -4.36,0.27 -7.07,0.27l-52.18 0 2.98 7.61c2.1,4.28 5.53,9.05 9.2,11.99l6.24 4.36c2.82,1.7 7.9,3.74 11.35,4.41 0.91,0.18 1.41,0.3 2.23,0.49 2.72,0.63 9.2,0.69 12.28,0.47 2.99,-0.22 6.28,-1.26 8.98,-1.89l0.31 4.63c0.07,1.05 0.23,0.74 -0.05,1.15 -0.26,0.38 -4.02,1.59 -4.85,1.87 -13.1,4.4 -29.65,0.86 -40.45,-7.18l-9.4 -8.81c-2.01,-2.38 -3.41,-4.05 -5.1,-6.86 -2.15,-3.59 -4.57,-9 -5.4,-12.81 -2.46,-11.27 -1.73,-22.41 3.87,-32.5 3.01,-5.43 2.86,-5.03 6.91,-9.12 1.78,-1.79 3.52,-3.2 5.61,-4.71 1.05,-0.76 2.11,-1.4 3.16,-2 3.57,-2.04 7.34,-3.7 11.46,-4.57 7.24,-1.52 12.5,-1.53 19.71,0 1.37,0.29 3.08,0.71 4.52,1.19 1.49,0.5 2.87,1.14 4.24,1.46l0.33 3.8c-1.1,-0.08 -1.91,-0.42 -2.88,-0.7 -7.67,-2.22 -17.45,-1.01 -24.38,1.48l-5.69 2.74c-1.97,1.18 -3.32,2.18 -5.08,3.61 -1.11,0.9 -1.16,0.79 -2.08,2 -0.71,0.93 -1.41,1.38 -2.1,2.25 -1.26,1.57 -2.34,3.2 -3.31,5.11 -1.83,3.6 -3.01,7.32 -3.51,11.5 -0.09,0.71 -0.32,1.1 0.62,1.1zm-18.48 5.98c0,6.84 1.48,13.49 3.96,19.69 2.79,7 7.27,13.13 12.55,18.43 10.11,10.12 23.49,16.51 38.11,16.51 4.39,0 8.84,-0.63 12.89,-1.78 1.9,-0.54 3.82,-1.09 5.5,-1.84 1.84,-0.83 3.59,-1.47 5.25,-2.35 0,-5.81 -1.09,-11.48 -1.09,-17.39 -0.88,0.2 -1.19,0.48 -1.91,0.81 -2.04,0.93 -4.01,1.76 -6.35,2.34 -0.89,0.22 -1.49,0.44 -2.14,0.58 -10.81,2.23 -21.09,-0.01 -29.88,-5.85 -4.35,-2.89 -7.56,-7.14 -10,-11.74l51.63 0 1.47 24.89c0.36,2.4 0.43,5.96 0.43,8.54l9.78 0 -1.86 -27.21c-0.11,-0.97 0.03,-1.96 -0.05,-2.94 -0.36,-4.42 -0.8,-9.12 -0.8,-13.87 0.85,0.07 0.97,0.27 1.9,0.27l13.04 0 1.08 19.3c0.04,1.35 0.25,1.35 0.29,2.7l0.52 8.17c0.22,2.71 0.02,5.44 0.44,8.25 0.16,1.07 0.08,1.8 0.11,2.88 0.04,1.37 0.28,1.35 0.28,2.71 9.39,0 9.81,0.96 9.32,-2.24l-1.17 -18.41c-0.06,-1.15 0.06,-2 -0.11,-3.15l-1.23 -18.34c-0.09,-1.06 0.06,-2.15 -0.05,-3.21 -0.12,-1.05 -0.23,-1.58 -0.23,-3.04l-0.54 -9.24c-0.04,-1.38 -0.28,-1.5 -0.29,-2.97l-0.77 -12.28c-0.12,-1.05 0.04,-2.13 -0.08,-3.18l-0.77 -12.28c-0.04,-1.38 -0.28,-1.5 -0.29,-2.97 -0.02,-2.43 -0.26,-3.96 -0.26,-6.53l-9.51 0c0,3.95 0.55,7.44 0.54,11.15l1.65 27.43c0.07,0.85 0.3,4.97 0.53,5.45l-15.22 0 -1.64 -27.44c-0.02,-2.2 -0.2,-3.47 -0.26,-5.72 -0.07,-2.86 -0.56,-5.18 -0.55,-8.15 0.01,-1.43 -0.19,-1.65 -0.28,-2.71l-9.51 0c0.02,0.94 0.19,1.06 0.26,1.92l0.28 6.79c0.04,1.43 0.23,2.57 0.27,4.35 0.15,5.76 1.37,16.46 1.37,21.73l-52.18 0.27c0.32,-0.67 0.51,-1.47 0.82,-2.17 4.57,-10.53 15.51,-17.4 27.72,-17.4 6.34,0 10.7,0.75 16.3,3.26 1.08,0.49 2.51,1.52 3.81,1.63 0,-5.21 -1.09,-10.55 -1.09,-16.03l-4.72 -2.07c-14.04,-4.94 -26.81,-5.3 -40.58,1.07 -3.82,1.77 -7.16,4.42 -10.37,7.02 -2.26,1.82 -4.09,3.57 -5.86,5.82 -0.58,0.74 -0.82,0.83 -1.36,1.63l-4.33 7.36c-1.73,3.54 -2.7,7.15 -3.59,11.08 -0.38,1.69 -0.51,3.13 -0.78,4.93 -0.21,1.4 -0.42,4.22 -0.42,5.56z"/>
    <path class="fil1" d="M88.67 42.45c-1.36,0.32 -2.62,0.94 -3.96,1.47 -1.49,0.6 -2.59,1.03 -4.08,1.63 -2.54,1.02 -5.34,2.53 -8,3.14 -0.29,-1.07 -1.45,-2.13 -2.24,-2.93 -0.54,-0.54 -0.73,-0.72 -1.29,-1.15 -1.78,-1.37 -5.72,-4.93 -7.61,-5.43 -1.2,0.81 -1.71,1.7 -2.65,2.78 -1.8,2.06 -6.44,5.64 -8.7,7.88 -3.83,3.79 -7.36,7.37 -10.39,11.89 0.78,0.89 1.22,2.33 1.84,3.32 0.36,0.58 0.63,0.87 1.08,1.37 0.56,0.62 0.67,0.89 1.22,1.5 5.59,6.06 6.3,2.82 1.93,12.66 -1.01,2.28 -2.25,5.12 -2.81,7.52 -4.67,0 -11.56,-0.43 -14.27,1.49 -1.71,1.22 -0.8,4.94 -0.97,6.92 -0.12,1.5 -0.21,3.04 -0.26,4.6l0 16.61c0,5.38 4.32,4.68 10.61,4.88 1.28,0.04 1.35,0.3 2.4,0.24 0.79,-0.05 1.23,-0.23 2.49,-0.23l6.25 15.22c-1.15,1.71 -8.97,6.67 -8.97,10.87 0,3.94 7.04,9.34 9.44,11.75 2.66,2.66 5.63,4.84 8.29,7.47l2.91 2.55c0.62,0.43 0.6,0.49 1.54,0.17 4.04,-1.36 8.29,-7.08 10.91,-7.85 1.78,-0.52 5.84,1.83 7.59,2.57 1.51,0.64 6.39,2.8 7.69,2.91 0,3.7 -0.16,7.77 -0.01,11.42 0.08,1.89 0.92,2.91 2.22,3.49 1.14,0.5 3.56,0.75 6.5,0.85l8.65 0c4.34,-0.1 8.39,-0.27 10.35,-0.27 4.75,0 5.19,0.06 6.1,-4.23l0.15 -11.81 30.44 -0.27c1.66,0.01 2.23,-0.21 3.53,-0.28 6.42,-0.35 15.92,0.1 22.84,0.01 1.56,-0.02 2.05,-0.28 3.79,-0.28 0,-18.46 -0.83,-37.44 -0.82,-55.98 0,-2.96 -0.27,-4.89 -0.27,-7.88l-6.25 0 0 57.61c-11.09,0 -21.43,0.27 -32.34,0.27l-24.08 0.38c-1.67,0.48 -2.55,3.53 -2.55,5.6l0 11.14 -22.28 0 -0.38 -10.77c-0.88,-5.94 -3.93,-4.67 -9.92,-6.66 -8.03,-2.66 -10.57,-8.15 -15.04,-3.02 -1.96,2.24 -4.06,3.93 -6.45,5.78 -0.75,0.58 -0.56,0.72 -1.64,0.81 -0.5,-1.86 -5.47,-6.2 -7.26,-7.69 -1.78,-1.49 -6.6,-5.93 -6.6,-8.34 0,-0.49 3.67,-4.09 4.28,-4.69 1.39,-1.4 3.88,-2.76 3.88,-5.09 0,-2.86 -3.14,-7.82 -4.23,-10.71 -1.36,-3.58 -2.43,-7.43 -4.19,-10.76 -3.81,0 -6.62,-0.37 -10.06,-0.54 -1.45,-0.07 -2.35,-0.28 -3.53,-0.28l0 -21.47c2.05,0 4.61,-0.52 6.32,-0.75 1.95,-0.26 5.18,-0.07 7.27,-0.07 2.43,-4.6 4.06,-10.92 6.43,-15.86 0.84,-1.76 1.67,-3.43 2.54,-5.07l-4.35 -5.44c-0.98,-1.26 -4.35,-4.03 -4.35,-5.7 0,-0.89 6.14,-6.55 7.13,-7.54 0.79,-0.78 0.95,-1.06 1.64,-1.89 1.32,-1.58 4.1,-4.49 5.63,-5.51 3.18,1.68 9.32,8.42 10.6,8.42 3.11,0 12.06,-4.82 15.8,-6.21 1.68,-0.62 4.29,-1.21 5.67,-1.94 0,-3.35 0.56,-8.3 0.55,-10.59 -0,-1.66 -0.05,-2.2 0.26,-3.54l22.28 0c0,4.01 -1.6,11.29 1.69,14.35 1.97,1.83 2.99,0.84 6.04,1.3 2.31,0.35 4.82,-0.11 7.18,0.15 2.24,0.25 4.52,0.19 7.12,0.22l7.06 0.28c6.81,-0.04 14.38,0.82 21.19,0.82 0.6,2.58 3.27,34.29 3.99,40.58 0.33,2.93 0.15,2.08 5.52,2.08 0,-4.14 -0.27,-7.62 -0.27,-11.96l0 -30.98c0.01,-2.36 -0.27,-3.61 -0.27,-5.98 -4.73,0 -8.54,-0.27 -13.32,-0.27 -4.53,0 -9.06,-0 -13.59,0l-26.63 -0.54 0 -11.41c0,-2 -1.17,-3.55 -2.68,-4.12 -3.56,-1.33 -20.12,-0.46 -26.13,-0.51 -2.71,-0.02 -3.73,0.24 -4.51,2.28 -1.28,3.32 -0.64,8.97 -0.64,13.22z"/>
   </g>
  </g>
 </g>
</svg>
