<?xml version="1.0" encoding="UTF-8"?>
<!DOCTYPE svg PUBLIC "-//W3C//DTD SVG 1.1//EN" "http://www.w3.org/Graphics/SVG/1.1/DTD/svg11.dtd">
<!-- Creator: CorelDRAW -->
<svg xmlns="http://www.w3.org/2000/svg" xml:space="preserve" width="2.5897in" height="1.97506in" version="1.1" style="shape-rendering:geometricPrecision; text-rendering:geometricPrecision; image-rendering:optimizeQuality; fill-rule:evenodd; clip-rule:evenodd"
viewBox="0 0 403.69 307.88"
 xmlns:xlink="http://www.w3.org/1999/xlink"
 xmlns:xodm="http://www.corel.com/coreldraw/odm/2003">
 <defs>
  <style type="text/css">
   <![CDATA[
    .str0 {stroke:#121212;stroke-width:5.2;stroke-miterlimit:2.61313}
    .fil2 {fill:none}
    .fil1 {fill:#121212}
    .fil0 {fill:#121212;fill-rule:nonzero}
   ]]>
  </style>
 </defs>
 <g id="Layer_x0020_1">
  <metadata id="CorelCorpID_0Corel-Layer"/>
  <g id="_1634283970256">
   <polygon class="fil0" points="216.66,247.43 204.85,56.42 223.22,56.42 228.56,142.79 239.07,142.79 233.73,56.42 252.1,56.42 263.92,247.43 245.55,247.43 240.21,161.21 229.7,161.21 235.03,247.43 "/>
   <path id="_1" class="fil0" d="M289.17 56.42l18.37 0 10.45 168.92c0.46,7.39 -1.6,13.26 -6.26,17.58 -4.18,3.81 -9.55,5.72 -15.97,5.72 -6.37,0 -11.88,-1.91 -16.59,-5.72 -5.15,-4.32 -7.98,-10.19 -8.43,-17.58l-10.45 -168.92 18.37 0 10.45 168.92c0.22,3.49 2.09,5.21 5.53,5.21 3.54,0 5.2,-1.72 4.98,-5.21l-10.45 -168.92z"/>
   <path id="_2" class="fil0" d="M358.56 151.91c7.22,5.53 11.11,12.74 11.66,21.53l2.87 46.46c0.47,7.53 -1.83,14.05 -6.93,19.49 -5.02,5.35 -11.36,8.05 -18.99,8.05l-19.63 0 -11.81 -191.01 19.63 0c7.63,0 14.31,2.7 19.99,8.14 5.78,5.4 8.87,11.86 9.34,19.49l2.86 46.32c0.55,8.84 -2.45,16 -8.99,21.53zm-17.98 9.3l4.19 67.81 1.26 0c2.56,0 4.64,-0.88 6.34,-2.7 1.75,-1.81 2.5,-3.95 2.35,-6.42l-3.07 -49.58c-0.15,-2.47 -1.17,-4.6 -3.14,-6.42 -1.93,-1.81 -4.12,-2.7 -6.68,-2.7l-1.26 0zm-5.34 -86.41l4.21 68 1.26 0c2.56,0 4.64,-0.93 6.34,-2.74 1.75,-1.81 2.5,-4 2.34,-6.51l-3.06 -49.48c-0.16,-2.51 -1.17,-4.7 -3.15,-6.51 -1.93,-1.81 -4.12,-2.74 -6.68,-2.74l-1.26 0z"/>
   <path class="fil1" d="M390.12 33.46l0.63 95.64 -9.98 -0.31 -7.97 -83.47 -190.45 -3.1c-9.89,-3.72 -7.14,-10.42 -7.14,-30.62l-44.05 0 -1.57 28.32c-15.29,3.56 -36.03,15.73 -40.91,15.73 -5.26,0 -9.65,-9.43 -21.66,-16.95l-28.68 29.53c3.78,7.15 4.1,5.78 8.97,11.48l8.33 10.55c-10.62,20.08 -13.62,33.94 -17.31,40.91 -4.42,0 -9.77,-0.27 -14.08,0.08 -6.08,0.5 -5.36,1.49 -12.67,1.49l0 42.48c6.51,0 11.04,1.57 26.75,1.57 2.59,4.89 6.52,19.38 14.3,34.62 6.75,13.24 -5.2,13.15 -14.3,26.73 2.53,9.48 20.23,19.39 28.32,31.47 24.24,-16.24 13.91,-23.25 34.1,-12.07 29.1,16.12 30.41,-4.18 30.41,38.82l44.05 0 0 -20.45c0,-4.33 1.64,-12.33 5.41,-12.36l208.93 -1.34 0.25 -112.62 11.94 -0.07 1.95 124.98c-3.29,0.33 -212.55,1 -217.47,1.4 0,9.48 2.5,31.47 -6.29,31.47 -69.68,0 -59.79,6.75 -59.79,-29.89 -5.24,-2.77 -10.25,-3.92 -15.71,-6.32 -3.74,-1.65 -10.79,-5.58 -13.8,-5.12 -5.05,0.77 -13.91,13.82 -23.98,16.16l-16.93 -14.54c-17.08,-17.28 -29.28,-23.61 -22.51,-34.21 2.94,-4.61 11.36,-12.76 15.84,-15.76 -2.37,-4.47 -5.15,-9.6 -7.23,-14.8 -2.22,-5.56 -3.08,-10.36 -5.36,-15.1 -6.38,0 -12.12,0.23 -18.31,-0.57 -16.06,-2.09 -11.58,3.66 -11.58,-60.79 0,-7.79 23.06,-6.29 29.89,-6.29 1.55,-3.23 1.33,-4.62 2.73,-8.29 9.88,-25.82 13.08,-17.26 -1.59,-32.18 -4.86,-4.94 -4.36,-5.65 -7.43,-11.45 12.88,-19.23 37.89,-37.2 42.48,-44.05 7.71,5.16 16.92,11.25 22.03,18.88l31.47 -12.59c0,-9.45 -3.16,-29.89 6.29,-29.89 67.45,0 59.79,-7.56 59.79,31.47 4.92,0.41 200.61,1.08 203.9,1.4z"/>
   <path class="fil2 str0" d="M219.42 176.11l-23.32 0.45 -97.9 0c15.13,42.37 64.43,56.76 101.68,40.57l1.58 22.63c-10.68,5.34 -24.22,9.42 -40.25,9.42 -15.51,0 -29.21,-3.61 -40.51,-8.89 -14.08,-6.59 -18.09,-9.9 -28.78,-19.81 -29.82,-27.65 -39.66,-66.89 -27.26,-104.17 3.08,-9.25 10.55,-22.33 16.76,-28.45 8.24,-8.11 15.65,-14.28 26.17,-19.65 25.41,-12.95 55.98,-12.03 81.85,0.02l1.35 19.34c-37.03,-17.55 -89.04,0.31 -95.85,42.81l98.37 0 20.14 -0.72"/>
  </g>
 </g>
</svg>
