<?xml version="1.0" encoding="UTF-8" standalone="no"?>
<!-- Creator: CorelDRAW - Transparent Background Version -->

<svg
   xml:space="preserve"
   width="2.25032in"
   height="2.25032in"
   version="1.1"
   style="shape-rendering:geometricPrecision; text-rendering:geometricPrecision; image-rendering:optimizeQuality; fill-rule:evenodd; clip-rule:evenodd"
   viewBox="0 0 210.76 210.76"
   id="svg6"
   sodipodi:docname="transp_11.svg"
   inkscape:version="1.4.2 (ebf0e940d0, 2025-05-08)"
   xmlns:inkscape="http://www.inkscape.org/namespaces/inkscape"
   xmlns:sodipodi="http://sodipodi.sourceforge.net/DTD/sodipodi-0.dtd"
   xmlns="http://www.w3.org/2000/svg"
   xmlns:svg="http://www.w3.org/2000/svg"><sodipodi:namedview
   id="namedview6"
   pagecolor="#ffffff"
   bordercolor="#000000"
   borderopacity="0.25"
   inkscape:showpageshadow="2"
   inkscape:pageopacity="0.0"
   inkscape:pagecheckerboard="0"
   inkscape:deskcolor="#d1d1d1"
   inkscape:document-units="in"
   inkscape:zoom="2.8653333"
   inkscape:cx="108.01536"
   inkscape:cy="108.01536"
   inkscape:window-width="1536"
   inkscape:window-height="828"
   inkscape:window-x="0"
   inkscape:window-y="0"
   inkscape:window-maximized="1"
   inkscape:current-layer="Layer_x0020_1" />
 <defs
   id="defs2">
      <clipPath
   id="id0">
       <path
   d="M73.45 96.26c16.96,0 35.12,0.22 51.92,0.01 1.53,-0.02 1.88,-0.28 3.51,-0.29 4.79,-0.04 2.85,-0.07 3.31,4.05l0.78 13.9c-2.41,0 -4.36,0.27 -7.07,0.27l-52.18 0 2.98 7.61c2.1,4.28 5.53,9.05 9.2,11.99l6.24 4.36c2.82,1.7 7.9,3.74 11.35,4.41 0.91,0.18 1.41,0.3 2.23,0.49 2.72,0.63 9.2,0.69 12.28,0.47 2.99,-0.22 6.28,-1.26 8.98,-1.89l0.31 4.63c0.07,1.05 0.23,0.74 -0.05,1.15 -0.26,0.38 -4.02,1.59 -4.85,1.87 -13.1,4.4 -29.65,0.86 -40.45,-7.18l-9.4 -8.81c-2.01,-2.38 -3.41,-4.05 -5.1,-6.86 -2.15,-3.59 -4.57,-9 -5.4,-12.81 -2.47,-11.27 -1.73,-22.41 3.87,-32.5 3.01,-5.43 2.86,-5.03 6.91,-9.12 1.78,-1.79 3.52,-3.2 5.61,-4.71 1.05,-0.76 2.11,-1.4 3.16,-2 3.57,-2.04 7.34,-3.7 11.46,-4.57 7.24,-1.52 12.5,-1.53 19.71,0 1.37,0.29 3.08,0.71 4.52,1.19 1.49,0.5 2.87,1.14 4.24,1.46l0.33 3.8c-1.1,-0.08 -1.91,-0.41 -2.88,-0.7 -7.67,-2.22 -17.45,-1.01 -24.38,1.48l-5.69 2.74c-1.97,1.18 -3.32,2.18 -5.08,3.61 -1.11,0.9 -1.16,0.79 -2.08,2 -0.71,0.93 -1.41,1.38 -2.1,2.25 -1.27,1.57 -2.34,3.2 -3.31,5.11 -1.83,3.6 -3.01,7.32 -3.51,11.5 -0.09,0.71 -0.32,1.1 0.62,1.1zm-18.48 5.98c0,6.84 1.48,13.49 3.96,19.69 2.79,7 7.27,13.13 12.55,18.43 10.11,10.12 23.49,16.51 38.11,16.51 4.39,0 8.84,-0.63 12.89,-1.78 1.9,-0.54 3.82,-1.09 5.5,-1.84 1.84,-0.83 3.59,-1.47 5.25,-2.36 0,-5.81 -1.09,-11.48 -1.09,-17.39 -0.88,0.2 -1.19,0.48 -1.91,0.81 -2.04,0.93 -4.01,1.76 -6.35,2.34 -0.89,0.22 -1.49,0.44 -2.14,0.58 -10.81,2.23 -21.09,-0.01 -29.88,-5.85 -4.35,-2.89 -7.56,-7.14 -10,-11.74l51.63 0 1.47 24.89c0.36,2.4 0.43,5.96 0.43,8.54l9.78 0 -1.86 -27.22c-0.11,-0.97 0.03,-1.96 -0.05,-2.94 -0.36,-4.42 -0.8,-9.12 -0.8,-13.87 0.85,0.07 0.97,0.27 1.9,0.27l13.04 0 1.08 19.3c0.04,1.35 0.25,1.35 0.29,2.7l0.52 8.17c0.22,2.71 0.02,5.44 0.44,8.25 0.16,1.07 0.08,1.8 0.11,2.88 0.04,1.37 0.28,1.35 0.28,2.71 9.39,0 9.81,0.96 9.32,-2.24l-1.17 -18.41c-0.06,-1.15 0.06,-2 -0.11,-3.15l-1.23 -18.34c-0.09,-1.06 0.06,-2.15 -0.05,-3.21 -0.12,-1.05 -0.23,-1.58 -0.23,-3.03l-0.54 -9.24c-0.04,-1.37 -0.28,-1.5 -0.29,-2.97l-0.77 -12.28c-0.12,-1.05 0.04,-2.13 -0.08,-3.18l-0.77 -12.28c-0.04,-1.38 -0.28,-1.5 -0.29,-2.97 -0.02,-2.43 -0.26,-3.96 -0.26,-6.53l-9.51 0c0,3.95 0.55,7.44 0.54,11.15l1.65 27.43c0.07,0.85 0.3,4.97 0.53,5.45l-15.22 0 -1.64 -27.44c-0.02,-2.2 -0.2,-3.47 -0.25,-5.72 -0.07,-2.86 -0.56,-5.18 -0.55,-8.15 0.01,-1.43 -0.19,-1.65 -0.28,-2.71l-9.51 0c0.02,0.94 0.19,1.06 0.26,1.92l0.28 6.79c0.04,1.43 0.23,2.57 0.27,4.35 0.15,5.76 1.37,16.46 1.37,21.73l-52.18 0.27c0.32,-0.67 0.51,-1.47 0.82,-2.17 4.57,-10.53 15.51,-17.4 27.72,-17.4 6.34,0 10.7,0.75 16.3,3.26 1.08,0.49 2.51,1.52 3.81,1.63 0,-5.21 -1.09,-10.55 -1.09,-16.03l-4.72 -2.07c-14.04,-4.95 -26.81,-5.3 -40.58,1.07 -3.82,1.77 -7.16,4.42 -10.37,7.02 -2.26,1.82 -4.09,3.57 -5.86,5.82 -0.58,0.74 -0.82,0.83 -1.36,1.63l-4.33 7.36c-1.73,3.54 -2.7,7.15 -3.59,11.08 -0.38,1.69 -0.51,3.13 -0.78,4.93 -0.21,1.4 -0.42,4.22 -0.42,5.56z"
   id="path1" />
      </clipPath>
      <clipPath
   id="id1">
       <path
   d="M88.67 42.45c-1.36,0.32 -2.62,0.94 -3.96,1.47 -1.49,0.6 -2.59,1.03 -4.08,1.63 -2.54,1.02 -5.34,2.53 -8,3.14 -0.29,-1.07 -1.45,-2.13 -2.24,-2.93 -0.54,-0.54 -0.73,-0.72 -1.29,-1.15 -1.78,-1.37 -5.71,-4.93 -7.61,-5.43 -1.2,0.81 -1.71,1.7 -2.65,2.78 -1.8,2.06 -6.44,5.64 -8.7,7.88 -3.83,3.79 -7.36,7.37 -10.39,11.89 0.78,0.89 1.22,2.33 1.84,3.32 0.36,0.58 0.63,0.87 1.08,1.37 0.56,0.62 0.67,0.89 1.22,1.5 5.59,6.06 6.3,2.82 1.93,12.66 -1.01,2.28 -2.25,5.12 -2.81,7.52 -4.67,0 -11.56,-0.43 -14.27,1.49 -1.71,1.22 -0.8,4.94 -0.96,6.92 -0.12,1.5 -0.21,3.04 -0.26,4.6l0 16.61c0,5.38 4.32,4.68 10.61,4.88 1.28,0.04 1.35,0.3 2.4,0.24 0.79,-0.05 1.23,-0.23 2.49,-0.23l6.25 15.22c-1.15,1.71 -8.97,6.67 -8.97,10.87 0,3.94 7.04,9.34 9.44,11.75 2.66,2.66 5.63,4.84 8.29,7.47l2.91 2.55c0.62,0.43 0.6,0.49 1.54,0.17 4.04,-1.36 8.29,-7.08 10.91,-7.85 1.78,-0.52 5.84,1.83 7.59,2.57 1.51,0.64 6.39,2.8 7.69,2.91 0,3.7 -0.16,7.77 -0.01,11.42 0.08,1.89 0.92,2.91 2.22,3.49 1.14,0.5 3.56,0.75 6.5,0.85l8.65 0c4.34,-0.1 8.39,-0.27 10.35,-0.27 4.75,0 5.19,0.06 6.1,-4.23l0.15 -11.81 30.44 -0.27c1.66,0.01 2.23,-0.21 3.53,-0.28 6.42,-0.35 15.92,0.1 22.84,0.01 1.56,-0.02 2.05,-0.28 3.79,-0.28 0,-18.46 -0.83,-37.44 -0.82,-55.98 0,-2.96 -0.27,-4.89 -0.27,-7.88l-6.25 0 0 57.61c-11.09,0 -21.43,0.27 -32.34,0.27l-24.08 0.38c-1.67,0.48 -2.55,3.53 -2.55,5.6l0 11.14 -22.28 0 -0.38 -10.77c-0.88,-5.94 -3.93,-4.67 -9.92,-6.66 -8.03,-2.66 -10.57,-8.15 -15.04,-3.02 -1.96,2.24 -4.06,3.93 -6.45,5.78 -0.75,0.58 -0.56,0.72 -1.64,0.81 -0.5,-1.86 -5.47,-6.2 -7.26,-7.69 -1.78,-1.49 -6.6,-5.93 -6.6,-8.34 0,-0.49 3.67,-4.09 4.28,-4.69 1.39,-1.4 3.88,-2.76 3.88,-5.09 0,-2.86 -3.14,-7.82 -4.23,-10.71 -1.36,-3.58 -2.43,-7.43 -4.19,-10.76 -3.81,0 -6.62,-0.37 -10.06,-0.54 -1.45,-0.07 -2.35,-0.28 -3.53,-0.28l0 -21.47c2.05,0 4.61,-0.52 6.32,-0.75 1.95,-0.26 5.18,-0.07 7.27,-0.07 2.43,-4.6 4.06,-10.92 6.43,-15.86 0.84,-1.75 1.67,-3.43 2.54,-5.07l-4.35 -5.44c-0.98,-1.26 -4.35,-4.03 -4.35,-5.7 0,-0.89 6.14,-6.55 7.13,-7.54 0.79,-0.78 0.95,-1.06 1.64,-1.89 1.32,-1.58 4.1,-4.49 5.63,-5.52 3.18,1.68 9.32,8.42 10.6,8.42 3.11,0 12.06,-4.82 15.8,-6.21 1.68,-0.62 4.29,-1.21 5.67,-1.94 0,-3.35 0.56,-8.3 0.55,-10.59 -0,-1.66 -0.05,-2.2 0.26,-3.54l22.28 0c0,4.01 -1.6,11.29 1.69,14.35 1.96,1.83 2.99,0.84 6.04,1.3 2.31,0.35 4.82,-0.11 7.18,0.15 2.24,0.25 4.52,0.19 7.12,0.22l7.06 0.28c6.81,-0.04 14.38,0.82 21.19,0.82 0.6,2.58 3.27,34.29 3.99,40.58 0.33,2.93 0.15,2.08 5.52,2.08 0,-4.14 -0.27,-7.62 -0.27,-11.96l0 -30.98c0.01,-2.36 -0.27,-3.61 -0.27,-5.98 -4.73,0 -8.54,-0.27 -13.32,-0.27 -4.53,0 -9.06,-0 -13.59,0l-26.63 -0.54 0 -11.41c0,-2 -1.17,-3.55 -2.68,-4.12 -3.56,-1.33 -20.12,-0.46 -26.13,-0.51 -2.71,-0.02 -3.73,0.24 -4.52,2.28 -1.28,3.32 -0.64,8.97 -0.64,13.21z"
   id="path2" />
      </clipPath>
 </defs>
 <g
   id="Layer_x0020_1"
   inkscape:label="Layer 1">
  <metadata
   id="CorelCorpID_0Corel-Layer" />
  <g
   id="_1633111603856"
   transform="matrix(1.319252,0,0,1.1796082,-32.619747,-22.838783)">

   <g
   id="g6">
    <g
   id="g3">
     <g
   clip-path="url(#id0)"
   id="g2">
      <polygon
   fill="#7E7E7E"
   points="55.64,156.86 54.97,156.86 54.97,52.47 55.64,52.47 "
   id="polygon2" />
      <polygon
   id="_1"
   fill="#7E7E7E"
   points="56.09,156.86 55.42,156.86 55.42,52.47 56.09,52.47 " />
      <polygon
   id="_2"
   fill="#7F7F7F"
   points="56.54,156.86 55.86,156.86 55.86,52.47 56.54,52.47 " />
      <polygon
   id="_3"
   fill="#7F7F7F"
   points="56.98,156.86 56.31,156.86 56.31,52.47 56.98,52.47 " />
      <polygon
   id="_4"
   fill="#7F7F7F"
   points="57.43,156.86 56.76,156.86 56.76,52.47 57.43,52.47 " />
      <polygon
   id="_5"
   fill="#808080"
   points="57.88,156.86 57.21,156.86 57.21,52.47 57.88,52.47 " />
      <polygon
   id="_6"
   fill="#808080"
   points="58.33,156.86 57.65,156.86 57.65,52.47 58.33,52.47 " />
      <polygon
   id="_7"
   fill="#808080"
   points="58.77,156.86 58.1,156.86 58.1,52.47 58.77,52.47 " />
      <polygon
   id="_8"
   fill="#818181"
   points="59.22,156.86 58.55,156.86 58.55,52.47 59.22,52.47 " />
      <polygon
   id="_9"
   fill="#818181"
   points="59.67,156.86 59,156.86 59,52.47 59.67,52.47 " />
      <polygon
   id="_10"
   fill="#818181"
   points="60.12,156.86 59.45,156.86 59.45,52.47 60.12,52.47 " />
      <polygon
   id="_11"
   fill="#818181"
   points="60.56,156.86 59.89,156.86 59.89,52.47 60.56,52.47 " />
      <polygon
   id="_12"
   fill="#828282"
   points="61.01,156.86 60.34,156.86 60.34,52.47 61.01,52.47 " />
      <polygon
   id="_13"
   fill="#828282"
   points="61.46,156.86 60.79,156.86 60.79,52.47 61.46,52.47 " />
      <polygon
   id="_14"
   fill="#828282"
   points="61.91,156.86 61.24,156.86 61.24,52.47 61.91,52.47 " />
      <polygon
   id="_15"
   fill="#838383"
   points="62.36,156.86 61.68,156.86 61.68,52.47 62.36,52.47 " />
      <polygon
   id="_16"
   fill="#838383"
   points="62.8,156.86 62.13,156.86 62.13,52.47 62.8,52.47 " />
      <polygon
   id="_17"
   fill="#838383"
   points="63.25,156.86 62.58,156.86 62.58,52.47 63.25,52.47 " />
      <polygon
   id="_18"
   fill="#848484"
   points="63.7,156.86 63.03,156.86 63.03,52.47 63.7,52.47 " />
      <polygon
   id="_19"
   fill="#848484"
   points="64.15,156.86 63.48,156.86 63.48,52.47 64.15,52.47 " />
      <polygon
   id="_20"
   fill="#848484"
   points="64.59,156.86 63.92,156.86 63.92,52.47 64.59,52.47 " />
      <polygon
   id="_21"
   fill="#858585"
   points="65.04,156.86 64.37,156.86 64.37,52.47 65.04,52.47 " />
      <polygon
   id="_22"
   fill="#858585"
   points="65.49,156.86 64.82,156.86 64.82,52.47 65.49,52.47 " />
      <polygon
   id="_23"
   fill="#858585"
   points="65.94,156.86 65.27,156.86 65.27,52.47 65.94,52.47 " />
      <polygon
   id="_24"
   fill="#868686"
   points="66.39,156.86 65.71,156.86 65.71,52.47 66.39,52.47 " />
      <polygon
   id="_25"
   fill="#868686"
   points="66.83,156.86 66.16,156.86 66.16,52.47 66.83,52.47 " />
      <polygon
   id="_26"
   fill="#868686"
   points="67.28,156.86 66.61,156.86 66.61,52.47 67.28,52.47 " />
      <polygon
   id="_27"
   fill="#868686"
   points="67.73,156.86 67.06,156.86 67.06,52.47 67.73,52.47 " />
      <polygon
   id="_28"
   fill="#878787"
   points="68.18,156.86 67.5,156.86 67.5,52.47 68.18,52.47 " />
      <polygon
   id="_29"
   fill="#878787"
   points="68.62,156.86 67.95,156.86 67.95,52.47 68.62,52.47 " />
      <polygon
   id="_30"
   fill="#878787"
   points="69.07,156.86 68.4,156.86 68.4,52.47 69.07,52.47 " />
      <polygon
   id="_31"
   fill="#888888"
   points="69.52,156.86 68.85,156.86 68.85,52.47 69.52,52.47 " />
      <polygon
   id="_32"
   fill="#888888"
   points="69.97,156.86 69.3,156.86 69.3,52.47 69.97,52.47 " />
      <polygon
   id="_33"
   fill="#888888"
   points="70.42,156.86 69.74,156.86 69.74,52.47 70.42,52.47 " />
      <polygon
   id="_34"
   fill="#898989"
   points="70.86,156.86 70.19,156.86 70.19,52.47 70.86,52.47 " />
      <polygon
   id="_35"
   fill="#898989"
   points="71.31,156.86 70.64,156.86 70.64,52.47 71.31,52.47 " />
      <polygon
   id="_36"
   fill="#898989"
   points="71.76,156.86 71.09,156.86 71.09,52.47 71.76,52.47 " />
      <polygon
   id="_37"
   fill="#8A8A8A"
   points="72.21,156.86 71.53,156.86 71.53,52.47 72.21,52.47 " />
      <polygon
   id="_38"
   fill="#8A8A8A"
   points="72.65,156.86 71.98,156.86 71.98,52.47 72.65,52.47 " />
      <polygon
   id="_39"
   fill="#8A8A8A"
   points="73.1,156.86 72.43,156.86 72.43,52.47 73.1,52.47 " />
      <polygon
   id="_40"
   fill="#8B8B8B"
   points="73.55,156.86 72.88,156.86 72.88,52.47 73.55,52.47 " />
      <polygon
   id="_41"
   fill="#8B8B8B"
   points="74,156.86 73.33,156.86 73.33,52.47 74,52.47 " />
      <polygon
   id="_42"
   fill="#8B8B8B"
   points="74.44,156.86 73.77,156.86 73.77,52.47 74.44,52.47 " />
      <polygon
   id="_43"
   fill="#8B8B8B"
   points="74.89,156.86 74.22,156.86 74.22,52.47 74.89,52.47 " />
      <polygon
   id="_44"
   fill="#8C8C8C"
   points="75.34,156.86 74.67,156.86 74.67,52.47 75.34,52.47 " />
      <polygon
   id="_45"
   fill="#8C8C8C"
   points="75.79,156.86 75.12,156.86 75.12,52.47 75.79,52.47 " />
      <polygon
   id="_46"
   fill="#8C8C8C"
   points="76.24,156.86 75.56,156.86 75.56,52.47 76.24,52.47 " />
      <polygon
   id="_47"
   fill="#8D8D8D"
   points="76.68,156.86 76.01,156.86 76.01,52.47 76.68,52.47 " />
      <polygon
   id="_48"
   fill="#8D8D8D"
   points="77.13,156.86 76.46,156.86 76.46,52.47 77.13,52.47 " />
      <polygon
   id="_49"
   fill="#8D8D8D"
   points="77.58,156.86 76.91,156.86 76.91,52.47 77.58,52.47 " />
      <polygon
   id="_50"
   fill="#8E8E8E"
   points="78.03,156.86 77.36,156.86 77.36,52.47 78.03,52.47 " />
      <polygon
   id="_51"
   fill="#8E8E8E"
   points="78.47,156.86 77.8,156.86 77.8,52.47 78.47,52.47 " />
      <polygon
   id="_52"
   fill="#8E8E8E"
   points="78.92,156.86 78.25,156.86 78.25,52.47 78.92,52.47 " />
      <polygon
   id="_53"
   fill="#8F8F8F"
   points="79.37,156.86 78.7,156.86 78.7,52.47 79.37,52.47 " />
      <polygon
   id="_54"
   fill="#8F8F8F"
   points="79.82,156.86 79.15,156.86 79.15,52.47 79.82,52.47 " />
      <polygon
   id="_55"
   fill="#8F8F8F"
   points="80.27,156.86 79.59,156.86 79.59,52.47 80.27,52.47 " />
      <polygon
   id="_56"
   fill="#909090"
   points="80.71,156.86 80.04,156.86 80.04,52.47 80.71,52.47 " />
      <polygon
   id="_57"
   fill="#909090"
   points="81.16,156.86 80.49,156.86 80.49,52.47 81.16,52.47 " />
      <polygon
   id="_58"
   fill="#909090"
   points="81.61,156.86 80.94,156.86 80.94,52.47 81.61,52.47 " />
      <polygon
   id="_59"
   fill="#919191"
   points="82.06,156.86 81.39,156.86 81.39,52.47 82.06,52.47 " />
      <polygon
   id="_60"
   fill="#919191"
   points="82.5,156.86 81.83,156.86 81.83,52.47 82.5,52.47 " />
      <polygon
   id="_61"
   fill="#919191"
   points="82.95,156.86 82.28,156.86 82.28,52.47 82.95,52.47 " />
      <polygon
   id="_62"
   fill="#919191"
   points="83.4,156.86 82.73,156.86 82.73,52.47 83.4,52.47 " />
      <polygon
   id="_63"
   fill="#929292"
   points="83.85,156.86 83.18,156.86 83.18,52.47 83.85,52.47 " />
      <polygon
   id="_64"
   fill="#929292"
   points="84.3,156.86 83.62,156.86 83.62,52.47 84.3,52.47 " />
      <polygon
   id="_65"
   fill="#929292"
   points="84.74,156.86 84.07,156.86 84.07,52.47 84.74,52.47 " />
      <polygon
   id="_66"
   fill="#939393"
   points="85.19,156.86 84.52,156.86 84.52,52.47 85.19,52.47 " />
      <polygon
   id="_67"
   fill="#939393"
   points="85.64,156.86 84.97,156.86 84.97,52.47 85.64,52.47 " />
      <polygon
   id="_68"
   fill="#939393"
   points="86.09,156.86 85.41,156.86 85.41,52.47 86.09,52.47 " />
      <polygon
   id="_69"
   fill="#949494"
   points="86.53,156.86 85.86,156.86 85.86,52.47 86.53,52.47 " />
      <polygon
   id="_70"
   fill="#949494"
   points="86.98,156.86 86.31,156.86 86.31,52.47 86.98,52.47 " />
      <polygon
   id="_71"
   fill="#949494"
   points="87.43,156.86 86.76,156.86 86.76,52.47 87.43,52.47 " />
      <polygon
   id="_72"
   fill="#959595"
   points="87.88,156.86 87.21,156.86 87.21,52.47 87.88,52.47 " />
      <polygon
   id="_73"
   fill="#959595"
   points="88.33,156.86 87.65,156.86 87.65,52.47 88.33,52.47 " />
      <polygon
   id="_74"
   fill="#959595"
   points="88.77,156.86 88.1,156.86 88.1,52.47 88.77,52.47 " />
      <polygon
   id="_75"
   fill="#969696"
   points="89.22,156.86 88.55,156.86 88.55,52.47 89.22,52.47 " />
      <polygon
   id="_76"
   fill="#969696"
   points="89.67,156.86 89,156.86 89,52.47 89.67,52.47 " />
      <polygon
   id="_77"
   fill="#969696"
   points="90.12,156.86 89.44,156.86 89.44,52.47 90.12,52.47 " />
      <polygon
   id="_78"
   fill="#969696"
   points="90.56,156.86 89.89,156.86 89.89,52.47 90.56,52.47 " />
      <polygon
   id="_79"
   fill="#979797"
   points="91.01,156.86 90.34,156.86 90.34,52.47 91.01,52.47 " />
      <polygon
   id="_80"
   fill="#979797"
   points="91.46,156.86 90.79,156.86 90.79,52.47 91.46,52.47 " />
      <polygon
   id="_81"
   fill="#979797"
   points="91.91,156.86 91.24,156.86 91.24,52.47 91.91,52.47 " />
      <polygon
   id="_82"
   fill="#989898"
   points="92.36,156.86 91.68,156.86 91.68,52.47 92.36,52.47 " />
      <polygon
   id="_83"
   fill="#989898"
   points="92.8,156.86 92.13,156.86 92.13,52.47 92.8,52.47 " />
      <polygon
   id="_84"
   fill="#989898"
   points="93.25,156.86 92.58,156.86 92.58,52.47 93.25,52.47 " />
      <polygon
   id="_85"
   fill="#999999"
   points="93.7,156.86 93.03,156.86 93.03,52.47 93.7,52.47 " />
      <polygon
   id="_86"
   fill="#999999"
   points="94.15,156.86 93.47,156.86 93.47,52.47 94.15,52.47 " />
      <polygon
   id="_87"
   fill="#999999"
   points="94.59,156.86 93.92,156.86 93.92,52.47 94.59,52.47 " />
      <polygon
   id="_88"
   fill="#9A9A9A"
   points="95.04,156.86 94.37,156.86 94.37,52.47 95.04,52.47 " />
      <polygon
   id="_89"
   fill="#9A9A9A"
   points="95.49,156.86 94.82,156.86 94.82,52.47 95.49,52.47 " />
      <polygon
   id="_90"
   fill="#9A9A9A"
   points="95.94,156.86 95.27,156.86 95.27,52.47 95.94,52.47 " />
      <polygon
   id="_91"
   fill="#9B9B9B"
   points="96.38,156.86 95.71,156.86 95.71,52.47 96.38,52.47 " />
      <polygon
   id="_92"
   fill="#9B9B9B"
   points="96.83,156.86 96.16,156.86 96.16,52.47 96.83,52.47 " />
      <polygon
   id="_93"
   fill="#9B9B9B"
   points="97.28,156.86 96.61,156.86 96.61,52.47 97.28,52.47 " />
      <polygon
   id="_94"
   fill="#9B9B9B"
   points="97.73,156.86 97.06,156.86 97.06,52.47 97.73,52.47 " />
      <polygon
   id="_95"
   fill="#9C9C9C"
   points="98.18,156.86 97.5,156.86 97.5,52.47 98.18,52.47 " />
      <polygon
   id="_96"
   fill="#9C9C9C"
   points="98.62,156.86 97.95,156.86 97.95,52.47 98.62,52.47 " />
      <polygon
   id="_97"
   fill="#9C9C9C"
   points="99.07,156.86 98.4,156.86 98.4,52.47 99.07,52.47 " />
      <polygon
   id="_98"
   fill="#9D9D9D"
   points="99.52,156.86 98.85,156.86 98.85,52.47 99.52,52.47 " />
      <polygon
   id="_99"
   fill="#9D9D9D"
   points="99.97,156.86 99.3,156.86 99.3,52.47 99.97,52.47 " />
      <polygon
   id="_100"
   fill="#9D9D9D"
   points="100.41,156.86 99.74,156.86 99.74,52.47 100.41,52.47 " />
      <polygon
   id="_101"
   fill="#9E9E9E"
   points="100.86,156.86 100.19,156.86 100.19,52.47 100.86,52.47 " />
      <polygon
   id="_102"
   fill="#9E9E9E"
   points="101.31,156.86 100.64,156.86 100.64,52.47 101.31,52.47 " />
      <polygon
   id="_103"
   fill="#9E9E9E"
   points="101.76,156.86 101.09,156.86 101.09,52.47 101.76,52.47 " />
      <polygon
   id="_104"
   fill="#9F9F9F"
   points="102.21,156.86 101.53,156.86 101.53,52.47 102.21,52.47 " />
      <polygon
   id="_105"
   fill="#9F9F9F"
   points="102.65,156.86 101.98,156.86 101.98,52.47 102.65,52.47 " />
      <polygon
   id="_106"
   fill="#9F9F9F"
   points="103.1,156.86 102.43,156.86 102.43,52.47 103.1,52.47 " />
      <polygon
   id="_107"
   fill="#A0A0A0"
   points="103.55,156.86 102.88,156.86 102.88,52.47 103.55,52.47 " />
      <polygon
   id="_108"
   fill="#A0A0A0"
   points="104,156.86 103.32,156.86 103.32,52.47 104,52.47 " />
      <polygon
   id="_109"
   fill="#A0A0A0"
   points="104.44,156.86 103.77,156.86 103.77,52.47 104.44,52.47 " />
      <polygon
   id="_110"
   fill="#A1A1A1"
   points="104.89,156.86 104.22,156.86 104.22,52.47 104.89,52.47 " />
      <polygon
   id="_111"
   fill="#A1A1A1"
   points="105.34,156.86 104.67,156.86 104.67,52.47 105.34,52.47 " />
      <polygon
   id="_112"
   fill="#A1A1A1"
   points="105.79,156.86 105.12,156.86 105.12,52.47 105.79,52.47 " />
      <polygon
   id="_113"
   fill="#A1A1A1"
   points="106.24,156.86 105.56,156.86 105.56,52.47 106.24,52.47 " />
      <polygon
   id="_114"
   fill="#A2A2A2"
   points="106.68,156.86 106.01,156.86 106.01,52.47 106.68,52.47 " />
      <polygon
   id="_115"
   fill="#A2A2A2"
   points="107.13,156.86 106.46,156.86 106.46,52.47 107.13,52.47 " />
      <polygon
   id="_116"
   fill="#A2A2A2"
   points="107.58,156.86 106.91,156.86 106.91,52.47 107.58,52.47 " />
      <polygon
   id="_117"
   fill="#A3A3A3"
   points="108.03,156.86 107.35,156.86 107.35,52.47 108.03,52.47 " />
      <polygon
   id="_118"
   fill="#A3A3A3"
   points="108.47,156.86 107.8,156.86 107.8,52.47 108.47,52.47 " />
      <polygon
   id="_119"
   fill="#A3A3A3"
   points="108.92,156.86 108.25,156.86 108.25,52.47 108.92,52.47 " />
      <polygon
   id="_120"
   fill="#A4A4A4"
   points="109.37,156.86 108.7,156.86 108.7,52.47 109.37,52.47 " />
      <polygon
   id="_121"
   fill="#A4A4A4"
   points="109.82,156.86 109.15,156.86 109.15,52.47 109.82,52.47 " />
      <polygon
   id="_122"
   fill="#A4A4A4"
   points="110.26,156.86 109.59,156.86 109.59,52.47 110.26,52.47 " />
      <polygon
   id="_123"
   fill="#A5A5A5"
   points="110.71,156.86 110.04,156.86 110.04,52.47 110.71,52.47 " />
      <polygon
   id="_124"
   fill="#A5A5A5"
   points="111.16,156.86 110.49,156.86 110.49,52.47 111.16,52.47 " />
      <polygon
   id="_125"
   fill="#A5A5A5"
   points="111.61,156.86 110.94,156.86 110.94,52.47 111.61,52.47 " />
      <polygon
   id="_126"
   fill="#A6A6A6"
   points="112.06,156.86 111.38,156.86 111.38,52.47 112.06,52.47 " />
      <polygon
   id="_127"
   fill="#A6A6A6"
   points="112.5,156.86 111.83,156.86 111.83,52.47 112.5,52.47 " />
      <polygon
   id="_128"
   fill="#A6A6A6"
   points="112.95,156.86 112.28,156.86 112.28,52.47 112.95,52.47 " />
      <polygon
   id="_129"
   fill="#A6A6A6"
   points="113.4,156.86 112.73,156.86 112.73,52.47 113.4,52.47 " />
      <polygon
   id="_130"
   fill="#A7A7A7"
   points="113.85,156.86 113.18,156.86 113.18,52.47 113.85,52.47 " />
      <polygon
   id="_131"
   fill="#A7A7A7"
   points="114.29,156.86 113.62,156.86 113.62,52.47 114.29,52.47 " />
      <polygon
   id="_132"
   fill="#A7A7A7"
   points="114.74,156.86 114.07,156.86 114.07,52.47 114.74,52.47 " />
      <polygon
   id="_133"
   fill="#A8A8A8"
   points="115.19,156.86 114.52,156.86 114.52,52.47 115.19,52.47 " />
      <polygon
   id="_134"
   fill="#A8A8A8"
   points="115.64,156.86 114.97,156.86 114.97,52.47 115.64,52.47 " />
      <polygon
   id="_135"
   fill="#A8A8A8"
   points="116.09,156.86 115.41,156.86 115.41,52.47 116.09,52.47 " />
      <polygon
   id="_136"
   fill="#A9A9A9"
   points="116.53,156.86 115.86,156.86 115.86,52.47 116.53,52.47 " />
      <polygon
   id="_137"
   fill="#A9A9A9"
   points="116.98,156.86 116.31,156.86 116.31,52.47 116.98,52.47 " />
      <polygon
   id="_138"
   fill="#A9A9A9"
   points="117.43,156.86 116.76,156.86 116.76,52.47 117.43,52.47 " />
      <polygon
   id="_139"
   fill="#AAAAAA"
   points="117.88,156.86 117.21,156.86 117.21,52.47 117.88,52.47 " />
      <polygon
   id="_140"
   fill="#AAAAAA"
   points="118.32,156.86 117.65,156.86 117.65,52.47 118.32,52.47 " />
      <polygon
   id="_141"
   fill="#AAAAAA"
   points="118.77,156.86 118.1,156.86 118.1,52.47 118.77,52.47 " />
      <polygon
   id="_142"
   fill="#ABABAB"
   points="119.22,156.86 118.55,156.86 118.55,52.47 119.22,52.47 " />
      <polygon
   id="_143"
   fill="#ABABAB"
   points="119.67,156.86 119,156.86 119,52.47 119.67,52.47 " />
      <polygon
   id="_144"
   fill="#ABABAB"
   points="120.12,156.86 119.44,156.86 119.44,52.47 120.12,52.47 " />
      <polygon
   id="_145"
   fill="#ABABAB"
   points="120.56,156.86 119.89,156.86 119.89,52.47 120.56,52.47 " />
      <polygon
   id="_146"
   fill="#ACACAC"
   points="121.01,156.86 120.34,156.86 120.34,52.47 121.01,52.47 " />
      <polygon
   id="_147"
   fill="#ACACAC"
   points="121.46,156.86 120.79,156.86 120.79,52.47 121.46,52.47 " />
      <polygon
   id="_148"
   fill="#ACACAC"
   points="121.91,156.86 121.23,156.86 121.23,52.47 121.91,52.47 " />
      <polygon
   id="_149"
   fill="#ADADAD"
   points="122.35,156.86 121.68,156.86 121.68,52.47 122.35,52.47 " />
      <polygon
   id="_150"
   fill="#ADADAD"
   points="122.8,156.86 122.13,156.86 122.13,52.47 122.8,52.47 " />
      <polygon
   id="_151"
   fill="#ADADAD"
   points="123.25,156.86 122.58,156.86 122.58,52.47 123.25,52.47 " />
      <polygon
   id="_152"
   fill="#AEAEAE"
   points="123.7,156.86 123.03,156.86 123.03,52.47 123.7,52.47 " />
      <polygon
   id="_153"
   fill="#AEAEAE"
   points="124.15,156.86 123.47,156.86 123.47,52.47 124.15,52.47 " />
      <polygon
   id="_154"
   fill="#AEAEAE"
   points="124.59,156.86 123.92,156.86 123.92,52.47 124.59,52.47 " />
      <polygon
   id="_155"
   fill="#AFAFAF"
   points="125.04,156.86 124.37,156.86 124.37,52.47 125.04,52.47 " />
      <polygon
   id="_156"
   fill="#AFAFAF"
   points="125.49,156.86 124.82,156.86 124.82,52.47 125.49,52.47 " />
      <polygon
   id="_157"
   fill="#AFAFAF"
   points="125.94,156.86 125.26,156.86 125.26,52.47 125.94,52.47 " />
      <polygon
   id="_158"
   fill="#B0B0B0"
   points="126.38,156.86 125.71,156.86 125.71,52.47 126.38,52.47 " />
      <polygon
   id="_159"
   fill="#B0B0B0"
   points="126.83,156.86 126.16,156.86 126.16,52.47 126.83,52.47 " />
      <polygon
   id="_160"
   fill="#B0B0B0"
   points="127.28,156.86 126.61,156.86 126.61,52.47 127.28,52.47 " />
      <polygon
   id="_161"
   fill="#B1B1B1"
   points="127.73,156.86 127.06,156.86 127.06,52.47 127.73,52.47 " />
      <polygon
   id="_162"
   fill="#B1B1B1"
   points="128.18,156.86 127.5,156.86 127.5,52.47 128.18,52.47 " />
      <polygon
   id="_163"
   fill="#B1B1B1"
   points="128.62,156.86 127.95,156.86 127.95,52.47 128.62,52.47 " />
      <polygon
   id="_164"
   fill="#B1B1B1"
   points="129.07,156.86 128.4,156.86 128.4,52.47 129.07,52.47 " />
      <polygon
   id="_165"
   fill="#B2B2B2"
   points="129.52,156.86 128.85,156.86 128.85,52.47 129.52,52.47 " />
      <polygon
   id="_166"
   fill="#B2B2B2"
   points="129.97,156.86 129.29,156.86 129.29,52.47 129.97,52.47 " />
      <polygon
   id="_167"
   fill="#B2B2B2"
   points="130.41,156.86 129.74,156.86 129.74,52.47 130.41,52.47 " />
      <polygon
   id="_168"
   fill="#B3B3B3"
   points="130.86,156.86 130.19,156.86 130.19,52.47 130.86,52.47 " />
      <polygon
   id="_169"
   fill="#B3B3B3"
   points="131.31,156.86 130.64,156.86 130.64,52.47 131.31,52.47 " />
      <polygon
   id="_170"
   fill="#B3B3B3"
   points="131.76,156.86 131.09,156.86 131.09,52.47 131.76,52.47 " />
      <polygon
   id="_171"
   fill="#B4B4B4"
   points="132.2,156.86 131.53,156.86 131.53,52.47 132.2,52.47 " />
      <polygon
   id="_172"
   fill="#B4B4B4"
   points="132.65,156.86 131.98,156.86 131.98,52.47 132.65,52.47 " />
      <polygon
   id="_173"
   fill="#B4B4B4"
   points="133.1,156.86 132.43,156.86 132.43,52.47 133.1,52.47 " />
      <polygon
   id="_174"
   fill="#B5B5B5"
   points="133.55,156.86 132.88,156.86 132.88,52.47 133.55,52.47 " />
      <polygon
   id="_175"
   fill="#B5B5B5"
   points="134,156.86 133.32,156.86 133.32,52.47 134,52.47 " />
      <polygon
   id="_176"
   fill="#B5B5B5"
   points="134.44,156.86 133.77,156.86 133.77,52.47 134.44,52.47 " />
      <polygon
   id="_177"
   fill="#B6B6B6"
   points="134.89,156.86 134.22,156.86 134.22,52.47 134.89,52.47 " />
      <polygon
   id="_178"
   fill="#B6B6B6"
   points="135.34,156.86 134.67,156.86 134.67,52.47 135.34,52.47 " />
      <polygon
   id="_179"
   fill="#B6B6B6"
   points="135.79,156.86 135.12,156.86 135.12,52.47 135.79,52.47 " />
      <polygon
   id="_180"
   fill="#B6B6B6"
   points="136.23,156.86 135.56,156.86 135.56,52.47 136.23,52.47 " />
      <polygon
   id="_181"
   fill="#B7B7B7"
   points="136.68,156.86 136.01,156.86 136.01,52.47 136.68,52.47 " />
      <polygon
   id="_182"
   fill="#B7B7B7"
   points="137.13,156.86 136.46,156.86 136.46,52.47 137.13,52.47 " />
      <polygon
   id="_183"
   fill="#B7B7B7"
   points="137.58,156.86 136.91,156.86 136.91,52.47 137.58,52.47 " />
      <polygon
   id="_184"
   fill="#B8B8B8"
   points="138.03,156.86 137.35,156.86 137.35,52.47 138.03,52.47 " />
      <polygon
   id="_185"
   fill="#B8B8B8"
   points="138.47,156.86 137.8,156.86 137.8,52.47 138.47,52.47 " />
      <polygon
   id="_186"
   fill="#B8B8B8"
   points="138.92,156.86 138.25,156.86 138.25,52.47 138.92,52.47 " />
      <polygon
   id="_187"
   fill="#B9B9B9"
   points="139.37,156.86 138.7,156.86 138.7,52.47 139.37,52.47 " />
      <polygon
   id="_188"
   fill="#B9B9B9"
   points="139.82,156.86 139.15,156.86 139.15,52.47 139.82,52.47 " />
      <polygon
   id="_189"
   fill="#B9B9B9"
   points="140.26,156.86 139.59,156.86 139.59,52.47 140.26,52.47 " />
      <polygon
   id="_190"
   fill="#BABABA"
   points="140.71,156.86 140.04,156.86 140.04,52.47 140.71,52.47 " />
      <polygon
   id="_191"
   fill="#BABABA"
   points="141.16,156.86 140.49,156.86 140.49,52.47 141.16,52.47 " />
      <polygon
   id="_192"
   fill="#BABABA"
   points="141.61,156.86 140.94,156.86 140.94,52.47 141.61,52.47 " />
      <polygon
   id="_193"
   fill="#BBBBBB"
   points="142.06,156.86 141.38,156.86 141.38,52.47 142.06,52.47 " />
      <polygon
   id="_194"
   fill="#BBBBBB"
   points="142.5,156.86 141.83,156.86 141.83,52.47 142.5,52.47 " />
      <polygon
   id="_195"
   fill="#BBBBBB"
   points="142.95,156.86 142.28,156.86 142.28,52.47 142.95,52.47 " />
      <polygon
   id="_196"
   fill="#BBBBBB"
   points="143.4,156.86 142.73,156.86 142.73,52.47 143.4,52.47 " />
      <polygon
   id="_197"
   fill="#BCBCBC"
   points="143.85,156.86 143.17,156.86 143.17,52.47 143.85,52.47 " />
      <polygon
   id="_198"
   fill="#BCBCBC"
   points="144.29,156.86 143.62,156.86 143.62,52.47 144.29,52.47 " />
      <polygon
   id="_199"
   fill="#BCBCBC"
   points="144.74,156.86 144.07,156.86 144.07,52.47 144.74,52.47 " />
      <polygon
   id="_200"
   fill="#BDBDBD"
   points="145.19,156.86 144.52,156.86 144.52,52.47 145.19,52.47 " />
      <polygon
   id="_201"
   fill="#BDBDBD"
   points="145.64,156.86 144.97,156.86 144.97,52.47 145.64,52.47 " />
      <polygon
   id="_202"
   fill="#BDBDBD"
   points="146.08,156.86 145.41,156.86 145.41,52.47 146.08,52.47 " />
      <polygon
   id="_203"
   fill="#BEBEBE"
   points="146.53,156.86 145.86,156.86 145.86,52.47 146.53,52.47 " />
      <polygon
   id="_204"
   fill="#BEBEBE"
   points="146.98,156.86 146.31,156.86 146.31,52.47 146.98,52.47 " />
      <polygon
   id="_205"
   fill="#BEBEBE"
   points="147.43,156.86 146.76,156.86 146.76,52.47 147.43,52.47 " />
      <polygon
   id="_206"
   fill="#BFBFBF"
   points="147.88,156.86 147.2,156.86 147.2,52.47 147.88,52.47 " />
      <polygon
   id="_207"
   fill="#BFBFBF"
   points="148.32,156.86 147.65,156.86 147.65,52.47 148.32,52.47 " />
      <polygon
   id="_208"
   fill="#BFBFBF"
   points="148.77,156.86 148.1,156.86 148.1,52.47 148.77,52.47 " />
      <polygon
   id="_209"
   fill="#C0C0C0"
   points="149.22,156.86 148.55,156.86 148.55,52.47 149.22,52.47 " />
      <polygon
   id="_210"
   fill="#C0C0C0"
   points="149.67,156.86 149,156.86 149,52.47 149.67,52.47 " />
      <polygon
   id="_211"
   fill="#C0C0C0"
   points="150.11,156.86 149.44,156.86 149.44,52.47 150.11,52.47 " />
      <polygon
   id="_212"
   fill="#C1C1C1"
   points="150.56,156.86 149.89,156.86 149.89,52.47 150.56,52.47 " />
      <polygon
   id="_213"
   fill="#C1C1C1"
   points="151.01,156.86 150.34,156.86 150.34,52.47 151.01,52.47 " />
      <polygon
   id="_214"
   fill="#C1C1C1"
   points="151.46,156.86 150.79,156.86 150.79,52.47 151.46,52.47 " />
      <polygon
   id="_215"
   fill="#C1C1C1"
   points="151.91,156.86 151.23,156.86 151.23,52.47 151.91,52.47 " />
      <polygon
   id="_216"
   fill="#C2C2C2"
   points="152.35,156.86 151.68,156.86 151.68,52.47 152.35,52.47 " />
      <polygon
   id="_217"
   fill="#C2C2C2"
   points="152.8,156.86 152.13,156.86 152.13,52.47 152.8,52.47 " />
      <polygon
   id="_218"
   fill="#C2C2C2"
   points="153.25,156.86 152.58,156.86 152.58,52.47 153.25,52.47 " />
      <polygon
   id="_219"
   fill="#C3C3C3"
   points="153.7,156.86 153.03,156.86 153.03,52.47 153.7,52.47 " />
      <polygon
   id="_220"
   fill="#C3C3C3"
   points="154.14,156.86 153.47,156.86 153.47,52.47 154.14,52.47 " />
      <polygon
   id="_221"
   fill="#C3C3C3"
   points="154.59,156.86 153.92,156.86 153.92,52.47 154.59,52.47 " />
      <polygon
   id="_222"
   fill="#C4C4C4"
   points="155.04,156.86 154.37,156.86 154.37,52.47 155.04,52.47 " />
      <polygon
   id="_223"
   fill="#C4C4C4"
   points="155.49,156.86 154.82,156.86 154.82,52.47 155.49,52.47 " />
      <polygon
   id="_224"
   fill="#C4C4C4"
   points="155.94,156.86 155.26,156.86 155.26,52.47 155.94,52.47 " />
      <polygon
   id="_225"
   fill="#C5C5C5"
   points="156.38,156.86 155.71,156.86 155.71,52.47 156.38,52.47 " />
      <polygon
   id="_226"
   fill="#C5C5C5"
   points="156.83,156.86 156.16,156.86 156.16,52.47 156.83,52.47 " />
      <polygon
   id="_227"
   fill="#C5C5C5"
   points="157.28,156.86 156.61,156.86 156.61,52.47 157.28,52.47 " />
      <polygon
   id="_228"
   fill="#C6C6C6"
   points="157.73,156.86 157.05,156.86 157.05,52.47 157.73,52.47 " />
      <polygon
   id="_229"
   fill="#C6C6C6"
   points="158.17,156.86 157.5,156.86 157.5,52.47 158.17,52.47 " />
      <polygon
   id="_230"
   fill="#C6C6C6"
   points="158.62,156.86 157.95,156.86 157.95,52.47 158.62,52.47 " />
      <polygon
   id="_231"
   fill="#C6C6C6"
   points="159.07,156.86 158.4,156.86 158.4,52.47 159.07,52.47 " />
      <polygon
   id="_232"
   fill="#C7C7C7"
   points="159.52,156.86 158.85,156.86 158.85,52.47 159.52,52.47 " />
      <polygon
   id="_233"
   fill="#C7C7C7"
   points="159.97,156.86 159.29,156.86 159.29,52.47 159.97,52.47 " />
      <polygon
   id="_234"
   fill="#C7C7C7"
   points="160.41,156.86 159.74,156.86 159.74,52.47 160.41,52.47 " />
      <polygon
   id="_235"
   fill="#C8C8C8"
   points="160.86,156.86 160.19,156.86 160.19,52.47 160.86,52.47 " />
      <polygon
   id="_236"
   fill="#C8C8C8"
   points="161.31,156.86 160.64,156.86 160.64,52.47 161.31,52.47 " />
      <polygon
   id="_237"
   fill="#C8C8C8"
   points="161.76,156.86 161.08,156.86 161.08,52.47 161.76,52.47 " />
      <polygon
   id="_238"
   fill="#C9C9C9"
   points="162.2,156.86 161.53,156.86 161.53,52.47 162.2,52.47 " />
      <polygon
   id="_239"
   fill="#C9C9C9"
   points="162.65,156.86 161.98,156.86 161.98,52.47 162.65,52.47 " />
      <polygon
   id="_240"
   fill="#C9C9C9"
   points="163.1,156.86 162.43,156.86 162.43,52.47 163.1,52.47 " />
      <polygon
   id="_241"
   fill="#CACACA"
   points="163.55,156.86 162.88,156.86 162.88,52.47 163.55,52.47 " />
      <polygon
   id="_242"
   fill="#CACACA"
   points="164,156.86 163.32,156.86 163.32,52.47 164,52.47 " />
      <polygon
   id="_243"
   fill="#CACACA"
   points="164.44,156.86 163.77,156.86 163.77,52.47 164.44,52.47 " />
      <polygon
   id="_244"
   fill="#CBCBCB"
   points="164.89,156.86 164.22,156.86 164.22,52.47 164.89,52.47 " />
      <polygon
   id="_245"
   fill="#CBCBCB"
   points="165.34,156.86 164.67,156.86 164.67,52.47 165.34,52.47 " />
      <polygon
   id="_246"
   fill="#CBCBCB"
   points="165.79,156.86 165.11,156.86 165.11,52.47 165.79,52.47 " />
      <polygon
   id="_247"
   fill="#CBCBCB"
   points="166.23,156.86 165.56,156.86 165.56,52.47 166.23,52.47 " />
      <polygon
   id="_248"
   fill="#CCCCCC"
   points="166.68,156.86 166.01,156.86 166.01,52.47 166.68,52.47 " />
      <polygon
   id="_249"
   fill="#CCCCCC"
   points="167.13,156.86 166.46,156.86 166.46,52.47 167.13,52.47 " />
      <polygon
   id="_250"
   fill="#CCCCCC"
   points="167.58,156.86 166.91,156.86 166.91,52.47 167.58,52.47 " />
      <polygon
   id="_251"
   fill="#CDCDCD"
   points="168.02,156.86 167.35,156.86 167.35,52.47 168.02,52.47 " />
      <polygon
   id="_252"
   fill="#CDCDCD"
   points="168.47,156.86 167.8,156.86 167.8,52.47 168.47,52.47 " />
      <polygon
   id="_253"
   fill="#CDCDCD"
   points="168.92,156.86 168.25,156.86 168.25,52.47 168.92,52.47 " />
      <polygon
   id="_254"
   fill="#CECECE"
   points="169.37,156.86 168.7,156.86 168.7,52.47 169.37,52.47 " />
      <polygon
   id="_255"
   fill="#CECECE"
   points="169.95,156.86 169.14,156.86 169.14,52.47 169.95,52.47 " />
     </g>
    </g>
    <g
   id="g5">
     <g
   clip-path="url(#id1)"
   id="g4">
      <polygon
   fill="#7E7E7E"
   points="28.43,184.04 27.03,184.04 27.03,26.14 28.43,26.14 "
   id="polygon3" />
      <polygon
   id="_1_0"
   fill="#7E7E7E"
   points="29.04,184.04 28.13,184.04 28.13,26.14 29.04,26.14 " />
      <polygon
   id="_2_1"
   fill="#7F7F7F"
   points="29.65,184.04 28.74,184.04 28.74,26.14 29.65,26.14 " />
      <polygon
   id="_3_2"
   fill="#7F7F7F"
   points="30.26,184.04 29.35,184.04 29.35,26.14 30.26,26.14 " />
      <polygon
   id="_4_3"
   fill="#7F7F7F"
   points="30.87,184.04 29.95,184.04 29.95,26.14 30.87,26.14 " />
      <polygon
   id="_5_4"
   fill="#808080"
   points="31.47,184.04 30.56,184.04 30.56,26.14 31.47,26.14 " />
      <polygon
   id="_6_5"
   fill="#808080"
   points="32.08,184.04 31.17,184.04 31.17,26.14 32.08,26.14 " />
      <polygon
   id="_7_6"
   fill="#808080"
   points="32.69,184.04 31.78,184.04 31.78,26.14 32.69,26.14 " />
      <polygon
   id="_8_7"
   fill="#818181"
   points="33.3,184.04 32.39,184.04 32.39,26.14 33.3,26.14 " />
      <polygon
   id="_9_8"
   fill="#818181"
   points="33.91,184.04 33,184.04 33,26.14 33.91,26.14 " />
      <polygon
   id="_10_9"
   fill="#818181"
   points="34.52,184.04 33.6,184.04 33.6,26.14 34.52,26.14 " />
      <polygon
   id="_11_10"
   fill="#818181"
   points="35.12,184.04 34.21,184.04 34.21,26.14 35.12,26.14 " />
      <polygon
   id="_12_11"
   fill="#828282"
   points="35.73,184.04 34.82,184.04 34.82,26.14 35.73,26.14 " />
      <polygon
   id="_13_12"
   fill="#828282"
   points="36.34,184.04 35.43,184.04 35.43,26.14 36.34,26.14 " />
      <polygon
   id="_14_13"
   fill="#828282"
   points="36.95,184.04 36.04,184.04 36.04,26.14 36.95,26.14 " />
      <polygon
   id="_15_14"
   fill="#838383"
   points="37.56,184.04 36.64,184.04 36.64,26.14 37.56,26.14 " />
      <polygon
   id="_16_15"
   fill="#838383"
   points="38.17,184.04 37.25,184.04 37.25,26.14 38.17,26.14 " />
      <polygon
   id="_17_16"
   fill="#838383"
   points="38.77,184.04 37.86,184.04 37.86,26.14 38.77,26.14 " />
      <polygon
   id="_18_17"
   fill="#848484"
   points="39.38,184.04 38.47,184.04 38.47,26.14 39.38,26.14 " />
      <polygon
   id="_19_18"
   fill="#848484"
   points="39.99,184.04 39.08,184.04 39.08,26.14 39.99,26.14 " />
      <polygon
   id="_20_19"
   fill="#848484"
   points="40.6,184.04 39.69,184.04 39.69,26.14 40.6,26.14 " />
      <polygon
   id="_21_20"
   fill="#858585"
   points="41.21,184.04 40.29,184.04 40.29,26.14 41.21,26.14 " />
      <polygon
   id="_22_21"
   fill="#858585"
   points="41.82,184.04 40.9,184.04 40.9,26.14 41.82,26.14 " />
      <polygon
   id="_23_22"
   fill="#858585"
   points="42.42,184.04 41.51,184.04 41.51,26.14 42.42,26.14 " />
      <polygon
   id="_24_23"
   fill="#868686"
   points="43.03,184.04 42.12,184.04 42.12,26.14 43.03,26.14 " />
      <polygon
   id="_25_24"
   fill="#868686"
   points="43.64,184.04 42.73,184.04 42.73,26.14 43.64,26.14 " />
      <polygon
   id="_26_25"
   fill="#868686"
   points="44.25,184.04 43.34,184.04 43.34,26.14 44.25,26.14 " />
      <polygon
   id="_27_26"
   fill="#868686"
   points="44.86,184.04 43.94,184.04 43.94,26.14 44.86,26.14 " />
      <polygon
   id="_28_27"
   fill="#878787"
   points="45.46,184.04 44.55,184.04 44.55,26.14 45.46,26.14 " />
      <polygon
   id="_29_28"
   fill="#878787"
   points="46.07,184.04 45.16,184.04 45.16,26.14 46.07,26.14 " />
      <polygon
   id="_30_29"
   fill="#878787"
   points="46.68,184.04 45.77,184.04 45.77,26.14 46.68,26.14 " />
      <polygon
   id="_31_30"
   fill="#888888"
   points="47.29,184.04 46.38,184.04 46.38,26.14 47.29,26.14 " />
      <polygon
   id="_32_31"
   fill="#888888"
   points="47.9,184.04 46.99,184.04 46.99,26.14 47.9,26.14 " />
      <polygon
   id="_33_32"
   fill="#888888"
   points="48.51,184.04 47.59,184.04 47.59,26.14 48.51,26.14 " />
      <polygon
   id="_34_33"
   fill="#898989"
   points="49.11,184.04 48.2,184.04 48.2,26.14 49.11,26.14 " />
      <polygon
   id="_35_34"
   fill="#898989"
   points="49.72,184.04 48.81,184.04 48.81,26.14 49.72,26.14 " />
      <polygon
   id="_36_35"
   fill="#898989"
   points="50.33,184.04 49.42,184.04 49.42,26.14 50.33,26.14 " />
      <polygon
   id="_37_36"
   fill="#8A8A8A"
   points="50.94,184.04 50.03,184.04 50.03,26.14 50.94,26.14 " />
      <polygon
   id="_38_37"
   fill="#8A8A8A"
   points="51.55,184.04 50.63,184.04 50.63,26.14 51.55,26.14 " />
      <polygon
   id="_39_38"
   fill="#8A8A8A"
   points="52.16,184.04 51.24,184.04 51.24,26.14 52.16,26.14 " />
      <polygon
   id="_40_39"
   fill="#8B8B8B"
   points="52.76,184.04 51.85,184.04 51.85,26.14 52.76,26.14 " />
      <polygon
   id="_41_40"
   fill="#8B8B8B"
   points="53.37,184.04 52.46,184.04 52.46,26.14 53.37,26.14 " />
      <polygon
   id="_42_41"
   fill="#8B8B8B"
   points="53.98,184.04 53.07,184.04 53.07,26.14 53.98,26.14 " />
      <polygon
   id="_43_42"
   fill="#8B8B8B"
   points="54.59,184.04 53.68,184.04 53.68,26.14 54.59,26.14 " />
      <polygon
   id="_44_43"
   fill="#8C8C8C"
   points="55.2,184.04 54.28,184.04 54.28,26.14 55.2,26.14 " />
      <polygon
   id="_45_44"
   fill="#8C8C8C"
   points="55.81,184.04 54.89,184.04 54.89,26.14 55.81,26.14 " />
      <polygon
   id="_46_45"
   fill="#8C8C8C"
   points="56.41,184.04 55.5,184.04 55.5,26.14 56.41,26.14 " />
      <polygon
   id="_47_46"
   fill="#8D8D8D"
   points="57.02,184.04 56.11,184.04 56.11,26.14 57.02,26.14 " />
      <polygon
   id="_48_47"
   fill="#8D8D8D"
   points="57.63,184.04 56.72,184.04 56.72,26.14 57.63,26.14 " />
      <polygon
   id="_49_48"
   fill="#8D8D8D"
   points="58.24,184.04 57.33,184.04 57.33,26.14 58.24,26.14 " />
      <polygon
   id="_50_49"
   fill="#8E8E8E"
   points="58.85,184.04 57.93,184.04 57.93,26.14 58.85,26.14 " />
      <polygon
   id="_51_50"
   fill="#8E8E8E"
   points="59.45,184.04 58.54,184.04 58.54,26.14 59.45,26.14 " />
      <polygon
   id="_52_51"
   fill="#8E8E8E"
   points="60.06,184.04 59.15,184.04 59.15,26.14 60.06,26.14 " />
      <polygon
   id="_53_52"
   fill="#8F8F8F"
   points="60.67,184.04 59.76,184.04 59.76,26.14 60.67,26.14 " />
      <polygon
   id="_54_53"
   fill="#8F8F8F"
   points="61.28,184.04 60.37,184.04 60.37,26.14 61.28,26.14 " />
      <polygon
   id="_55_54"
   fill="#8F8F8F"
   points="61.89,184.04 60.98,184.04 60.98,26.14 61.89,26.14 " />
      <polygon
   id="_56_55"
   fill="#909090"
   points="62.5,184.04 61.58,184.04 61.58,26.14 62.5,26.14 " />
      <polygon
   id="_57_56"
   fill="#909090"
   points="63.1,184.04 62.19,184.04 62.19,26.14 63.1,26.14 " />
      <polygon
   id="_58_57"
   fill="#909090"
   points="63.71,184.04 62.8,184.04 62.8,26.14 63.71,26.14 " />
      <polygon
   id="_59_58"
   fill="#919191"
   points="64.32,184.04 63.41,184.04 63.41,26.14 64.32,26.14 " />
      <polygon
   id="_60_59"
   fill="#919191"
   points="64.93,184.04 64.02,184.04 64.02,26.14 64.93,26.14 " />
      <polygon
   id="_61_60"
   fill="#919191"
   points="65.54,184.04 64.62,184.04 64.62,26.14 65.54,26.14 " />
      <polygon
   id="_62_61"
   fill="#919191"
   points="66.15,184.04 65.23,184.04 65.23,26.14 66.15,26.14 " />
      <polygon
   id="_63_62"
   fill="#929292"
   points="66.75,184.04 65.84,184.04 65.84,26.14 66.75,26.14 " />
      <polygon
   id="_64_63"
   fill="#929292"
   points="67.36,184.04 66.45,184.04 66.45,26.14 67.36,26.14 " />
      <polygon
   id="_65_64"
   fill="#929292"
   points="67.97,184.04 67.06,184.04 67.06,26.14 67.97,26.14 " />
      <polygon
   id="_66_65"
   fill="#939393"
   points="68.58,184.04 67.67,184.04 67.67,26.14 68.58,26.14 " />
      <polygon
   id="_67_66"
   fill="#939393"
   points="69.19,184.04 68.27,184.04 68.27,26.14 69.19,26.14 " />
      <polygon
   id="_68_67"
   fill="#939393"
   points="69.79,184.04 68.88,184.04 68.88,26.14 69.79,26.14 " />
      <polygon
   id="_69_68"
   fill="#949494"
   points="70.4,184.04 69.49,184.04 69.49,26.14 70.4,26.14 " />
      <polygon
   id="_70_69"
   fill="#949494"
   points="71.01,184.04 70.1,184.04 70.1,26.14 71.01,26.14 " />
      <polygon
   id="_71_70"
   fill="#949494"
   points="71.62,184.04 70.71,184.04 70.71,26.14 71.62,26.14 " />
      <polygon
   id="_72_71"
   fill="#959595"
   points="72.23,184.04 71.32,184.04 71.32,26.14 72.23,26.14 " />
      <polygon
   id="_73_72"
   fill="#959595"
   points="72.84,184.04 71.92,184.04 71.92,26.14 72.84,26.14 " />
      <polygon
   id="_74_73"
   fill="#959595"
   points="73.44,184.04 72.53,184.04 72.53,26.14 73.44,26.14 " />
      <polygon
   id="_75_74"
   fill="#969696"
   points="74.05,184.04 73.14,184.04 73.14,26.14 74.05,26.14 " />
      <polygon
   id="_76_75"
   fill="#969696"
   points="74.66,184.04 73.75,184.04 73.75,26.14 74.66,26.14 " />
      <polygon
   id="_77_76"
   fill="#969696"
   points="75.27,184.04 74.36,184.04 74.36,26.14 75.27,26.14 " />
      <polygon
   id="_78_77"
   fill="#969696"
   points="75.88,184.04 74.97,184.04 74.97,26.14 75.88,26.14 " />
      <polygon
   id="_79_78"
   fill="#979797"
   points="76.49,184.04 75.57,184.04 75.57,26.14 76.49,26.14 " />
      <polygon
   id="_80_79"
   fill="#979797"
   points="77.09,184.04 76.18,184.04 76.18,26.14 77.09,26.14 " />
      <polygon
   id="_81_80"
   fill="#979797"
   points="77.7,184.04 76.79,184.04 76.79,26.14 77.7,26.14 " />
      <polygon
   id="_82_81"
   fill="#989898"
   points="78.31,184.04 77.4,184.04 77.4,26.14 78.31,26.14 " />
      <polygon
   id="_83_82"
   fill="#989898"
   points="78.92,184.04 78.01,184.04 78.01,26.14 78.92,26.14 " />
      <polygon
   id="_84_83"
   fill="#989898"
   points="79.53,184.04 78.61,184.04 78.61,26.14 79.53,26.14 " />
      <polygon
   id="_85_84"
   fill="#999999"
   points="80.14,184.04 79.22,184.04 79.22,26.14 80.14,26.14 " />
      <polygon
   id="_86_85"
   fill="#999999"
   points="80.74,184.04 79.83,184.04 79.83,26.14 80.74,26.14 " />
      <polygon
   id="_87_86"
   fill="#999999"
   points="81.35,184.04 80.44,184.04 80.44,26.14 81.35,26.14 " />
      <polygon
   id="_88_87"
   fill="#9A9A9A"
   points="81.96,184.04 81.05,184.04 81.05,26.14 81.96,26.14 " />
      <polygon
   id="_89_88"
   fill="#9A9A9A"
   points="82.57,184.04 81.66,184.04 81.66,26.14 82.57,26.14 " />
      <polygon
   id="_90_89"
   fill="#9A9A9A"
   points="83.18,184.04 82.26,184.04 82.26,26.14 83.18,26.14 " />
      <polygon
   id="_91_90"
   fill="#9B9B9B"
   points="83.79,184.04 82.87,184.04 82.87,26.14 83.79,26.14 " />
      <polygon
   id="_92_91"
   fill="#9B9B9B"
   points="84.39,184.04 83.48,184.04 83.48,26.14 84.39,26.14 " />
      <polygon
   id="_93_92"
   fill="#9B9B9B"
   points="85,184.04 84.09,184.04 84.09,26.14 85,26.14 " />
      <polygon
   id="_94_93"
   fill="#9B9B9B"
   points="85.61,184.04 84.7,184.04 84.7,26.14 85.61,26.14 " />
      <polygon
   id="_95_94"
   fill="#9C9C9C"
   points="86.22,184.04 85.31,184.04 85.31,26.14 86.22,26.14 " />
      <polygon
   id="_96_95"
   fill="#9C9C9C"
   points="86.83,184.04 85.91,184.04 85.91,26.14 86.83,26.14 " />
      <polygon
   id="_97_96"
   fill="#9C9C9C"
   points="87.43,184.04 86.52,184.04 86.52,26.14 87.43,26.14 " />
      <polygon
   id="_98_97"
   fill="#9D9D9D"
   points="88.04,184.04 87.13,184.04 87.13,26.14 88.04,26.14 " />
      <polygon
   id="_99_98"
   fill="#9D9D9D"
   points="88.65,184.04 87.74,184.04 87.74,26.14 88.65,26.14 " />
      <polygon
   id="_100_99"
   fill="#9D9D9D"
   points="89.26,184.04 88.35,184.04 88.35,26.14 89.26,26.14 " />
      <polygon
   id="_101_100"
   fill="#9E9E9E"
   points="89.87,184.04 88.96,184.04 88.96,26.14 89.87,26.14 " />
      <polygon
   id="_102_101"
   fill="#9E9E9E"
   points="90.48,184.04 89.56,184.04 89.56,26.14 90.48,26.14 " />
      <polygon
   id="_103_102"
   fill="#9E9E9E"
   points="91.08,184.04 90.17,184.04 90.17,26.14 91.08,26.14 " />
      <polygon
   id="_104_103"
   fill="#9F9F9F"
   points="91.69,184.04 90.78,184.04 90.78,26.14 91.69,26.14 " />
      <polygon
   id="_105_104"
   fill="#9F9F9F"
   points="92.3,184.04 91.39,184.04 91.39,26.14 92.3,26.14 " />
      <polygon
   id="_106_105"
   fill="#9F9F9F"
   points="92.91,184.04 92,184.04 92,26.14 92.91,26.14 " />
      <polygon
   id="_107_106"
   fill="#A0A0A0"
   points="93.52,184.04 92.6,184.04 92.6,26.14 93.52,26.14 " />
      <polygon
   id="_108_107"
   fill="#A0A0A0"
   points="94.13,184.04 93.21,184.04 93.21,26.14 94.13,26.14 " />
      <polygon
   id="_109_108"
   fill="#A0A0A0"
   points="94.73,184.04 93.82,184.04 93.82,26.14 94.73,26.14 " />
      <polygon
   id="_110_109"
   fill="#A1A1A1"
   points="95.34,184.04 94.43,184.04 94.43,26.14 95.34,26.14 " />
      <polygon
   id="_111_110"
   fill="#A1A1A1"
   points="95.95,184.04 95.04,184.04 95.04,26.14 95.95,26.14 " />
      <polygon
   id="_112_111"
   fill="#A1A1A1"
   points="96.56,184.04 95.65,184.04 95.65,26.14 96.56,26.14 " />
      <polygon
   id="_113_112"
   fill="#A1A1A1"
   points="97.17,184.04 96.25,184.04 96.25,26.14 97.17,26.14 " />
      <polygon
   id="_114_113"
   fill="#A2A2A2"
   points="97.78,184.04 96.86,184.04 96.86,26.14 97.78,26.14 " />
      <polygon
   id="_115_114"
   fill="#A2A2A2"
   points="98.38,184.04 97.47,184.04 97.47,26.14 98.38,26.14 " />
      <polygon
   id="_116_115"
   fill="#A2A2A2"
   points="98.99,184.04 98.08,184.04 98.08,26.14 98.99,26.14 " />
      <polygon
   id="_117_116"
   fill="#A3A3A3"
   points="99.6,184.04 98.69,184.04 98.69,26.14 99.6,26.14 " />
      <polygon
   id="_118_117"
   fill="#A3A3A3"
   points="100.21,184.04 99.3,184.04 99.3,26.14 100.21,26.14 " />
      <polygon
   id="_119_118"
   fill="#A3A3A3"
   points="100.82,184.04 99.9,184.04 99.9,26.14 100.82,26.14 " />
      <polygon
   id="_120_119"
   fill="#A4A4A4"
   points="101.42,184.04 100.51,184.04 100.51,26.14 101.42,26.14 " />
      <polygon
   id="_121_120"
   fill="#A4A4A4"
   points="102.03,184.04 101.12,184.04 101.12,26.14 102.03,26.14 " />
      <polygon
   id="_122_121"
   fill="#A4A4A4"
   points="102.64,184.04 101.73,184.04 101.73,26.14 102.64,26.14 " />
      <polygon
   id="_123_122"
   fill="#A5A5A5"
   points="103.25,184.04 102.34,184.04 102.34,26.14 103.25,26.14 " />
      <polygon
   id="_124_123"
   fill="#A5A5A5"
   points="103.86,184.04 102.95,184.04 102.95,26.14 103.86,26.14 " />
      <polygon
   id="_125_124"
   fill="#A5A5A5"
   points="104.47,184.04 103.55,184.04 103.55,26.14 104.47,26.14 " />
      <polygon
   id="_126_125"
   fill="#A6A6A6"
   points="105.07,184.04 104.16,184.04 104.16,26.14 105.07,26.14 " />
      <polygon
   id="_127_126"
   fill="#A6A6A6"
   points="105.68,184.04 104.77,184.04 104.77,26.14 105.68,26.14 " />
      <polygon
   id="_128_127"
   fill="#A6A6A6"
   points="106.29,184.04 105.38,184.04 105.38,26.14 106.29,26.14 " />
      <polygon
   id="_129_128"
   fill="#A6A6A6"
   points="106.9,184.04 105.99,184.04 105.99,26.14 106.9,26.14 " />
      <polygon
   id="_130_129"
   fill="#A7A7A7"
   points="107.51,184.04 106.59,184.04 106.59,26.14 107.51,26.14 " />
      <polygon
   id="_131_130"
   fill="#A7A7A7"
   points="108.12,184.04 107.2,184.04 107.2,26.14 108.12,26.14 " />
      <polygon
   id="_132_131"
   fill="#A7A7A7"
   points="108.72,184.04 107.81,184.04 107.81,26.14 108.72,26.14 " />
      <polygon
   id="_133_132"
   fill="#A8A8A8"
   points="109.33,184.04 108.42,184.04 108.42,26.14 109.33,26.14 " />
      <polygon
   id="_134_133"
   fill="#A8A8A8"
   points="109.94,184.04 109.03,184.04 109.03,26.14 109.94,26.14 " />
      <polygon
   id="_135_134"
   fill="#A8A8A8"
   points="110.55,184.04 109.64,184.04 109.64,26.14 110.55,26.14 " />
      <polygon
   id="_136_135"
   fill="#A9A9A9"
   points="111.16,184.04 110.24,184.04 110.24,26.14 111.16,26.14 " />
      <polygon
   id="_137_136"
   fill="#A9A9A9"
   points="111.76,184.04 110.85,184.04 110.85,26.14 111.76,26.14 " />
      <polygon
   id="_138_137"
   fill="#A9A9A9"
   points="112.37,184.04 111.46,184.04 111.46,26.14 112.37,26.14 " />
      <polygon
   id="_139_138"
   fill="#AAAAAA"
   points="112.98,184.04 112.07,184.04 112.07,26.14 112.98,26.14 " />
      <polygon
   id="_140_139"
   fill="#AAAAAA"
   points="113.59,184.04 112.68,184.04 112.68,26.14 113.59,26.14 " />
      <polygon
   id="_141_140"
   fill="#AAAAAA"
   points="114.2,184.04 113.29,184.04 113.29,26.14 114.2,26.14 " />
      <polygon
   id="_142_141"
   fill="#ABABAB"
   points="114.81,184.04 113.89,184.04 113.89,26.14 114.81,26.14 " />
      <polygon
   id="_143_142"
   fill="#ABABAB"
   points="115.41,184.04 114.5,184.04 114.5,26.14 115.41,26.14 " />
      <polygon
   id="_144_143"
   fill="#ABABAB"
   points="116.02,184.04 115.11,184.04 115.11,26.14 116.02,26.14 " />
      <polygon
   id="_145_144"
   fill="#ABABAB"
   points="116.63,184.04 115.72,184.04 115.72,26.14 116.63,26.14 " />
      <polygon
   id="_146_145"
   fill="#ACACAC"
   points="117.24,184.04 116.33,184.04 116.33,26.14 117.24,26.14 " />
      <polygon
   id="_147_146"
   fill="#ACACAC"
   points="117.85,184.04 116.94,184.04 116.94,26.14 117.85,26.14 " />
      <polygon
   id="_148_147"
   fill="#ACACAC"
   points="118.46,184.04 117.54,184.04 117.54,26.14 118.46,26.14 " />
      <polygon
   id="_149_148"
   fill="#ADADAD"
   points="119.06,184.04 118.15,184.04 118.15,26.14 119.06,26.14 " />
      <polygon
   id="_150_149"
   fill="#ADADAD"
   points="119.67,184.04 118.76,184.04 118.76,26.14 119.67,26.14 " />
      <polygon
   id="_151_150"
   fill="#ADADAD"
   points="120.28,184.04 119.37,184.04 119.37,26.14 120.28,26.14 " />
      <polygon
   id="_152_151"
   fill="#AEAEAE"
   points="120.89,184.04 119.98,184.04 119.98,26.14 120.89,26.14 " />
      <polygon
   id="_153_152"
   fill="#AEAEAE"
   points="121.5,184.04 120.58,184.04 120.58,26.14 121.5,26.14 " />
      <polygon
   id="_154_153"
   fill="#AEAEAE"
   points="122.11,184.04 121.19,184.04 121.19,26.14 122.11,26.14 " />
      <polygon
   id="_155_154"
   fill="#AFAFAF"
   points="122.71,184.04 121.8,184.04 121.8,26.14 122.71,26.14 " />
      <polygon
   id="_156_155"
   fill="#AFAFAF"
   points="123.32,184.04 122.41,184.04 122.41,26.14 123.32,26.14 " />
      <polygon
   id="_157_156"
   fill="#AFAFAF"
   points="123.93,184.04 123.02,184.04 123.02,26.14 123.93,26.14 " />
      <polygon
   id="_158_157"
   fill="#B0B0B0"
   points="124.54,184.04 123.63,184.04 123.63,26.14 124.54,26.14 " />
      <polygon
   id="_159_158"
   fill="#B0B0B0"
   points="125.15,184.04 124.23,184.04 124.23,26.14 125.15,26.14 " />
      <polygon
   id="_160_159"
   fill="#B0B0B0"
   points="125.76,184.04 124.84,184.04 124.84,26.14 125.76,26.14 " />
      <polygon
   id="_161_160"
   fill="#B1B1B1"
   points="126.36,184.04 125.45,184.04 125.45,26.14 126.36,26.14 " />
      <polygon
   id="_162_161"
   fill="#B1B1B1"
   points="126.97,184.04 126.06,184.04 126.06,26.14 126.97,26.14 " />
      <polygon
   id="_163_162"
   fill="#B1B1B1"
   points="127.58,184.04 126.67,184.04 126.67,26.14 127.58,26.14 " />
      <polygon
   id="_164_163"
   fill="#B1B1B1"
   points="128.19,184.04 127.28,184.04 127.28,26.14 128.19,26.14 " />
      <polygon
   id="_165_164"
   fill="#B2B2B2"
   points="128.8,184.04 127.88,184.04 127.88,26.14 128.8,26.14 " />
      <polygon
   id="_166_165"
   fill="#B2B2B2"
   points="129.4,184.04 128.49,184.04 128.49,26.14 129.4,26.14 " />
      <polygon
   id="_167_166"
   fill="#B2B2B2"
   points="130.01,184.04 129.1,184.04 129.1,26.14 130.01,26.14 " />
      <polygon
   id="_168_167"
   fill="#B3B3B3"
   points="130.62,184.04 129.71,184.04 129.71,26.14 130.62,26.14 " />
      <polygon
   id="_169_168"
   fill="#B3B3B3"
   points="131.23,184.04 130.32,184.04 130.32,26.14 131.23,26.14 " />
      <polygon
   id="_170_169"
   fill="#B3B3B3"
   points="131.84,184.04 130.93,184.04 130.93,26.14 131.84,26.14 " />
      <polygon
   id="_171_170"
   fill="#B4B4B4"
   points="132.45,184.04 131.53,184.04 131.53,26.14 132.45,26.14 " />
      <polygon
   id="_172_171"
   fill="#B4B4B4"
   points="133.05,184.04 132.14,184.04 132.14,26.14 133.05,26.14 " />
      <polygon
   id="_173_172"
   fill="#B4B4B4"
   points="133.66,184.04 132.75,184.04 132.75,26.14 133.66,26.14 " />
      <polygon
   id="_174_173"
   fill="#B5B5B5"
   points="134.27,184.04 133.36,184.04 133.36,26.14 134.27,26.14 " />
      <polygon
   id="_175_174"
   fill="#B5B5B5"
   points="134.88,184.04 133.97,184.04 133.97,26.14 134.88,26.14 " />
      <polygon
   id="_176_175"
   fill="#B5B5B5"
   points="135.49,184.04 134.57,184.04 134.57,26.14 135.49,26.14 " />
      <polygon
   id="_177_176"
   fill="#B6B6B6"
   points="136.1,184.04 135.18,184.04 135.18,26.14 136.1,26.14 " />
      <polygon
   id="_178_177"
   fill="#B6B6B6"
   points="136.7,184.04 135.79,184.04 135.79,26.14 136.7,26.14 " />
      <polygon
   id="_179_178"
   fill="#B6B6B6"
   points="137.31,184.04 136.4,184.04 136.4,26.14 137.31,26.14 " />
      <polygon
   id="_180_179"
   fill="#B6B6B6"
   points="137.92,184.04 137.01,184.04 137.01,26.14 137.92,26.14 " />
      <polygon
   id="_181_180"
   fill="#B7B7B7"
   points="138.53,184.04 137.62,184.04 137.62,26.14 138.53,26.14 " />
      <polygon
   id="_182_181"
   fill="#B7B7B7"
   points="139.14,184.04 138.22,184.04 138.22,26.14 139.14,26.14 " />
      <polygon
   id="_183_182"
   fill="#B7B7B7"
   points="139.75,184.04 138.83,184.04 138.83,26.14 139.75,26.14 " />
      <polygon
   id="_184_183"
   fill="#B8B8B8"
   points="140.35,184.04 139.44,184.04 139.44,26.14 140.35,26.14 " />
      <polygon
   id="_185_184"
   fill="#B8B8B8"
   points="140.96,184.04 140.05,184.04 140.05,26.14 140.96,26.14 " />
      <polygon
   id="_186_185"
   fill="#B8B8B8"
   points="141.57,184.04 140.66,184.04 140.66,26.14 141.57,26.14 " />
      <polygon
   id="_187_186"
   fill="#B9B9B9"
   points="142.18,184.04 141.27,184.04 141.27,26.14 142.18,26.14 " />
      <polygon
   id="_188_187"
   fill="#B9B9B9"
   points="142.79,184.04 141.87,184.04 141.87,26.14 142.79,26.14 " />
      <polygon
   id="_189_188"
   fill="#B9B9B9"
   points="143.39,184.04 142.48,184.04 142.48,26.14 143.39,26.14 " />
      <polygon
   id="_190_189"
   fill="#BABABA"
   points="144,184.04 143.09,184.04 143.09,26.14 144,26.14 " />
      <polygon
   id="_191_190"
   fill="#BABABA"
   points="144.61,184.04 143.7,184.04 143.7,26.14 144.61,26.14 " />
      <polygon
   id="_192_191"
   fill="#BABABA"
   points="145.22,184.04 144.31,184.04 144.31,26.14 145.22,26.14 " />
      <polygon
   id="_193_192"
   fill="#BBBBBB"
   points="145.83,184.04 144.92,184.04 144.92,26.14 145.83,26.14 " />
      <polygon
   id="_194_193"
   fill="#BBBBBB"
   points="146.44,184.04 145.52,184.04 145.52,26.14 146.44,26.14 " />
      <polygon
   id="_195_194"
   fill="#BBBBBB"
   points="147.04,184.04 146.13,184.04 146.13,26.14 147.04,26.14 " />
      <polygon
   id="_196_195"
   fill="#BBBBBB"
   points="147.65,184.04 146.74,184.04 146.74,26.14 147.65,26.14 " />
      <polygon
   id="_197_196"
   fill="#BCBCBC"
   points="148.26,184.04 147.35,184.04 147.35,26.14 148.26,26.14 " />
      <polygon
   id="_198_197"
   fill="#BCBCBC"
   points="148.87,184.04 147.96,184.04 147.96,26.14 148.87,26.14 " />
      <polygon
   id="_199_198"
   fill="#BCBCBC"
   points="149.48,184.04 148.57,184.04 148.57,26.14 149.48,26.14 " />
      <polygon
   id="_200_199"
   fill="#BDBDBD"
   points="150.09,184.04 149.17,184.04 149.17,26.14 150.09,26.14 " />
      <polygon
   id="_201_200"
   fill="#BDBDBD"
   points="150.69,184.04 149.78,184.04 149.78,26.14 150.69,26.14 " />
      <polygon
   id="_202_201"
   fill="#BDBDBD"
   points="151.3,184.04 150.39,184.04 150.39,26.14 151.3,26.14 " />
      <polygon
   id="_203_202"
   fill="#BEBEBE"
   points="151.91,184.04 151,184.04 151,26.14 151.91,26.14 " />
      <polygon
   id="_204_203"
   fill="#BEBEBE"
   points="152.52,184.04 151.61,184.04 151.61,26.14 152.52,26.14 " />
      <polygon
   id="_205_204"
   fill="#BEBEBE"
   points="153.13,184.04 152.21,184.04 152.21,26.14 153.13,26.14 " />
      <polygon
   id="_206_205"
   fill="#BFBFBF"
   points="153.73,184.04 152.82,184.04 152.82,26.14 153.73,26.14 " />
      <polygon
   id="_207_206"
   fill="#BFBFBF"
   points="154.34,184.04 153.43,184.04 153.43,26.14 154.34,26.14 " />
      <polygon
   id="_208_207"
   fill="#BFBFBF"
   points="154.95,184.04 154.04,184.04 154.04,26.14 154.95,26.14 " />
      <polygon
   id="_209_208"
   fill="#C0C0C0"
   points="155.56,184.04 154.65,184.04 154.65,26.14 155.56,26.14 " />
      <polygon
   id="_210_209"
   fill="#C0C0C0"
   points="156.17,184.04 155.26,184.04 155.26,26.14 156.17,26.14 " />
      <polygon
   id="_211_210"
   fill="#C0C0C0"
   points="156.78,184.04 155.86,184.04 155.86,26.14 156.78,26.14 " />
      <polygon
   id="_212_211"
   fill="#C1C1C1"
   points="157.38,184.04 156.47,184.04 156.47,26.14 157.38,26.14 " />
      <polygon
   id="_213_212"
   fill="#C1C1C1"
   points="157.99,184.04 157.08,184.04 157.08,26.14 157.99,26.14 " />
      <polygon
   id="_214_213"
   fill="#C1C1C1"
   points="158.6,184.04 157.69,184.04 157.69,26.14 158.6,26.14 " />
      <polygon
   id="_215_214"
   fill="#C1C1C1"
   points="159.21,184.04 158.3,184.04 158.3,26.14 159.21,26.14 " />
      <polygon
   id="_216_215"
   fill="#C2C2C2"
   points="159.82,184.04 158.91,184.04 158.91,26.14 159.82,26.14 " />
      <polygon
   id="_217_216"
   fill="#C2C2C2"
   points="160.43,184.04 159.51,184.04 159.51,26.14 160.43,26.14 " />
      <polygon
   id="_218_217"
   fill="#C2C2C2"
   points="161.03,184.04 160.12,184.04 160.12,26.14 161.03,26.14 " />
      <polygon
   id="_219_218"
   fill="#C3C3C3"
   points="161.64,184.04 160.73,184.04 160.73,26.14 161.64,26.14 " />
      <polygon
   id="_220_219"
   fill="#C3C3C3"
   points="162.25,184.04 161.34,184.04 161.34,26.14 162.25,26.14 " />
      <polygon
   id="_221_220"
   fill="#C3C3C3"
   points="162.86,184.04 161.95,184.04 161.95,26.14 162.86,26.14 " />
      <polygon
   id="_222_221"
   fill="#C4C4C4"
   points="163.47,184.04 162.55,184.04 162.55,26.14 163.47,26.14 " />
      <polygon
   id="_223_222"
   fill="#C4C4C4"
   points="164.08,184.04 163.16,184.04 163.16,26.14 164.08,26.14 " />
      <polygon
   id="_224_223"
   fill="#C4C4C4"
   points="164.68,184.04 163.77,184.04 163.77,26.14 164.68,26.14 " />
      <polygon
   id="_225_224"
   fill="#C5C5C5"
   points="165.29,184.04 164.38,184.04 164.38,26.14 165.29,26.14 " />
      <polygon
   id="_226_225"
   fill="#C5C5C5"
   points="165.9,184.04 164.99,184.04 164.99,26.14 165.9,26.14 " />
      <polygon
   id="_227_226"
   fill="#C5C5C5"
   points="166.51,184.04 165.6,184.04 165.6,26.14 166.51,26.14 " />
      <polygon
   id="_228_227"
   fill="#C6C6C6"
   points="167.12,184.04 166.2,184.04 166.2,26.14 167.12,26.14 " />
      <polygon
   id="_229_228"
   fill="#C6C6C6"
   points="167.73,184.04 166.81,184.04 166.81,26.14 167.73,26.14 " />
      <polygon
   id="_230_229"
   fill="#C6C6C6"
   points="168.33,184.04 167.42,184.04 167.42,26.14 168.33,26.14 " />
      <polygon
   id="_231_230"
   fill="#C6C6C6"
   points="168.94,184.04 168.03,184.04 168.03,26.14 168.94,26.14 " />
      <polygon
   id="_232_231"
   fill="#C7C7C7"
   points="169.55,184.04 168.64,184.04 168.64,26.14 169.55,26.14 " />
      <polygon
   id="_233_232"
   fill="#C7C7C7"
   points="170.16,184.04 169.25,184.04 169.25,26.14 170.16,26.14 " />
      <polygon
   id="_234_233"
   fill="#C7C7C7"
   points="170.77,184.04 169.85,184.04 169.85,26.14 170.77,26.14 " />
      <polygon
   id="_235_234"
   fill="#C8C8C8"
   points="171.37,184.04 170.46,184.04 170.46,26.14 171.37,26.14 " />
      <polygon
   id="_236_235"
   fill="#C8C8C8"
   points="171.98,184.04 171.07,184.04 171.07,26.14 171.98,26.14 " />
      <polygon
   id="_237_236"
   fill="#C8C8C8"
   points="172.59,184.04 171.68,184.04 171.68,26.14 172.59,26.14 " />
      <polygon
   id="_238_237"
   fill="#C9C9C9"
   points="173.2,184.04 172.29,184.04 172.29,26.14 173.2,26.14 " />
      <polygon
   id="_239_238"
   fill="#C9C9C9"
   points="173.81,184.04 172.9,184.04 172.9,26.14 173.81,26.14 " />
      <polygon
   id="_240_239"
   fill="#C9C9C9"
   points="174.42,184.04 173.5,184.04 173.5,26.14 174.42,26.14 " />
      <polygon
   id="_241_240"
   fill="#CACACA"
   points="175.02,184.04 174.11,184.04 174.11,26.14 175.02,26.14 " />
      <polygon
   id="_242_241"
   fill="#CACACA"
   points="175.63,184.04 174.72,184.04 174.72,26.14 175.63,26.14 " />
      <polygon
   id="_243_242"
   fill="#CACACA"
   points="176.24,184.04 175.33,184.04 175.33,26.14 176.24,26.14 " />
      <polygon
   id="_244_243"
   fill="#CBCBCB"
   points="176.85,184.04 175.94,184.04 175.94,26.14 176.85,26.14 " />
      <polygon
   id="_245_244"
   fill="#CBCBCB"
   points="177.46,184.04 176.54,184.04 176.54,26.14 177.46,26.14 " />
      <polygon
   id="_246_245"
   fill="#CBCBCB"
   points="178.07,184.04 177.15,184.04 177.15,26.14 178.07,26.14 " />
      <polygon
   id="_247_246"
   fill="#CBCBCB"
   points="178.67,184.04 177.76,184.04 177.76,26.14 178.67,26.14 " />
      <polygon
   id="_248_247"
   fill="#CCCCCC"
   points="179.28,184.04 178.37,184.04 178.37,26.14 179.28,26.14 " />
      <polygon
   id="_249_248"
   fill="#CCCCCC"
   points="179.89,184.04 178.98,184.04 178.98,26.14 179.89,26.14 " />
      <polygon
   id="_250_249"
   fill="#CCCCCC"
   points="180.5,184.04 179.59,184.04 179.59,26.14 180.5,26.14 " />
      <polygon
   id="_251_250"
   fill="#CDCDCD"
   points="181.11,184.04 180.19,184.04 180.19,26.14 181.11,26.14 " />
      <polygon
   id="_252_251"
   fill="#CDCDCD"
   points="181.72,184.04 180.8,184.04 180.8,26.14 181.72,26.14 " />
      <polygon
   id="_253_252"
   fill="#CDCDCD"
   points="182.32,184.04 181.41,184.04 181.41,26.14 182.32,26.14 " />
      <polygon
   id="_254_253"
   fill="#CECECE"
   points="182.93,184.04 182.02,184.04 182.02,26.14 182.93,26.14 " />
      <polygon
   id="_255_254"
   fill="#CECECE"
   points="183.24,184.04 182.63,184.04 182.63,26.14 183.24,26.14 " />
     </g>
    </g>
   </g>
  </g>
 </g>
</svg>
