<?xml version="1.0" encoding="UTF-8"?>
<!DOCTYPE svg PUBLIC "-//W3C//DTD SVG 1.1//EN" "http://www.w3.org/Graphics/SVG/1.1/DTD/svg11.dtd">
<!-- Creator: CorelDRAW -->
<svg xmlns="http://www.w3.org/2000/svg" xml:space="preserve" width="2.24365in" height="2.24365in" version="1.1" style="shape-rendering:geometricPrecision; text-rendering:geometricPrecision; image-rendering:optimizeQuality; fill-rule:evenodd; clip-rule:evenodd"
viewBox="0 0 209.57 209.57"
 xmlns:xlink="http://www.w3.org/1999/xlink"
 xmlns:xodm="http://www.corel.com/coreldraw/odm/2003">
 <defs>
  <style type="text/css">
   <![CDATA[
    .fil1 {fill:#121212}
    .fil0 {fill:url(#id0)}
   ]]>
  </style>
  <linearGradient id="id0" gradientUnits="userSpaceOnUse" x1="62.12" y1="200.49" x2="147.45" y2="9.08">
   <stop offset="0" style="stop-opacity:1; stop-color:#4CB050"/>
   <stop offset="1" style="stop-opacity:1; stop-color:#7AF57E"/>
  </linearGradient>
 </defs>
 <g id="Layer_x0020_1">
  <metadata id="CorelCorpID_0Corel-Layer"/>
  <g id="_1635017190336">
   <rect class="fil0" width="209.57" height="209.57" rx="13.32" ry="13.32"/>
   <g>
    <path class="fil1" d="M72.94 95.69c16.91,0 35.02,0.22 51.78,0.01 1.53,-0.02 1.88,-0.28 3.5,-0.29 4.77,-0.03 2.84,-0.07 3.3,4.04l0.77 13.86c-2.41,0 -4.34,0.27 -7.05,0.27l-52.04 0 2.98 7.59c2.09,4.27 5.51,9.02 9.18,11.96l6.22 4.35c2.81,1.7 7.88,3.73 11.32,4.4 0.9,0.18 1.41,0.3 2.22,0.49 2.71,0.62 9.17,0.69 12.25,0.47 2.98,-0.22 6.26,-1.26 8.96,-1.88l0.31 4.62c0.07,1.05 0.23,0.74 -0.05,1.14 -0.26,0.37 -4.01,1.58 -4.84,1.86 -13.06,4.39 -29.57,0.86 -40.34,-7.16l-9.37 -8.79c-2,-2.37 -3.4,-4.04 -5.08,-6.84 -2.15,-3.58 -4.56,-8.98 -5.39,-12.77 -2.46,-11.24 -1.73,-22.35 3.86,-32.42 3.01,-5.41 2.85,-5.01 6.89,-9.1 1.77,-1.79 3.51,-3.19 5.6,-4.7 1.05,-0.76 2.11,-1.4 3.15,-2 3.56,-2.04 7.32,-3.69 11.43,-4.56 7.22,-1.52 12.47,-1.52 19.66,0 1.36,0.29 3.07,0.7 4.51,1.18 1.49,0.49 2.86,1.14 4.23,1.46l0.33 3.79c-1.09,-0.08 -1.9,-0.41 -2.88,-0.7 -7.64,-2.21 -17.4,-1.01 -24.32,1.48l-5.67 2.73c-1.96,1.18 -3.32,2.17 -5.07,3.6 -1.1,0.9 -1.16,0.79 -2.07,1.99 -0.71,0.93 -1.4,1.38 -2.1,2.24 -1.26,1.56 -2.34,3.19 -3.3,5.1 -1.82,3.59 -3,7.3 -3.5,11.47 -0.08,0.71 -0.32,1.09 0.62,1.09zm-18.43 5.96c0,6.82 1.48,13.45 3.95,19.63 2.79,6.98 7.25,13.1 12.52,18.38 10.08,10.09 23.43,16.46 38.01,16.46 4.38,0 8.82,-0.62 12.86,-1.78 1.9,-0.54 3.81,-1.08 5.48,-1.84 1.84,-0.83 3.58,-1.47 5.24,-2.35 0,-5.79 -1.08,-11.45 -1.08,-17.35 -0.87,0.2 -1.18,0.48 -1.9,0.81 -2.04,0.93 -4,1.75 -6.34,2.34 -0.89,0.22 -1.49,0.44 -2.13,0.58 -10.78,2.22 -21.03,-0.01 -29.8,-5.83 -4.34,-2.88 -7.54,-7.12 -9.97,-11.71l51.49 0 1.47 24.82c0.36,2.39 0.43,5.95 0.43,8.52l9.76 0 -1.86 -27.14c-0.11,-0.97 0.03,-1.95 -0.05,-2.93 -0.36,-4.41 -0.8,-9.09 -0.8,-13.84 0.85,0.07 0.96,0.27 1.9,0.27l13.01 0 1.08 19.25c0.03,1.34 0.25,1.35 0.29,2.69l0.52 8.15c0.22,2.7 0.02,5.42 0.44,8.23 0.16,1.07 0.08,1.79 0.11,2.87 0.03,1.37 0.28,1.35 0.28,2.7 9.37,0 9.79,0.96 9.3,-2.23l-1.17 -18.36c-0.06,-1.14 0.06,-1.99 -0.11,-3.14l-1.23 -18.29c-0.09,-1.06 0.06,-2.14 -0.05,-3.2 -0.12,-1.05 -0.23,-1.58 -0.23,-3.03l-0.54 -9.22c-0.04,-1.37 -0.28,-1.49 -0.29,-2.96l-0.76 -12.24c-0.12,-1.05 0.04,-2.12 -0.08,-3.17l-0.77 -12.24c-0.04,-1.37 -0.28,-1.49 -0.29,-2.96 -0.02,-2.42 -0.26,-3.94 -0.26,-6.51l-9.49 0c0,3.94 0.55,7.42 0.54,11.12l1.65 27.35c0.07,0.84 0.3,4.95 0.53,5.44l-15.18 0 -1.64 -27.36c-0.02,-2.2 -0.2,-3.46 -0.25,-5.71 -0.07,-2.85 -0.56,-5.17 -0.54,-8.13 0.01,-1.43 -0.19,-1.64 -0.28,-2.7l-9.49 0c0.02,0.93 0.19,1.06 0.26,1.91l0.28 6.77c0.04,1.43 0.23,2.56 0.27,4.34 0.15,5.74 1.36,16.42 1.36,21.67l-52.04 0.27c0.32,-0.67 0.51,-1.46 0.82,-2.16 4.56,-10.5 15.47,-17.35 27.64,-17.35 6.32,0 10.68,0.75 16.26,3.26 1.08,0.48 2.51,1.52 3.8,1.62 0,-5.2 -1.08,-10.52 -1.08,-15.99l-4.71 -2.07c-14,-4.93 -26.74,-5.29 -40.47,1.07 -3.81,1.77 -7.14,4.41 -10.35,7 -2.25,1.82 -4.07,3.56 -5.84,5.81 -0.58,0.73 -0.82,0.83 -1.36,1.62l-4.32 7.34c-1.73,3.53 -2.7,7.13 -3.58,11.05 -0.38,1.68 -0.51,3.12 -0.78,4.91 -0.21,1.39 -0.42,4.21 -0.42,5.54z"/>
    <path class="fil1" d="M88.12 42.03c-1.35,0.31 -2.61,0.93 -3.95,1.47 -1.48,0.59 -2.58,1.03 -4.07,1.63 -2.53,1.01 -5.33,2.52 -7.98,3.14 -0.29,-1.07 -1.44,-2.13 -2.23,-2.92 -0.54,-0.54 -0.73,-0.71 -1.29,-1.15 -1.77,-1.36 -5.7,-4.92 -7.59,-5.42 -1.2,0.8 -1.7,1.7 -2.64,2.78 -1.79,2.06 -6.42,5.62 -8.68,7.86 -3.82,3.78 -7.34,7.35 -10.36,11.86 0.77,0.89 1.22,2.32 1.84,3.31 0.36,0.58 0.63,0.87 1.07,1.37 0.56,0.62 0.66,0.89 1.22,1.49 5.57,6.04 6.28,2.82 1.93,12.62 -1.01,2.27 -2.25,5.1 -2.8,7.5 -4.66,0 -11.53,-0.43 -14.23,1.49 -1.71,1.21 -0.8,4.92 -0.96,6.9 -0.12,1.49 -0.2,3.03 -0.26,4.59l0 16.56c0,5.36 4.31,4.67 10.58,4.87 1.27,0.04 1.35,0.3 2.39,0.24 0.78,-0.05 1.23,-0.23 2.48,-0.23l6.23 15.18c-1.14,1.71 -8.94,6.66 -8.94,10.84 0,3.93 7.02,9.32 9.42,11.72 2.65,2.65 5.62,4.82 8.26,7.45l2.91 2.54c0.62,0.43 0.59,0.49 1.53,0.17 4.03,-1.36 8.26,-7.06 10.88,-7.83 1.78,-0.52 5.83,1.83 7.57,2.56 1.5,0.63 6.38,2.79 7.67,2.9 0,3.69 -0.16,7.75 -0.01,11.39 0.08,1.89 0.92,2.9 2.22,3.48 1.14,0.5 3.55,0.75 6.48,0.85l8.63 0c4.33,-0.09 8.37,-0.27 10.33,-0.27 4.73,0 5.18,0.06 6.08,-4.22l0.15 -11.77 30.36 -0.27c1.65,0.01 2.22,-0.21 3.52,-0.28 6.4,-0.35 15.88,0.1 22.78,0.01 1.56,-0.02 2.04,-0.28 3.78,-0.28 0,-18.41 -0.82,-37.34 -0.81,-55.83 0,-2.95 -0.27,-4.88 -0.27,-7.86l-6.23 0 0 57.46c-11.06,0 -21.37,0.27 -32.25,0.27l-24.02 0.38c-1.67,0.48 -2.54,3.52 -2.54,5.59l0 11.11 -22.22 0 -0.38 -10.74c-0.87,-5.92 -3.92,-4.66 -9.89,-6.64 -8.01,-2.66 -10.54,-8.12 -15,-3.02 -1.95,2.23 -4.05,3.91 -6.43,5.77 -0.75,0.58 -0.56,0.72 -1.63,0.8 -0.5,-1.85 -5.46,-6.18 -7.24,-7.67 -1.78,-1.48 -6.58,-5.92 -6.58,-8.32 0,-0.48 3.66,-4.07 4.26,-4.68 1.39,-1.39 3.87,-2.75 3.87,-5.08 0,-2.85 -3.13,-7.8 -4.22,-10.68 -1.35,-3.57 -2.42,-7.41 -4.18,-10.73 -3.8,0 -6.6,-0.37 -10.03,-0.54 -1.45,-0.07 -2.34,-0.28 -3.52,-0.28l0 -21.41c2.05,0 4.6,-0.52 6.3,-0.75 1.94,-0.26 5.17,-0.07 7.25,-0.07 2.43,-4.59 4.05,-10.89 6.41,-15.81 0.84,-1.75 1.67,-3.42 2.53,-5.06l-4.33 -5.42c-0.97,-1.26 -4.34,-4.02 -4.34,-5.69 0,-0.89 6.12,-6.54 7.12,-7.52 0.79,-0.78 0.95,-1.06 1.64,-1.89 1.31,-1.57 4.09,-4.48 5.61,-5.5 3.17,1.68 9.3,8.4 10.57,8.4 3.1,0 12.02,-4.81 15.76,-6.2 1.67,-0.62 4.28,-1.21 5.65,-1.94 0,-3.34 0.56,-8.28 0.55,-10.56 -0,-1.66 -0.05,-2.19 0.26,-3.53l22.22 0c0,4 -1.6,11.26 1.68,14.31 1.96,1.82 2.99,0.84 6.02,1.3 2.31,0.35 4.8,-0.11 7.16,0.15 2.23,0.25 4.5,0.19 7.1,0.22l7.04 0.28c6.79,-0.04 14.34,0.82 21.14,0.82 0.6,2.57 3.26,34.2 3.98,40.47 0.33,2.93 0.15,2.08 5.51,2.08 0,-4.13 -0.27,-7.6 -0.27,-11.92l0 -30.9c0.01,-2.36 -0.27,-3.6 -0.27,-5.96 -4.71,0 -8.51,-0.27 -13.28,-0.27 -4.52,0 -9.03,-0 -13.55,0l-26.56 -0.54 0 -11.38c0,-1.99 -1.17,-3.54 -2.67,-4.11 -3.55,-1.33 -20.07,-0.46 -26.06,-0.51 -2.7,-0.02 -3.72,0.24 -4.5,2.27 -1.27,3.31 -0.64,8.94 -0.64,13.18z"/>
   </g>
  </g>
 </g>
</svg>
