<?xml version='1.0' encoding='utf-8'?>
<svg xmlns="http://www.w3.org/2000/svg" xml:space="preserve" width="2.59476in" height="1.97892in" version="1.1" style="shape-rendering:geometricPrecision; text-rendering:geometricPrecision; image-rendering:optimizeQuality; fill-rule:evenodd; clip-rule:evenodd" viewBox="0 0 410.57 313.12">
 <defs>
  
     <clipPath id="id0">
      <path d="M220.35 251.65l-12.01 -194.26 18.68 0 5.43 87.84 10.69 0 -5.43 -87.84 18.68 0 12.01 194.26 -18.68 0 -5.42 -87.69 -10.69 0 5.42 87.69 -18.68 0zm73.74 -194.26l18.68 0 10.63 171.79c0.46,7.52 -1.63,13.48 -6.37,17.88 -4.25,3.88 -9.71,5.82 -16.24,5.82 -6.48,0 -12.09,-1.94 -16.87,-5.82 -5.24,-4.4 -8.12,-10.36 -8.58,-17.88l-10.63 -171.79 18.68 0 10.63 171.79c0.22,3.55 2.12,5.3 5.63,5.3 3.6,0 5.28,-1.75 5.06,-5.3l-10.63 -171.79zm70.57 97.11c7.35,5.63 11.3,12.96 11.86,21.9l2.92 47.25c0.47,7.66 -1.86,14.28 -7.05,19.82 -5.1,5.44 -11.56,8.18 -19.31,8.18l-19.96 0 -12.02 -194.26 19.96 0c7.76,0 14.55,2.74 20.33,8.28 5.87,5.49 9.02,12.06 9.5,19.82l2.91 47.11c0.56,8.99 -2.49,16.27 -9.15,21.9zm-18.29 9.46l4.27 68.96 1.28 0c2.6,0 4.72,-0.9 6.45,-2.74 1.78,-1.84 2.54,-4.02 2.39,-6.53l-3.12 -50.42c-0.15,-2.51 -1.19,-4.68 -3.19,-6.53 -1.96,-1.84 -4.19,-2.74 -6.79,-2.74l-1.28 0zm-5.44 -87.88l4.28 69.15 1.28 0c2.6,0 4.72,-0.95 6.45,-2.79 1.78,-1.84 2.54,-4.07 2.38,-6.62l-3.11 -50.33c-0.16,-2.55 -1.19,-4.78 -3.2,-6.62 -1.96,-1.85 -4.19,-2.79 -6.79,-2.79l-1.28 0z" />
     </clipPath>
     <clipPath id="id1">
      <path d="M396.76 34.03l0.64 97.27 -10.15 -0.32 -8.1 -84.89 -193.69 -3.15c-10.06,-3.79 -7.26,-10.6 -7.26,-31.14l-44.8 0 -1.6 28.8c-15.55,3.62 -36.64,16 -41.6,16 -5.35,0 -9.81,-9.59 -22.03,-17.23l-29.17 30.03c3.85,7.27 4.17,5.88 9.13,11.67l8.47 10.73c-10.8,20.42 -13.85,34.52 -17.6,41.6 -4.49,0 -9.94,-0.28 -14.32,0.08 -6.18,0.51 -5.45,1.52 -12.89,1.52l0 43.2c6.62,0 11.23,1.6 27.2,1.6 2.63,4.97 6.63,19.71 14.54,35.21 6.87,13.46 -5.29,13.37 -14.54,27.19 2.57,9.64 20.58,19.72 28.8,32 24.66,-16.51 14.15,-23.65 34.68,-12.28 29.59,16.39 30.92,-4.25 30.92,39.48l44.8 0 0 -20.8c0,-4.4 1.67,-12.54 5.5,-12.57l212.48 -1.36 0.26 -114.54 12.15 -0.07 1.98 127.1c-3.35,0.33 -216.17,1.01 -221.17,1.43 0,9.65 2.54,32 -6.4,32 -70.87,0 -60.8,6.87 -60.8,-30.4 -5.33,-2.82 -10.42,-3.98 -15.98,-6.43 -3.8,-1.67 -10.97,-5.68 -14.04,-5.21 -5.14,0.78 -14.15,14.05 -24.39,16.44l-17.22 -14.79c-17.37,-17.57 -29.78,-24.01 -22.9,-34.79 2.99,-4.69 11.55,-12.98 16.11,-16.03 -2.41,-4.55 -5.24,-9.76 -7.35,-15.05 -2.26,-5.65 -3.14,-10.53 -5.45,-15.35 -6.49,0 -12.33,0.24 -18.62,-0.58 -16.33,-2.13 -11.78,3.72 -11.78,-61.82 0,-7.92 23.45,-6.4 30.4,-6.4 1.58,-3.29 1.35,-4.7 2.77,-8.43 10.05,-26.26 13.3,-17.55 -1.62,-32.73 -4.94,-5.03 -4.43,-5.75 -7.55,-11.65 13.1,-19.56 38.54,-37.84 43.2,-44.8 7.84,5.25 17.21,11.45 22.4,19.2l32 -12.8c0,-9.61 -3.21,-30.4 6.4,-30.4 68.6,0 60.8,-7.69 60.8,32 5.01,0.42 204.02,1.09 207.37,1.43z" />
     </clipPath>
 </defs>
 <g id="Layer_x0020_1">
  <metadata id="CorelCorpID_0Corel-Layer" />
  <g id="_1634965994096">
   <g>
    <g style="clip-path:url(#id0)">
     <polygon points="208.34,57.39 209.34,57.39 209.34,252.88 208.34,252.88 " style="fill:#7e7e7e" />
     <polygon id="_1" points="209.01,57.39 210.01,57.39 210.01,252.88 209.01,252.88 " style="fill:#7f7f7f" />
     <polygon id="_2" points="209.67,57.39 210.68,57.39 210.68,252.88 209.67,252.88 " style="fill:#808080" />
     <polygon id="_3" points="210.34,57.39 211.35,57.39 211.35,252.88 210.34,252.88 " style="fill:#818181" />
     <polygon id="_4" points="211.01,57.39 212.01,57.39 212.01,252.88 211.01,252.88 " style="fill:#828282" />
     <polygon id="_5" points="211.68,57.39 212.68,57.39 212.68,252.88 211.68,252.88 " style="fill:#838383" />
     <polygon id="_6" points="212.35,57.39 213.35,57.39 213.35,252.88 212.35,252.88 " style="fill:#848484" />
     <polygon id="_7" points="213.02,57.39 214.02,57.39 214.02,252.88 213.02,252.88 " style="fill:#858585" />
     <polygon id="_8" points="213.69,57.39 214.69,57.39 214.69,252.88 213.69,252.88 " style="fill:#868686" />
     <polygon id="_9" points="214.35,57.39 215.36,57.39 215.36,252.88 214.35,252.88 " style="fill:#878787" />
     <polygon id="_10" points="215.02,57.39 216.03,57.39 216.03,252.88 215.02,252.88 " style="fill:#878787" />
     <polygon id="_11" points="215.69,57.39 216.69,57.39 216.69,252.88 215.69,252.88 " style="fill:#888888" />
     <polygon id="_12" points="216.36,57.39 217.36,57.39 217.36,252.88 216.36,252.88 " style="fill:#898989" />
     <polygon id="_13" points="217.03,57.39 218.03,57.39 218.03,252.88 217.03,252.88 " style="fill:#898989" />
     <polygon id="_14" points="217.7,57.39 218.7,57.39 218.7,252.88 217.7,252.88 " style="fill:#8a8a8a" />
     <polygon id="_15" points="218.37,57.39 219.37,57.39 219.37,252.88 218.37,252.88 " style="fill:#8b8b8b" />
     <polygon id="_16" points="219.03,57.39 220.04,57.39 220.04,252.88 219.03,252.88 " style="fill:#8c8c8c" />
     <polygon id="_17" points="219.7,57.39 220.71,57.39 220.71,252.88 219.7,252.88 " style="fill:#8c8c8c" />
     <polygon id="_18" points="220.37,57.39 221.37,57.39 221.37,252.88 220.37,252.88 " style="fill:#8d8d8d" />
     <polygon id="_19" points="221.04,57.39 222.04,57.39 222.04,252.88 221.04,252.88 " style="fill:#8e8e8e" />
     <polygon id="_20" points="221.71,57.39 222.71,57.39 222.71,252.88 221.71,252.88 " style="fill:#8f8f8f" />
     <polygon id="_21" points="222.38,57.39 223.38,57.39 223.38,252.88 222.38,252.88 " style="fill:#8f8f8f" />
     <polygon id="_22" points="223.05,57.39 224.05,57.39 224.05,252.88 223.05,252.88 " style="fill:#909090" />
     <polygon id="_23" points="223.71,57.39 224.72,57.39 224.72,252.88 223.71,252.88 " style="fill:#909090" />
     <polygon id="_24" points="224.38,57.39 225.39,57.39 225.39,252.88 224.38,252.88 " style="fill:#919191" />
     <polygon id="_25" points="225.05,57.39 226.05,57.39 226.05,252.88 225.05,252.88 " style="fill:#919191" />
     <polygon id="_26" points="225.72,57.39 226.72,57.39 226.72,252.88 225.72,252.88 " style="fill:#929292" />
     <polygon id="_27" points="226.39,57.39 227.39,57.39 227.39,252.88 226.39,252.88 " style="fill:#929292" />
     <polygon id="_28" points="227.06,57.39 228.06,57.39 228.06,252.88 227.06,252.88 " style="fill:#929292" />
     <polygon id="_29" points="227.73,57.39 228.73,57.39 228.73,252.88 227.73,252.88 " style="fill:#939393" />
     <polygon id="_30" points="228.39,57.39 229.4,57.39 229.4,252.88 228.39,252.88 " style="fill:#939393" />
     <polygon id="_31" points="229.06,57.39 230.07,57.39 230.07,252.88 229.06,252.88 " style="fill:#949494" />
     <polygon id="_32" points="229.73,57.39 230.73,57.39 230.73,252.88 229.73,252.88 " style="fill:#959595" />
     <polygon id="_33" points="230.4,57.39 231.4,57.39 231.4,252.88 230.4,252.88 " style="fill:#959595" />
     <polygon id="_34" points="231.07,57.39 232.07,57.39 232.07,252.88 231.07,252.88 " style="fill:#969696" />
     <polygon id="_35" points="231.74,57.39 232.74,57.39 232.74,252.88 231.74,252.88 " style="fill:#969696" />
     <polygon id="_36" points="232.41,57.39 233.41,57.39 233.41,252.88 232.41,252.88 " style="fill:#969696" />
     <polygon id="_37" points="233.07,57.39 234.08,57.39 234.08,252.88 233.07,252.88 " style="fill:#979797" />
     <polygon id="_38" points="233.74,57.39 234.75,57.39 234.75,252.88 233.74,252.88 " style="fill:#979797" />
     <polygon id="_39" points="234.41,57.39 235.41,57.39 235.41,252.88 234.41,252.88 " style="fill:#989898" />
     <polygon id="_40" points="235.08,57.39 236.08,57.39 236.08,252.88 235.08,252.88 " style="fill:#989898" />
     <polygon id="_41" points="235.75,57.39 236.75,57.39 236.75,252.88 235.75,252.88 " style="fill:#989898" />
     <polygon id="_42" points="236.42,57.39 237.42,57.39 237.42,252.88 236.42,252.88 " style="fill:#999999" />
     <polygon id="_43" points="237.09,57.39 238.09,57.39 238.09,252.88 237.09,252.88 " style="fill:#999999" />
     <polygon id="_44" points="237.76,57.39 238.76,57.39 238.76,252.88 237.76,252.88 " style="fill:#999999" />
     <polygon id="_45" points="238.42,57.39 239.43,57.39 239.43,252.88 238.42,252.88 " style="fill:#9a9a9a" />
     <polygon id="_46" points="239.09,57.39 240.1,57.39 240.1,252.88 239.09,252.88 " style="fill:#9a9a9a" />
     <polygon id="_47" points="239.76,57.39 240.76,57.39 240.76,252.88 239.76,252.88 " style="fill:#9a9a9a" />
     <polygon id="_48" points="240.43,57.39 241.43,57.39 241.43,252.88 240.43,252.88 " style="fill:#9a9a9a" />
     <polygon id="_49" points="241.1,57.39 242.1,57.39 242.1,252.88 241.1,252.88 " style="fill:#9b9b9b" />
     <polygon id="_50" points="241.77,57.39 242.77,57.39 242.77,252.88 241.77,252.88 " style="fill:#9b9b9b" />
     <polygon id="_51" points="242.44,57.39 243.44,57.39 243.44,252.88 242.44,252.88 " style="fill:#9b9b9b" />
     <polygon id="_52" points="243.1,57.39 244.11,57.39 244.11,252.88 243.1,252.88 " style="fill:#9c9c9c" />
     <polygon id="_53" points="243.77,57.39 244.78,57.39 244.78,252.88 243.77,252.88 " style="fill:#9c9c9c" />
     <polygon id="_54" points="244.44,57.39 245.44,57.39 245.44,252.88 244.44,252.88 " style="fill:#9c9c9c" />
     <polygon id="_55" points="245.11,57.39 246.11,57.39 246.11,252.88 245.11,252.88 " style="fill:#9d9d9d" />
     <polygon id="_56" points="245.78,57.39 246.78,57.39 246.78,252.88 245.78,252.88 " style="fill:#9d9d9d" />
     <polygon id="_57" points="246.45,57.39 247.45,57.39 247.45,252.88 246.45,252.88 " style="fill:#9d9d9d" />
     <polygon id="_58" points="247.12,57.39 248.12,57.39 248.12,252.88 247.12,252.88 " style="fill:#9e9e9e" />
     <polygon id="_59" points="247.78,57.39 248.79,57.39 248.79,252.88 247.78,252.88 " style="fill:#9e9e9e" />
     <polygon id="_60" points="248.45,57.39 249.46,57.39 249.46,252.88 248.45,252.88 " style="fill:#9e9e9e" />
     <polygon id="_61" points="249.12,57.39 250.12,57.39 250.12,252.88 249.12,252.88 " style="fill:#9e9e9e" />
     <polygon id="_62" points="249.79,57.39 250.79,57.39 250.79,252.88 249.79,252.88 " style="fill:#9f9f9f" />
     <polygon id="_63" points="250.46,57.39 251.46,57.39 251.46,252.88 250.46,252.88 " style="fill:#9f9f9f" />
     <polygon id="_64" points="251.13,57.39 252.13,57.39 252.13,252.88 251.13,252.88 " style="fill:#9f9f9f" />
     <polygon id="_65" points="251.8,57.39 252.8,57.39 252.8,252.88 251.8,252.88 " style="fill:#a0a0a0" />
     <polygon id="_66" points="252.46,57.39 253.47,57.39 253.47,252.88 252.46,252.88 " style="fill:#a0a0a0" />
     <polygon id="_67" points="253.13,57.39 254.14,57.39 254.14,252.88 253.13,252.88 " style="fill:#a0a0a0" />
     <polygon id="_68" points="253.8,57.39 254.8,57.39 254.8,252.88 253.8,252.88 " style="fill:#a0a0a0" />
     <polygon id="_69" points="254.47,57.39 255.47,57.39 255.47,252.88 254.47,252.88 " style="fill:#a0a0a0" />
     <polygon id="_70" points="255.14,57.39 256.14,57.39 256.14,252.88 255.14,252.88 " style="fill:#a1a1a1" />
     <polygon id="_71" points="255.81,57.39 256.81,57.39 256.81,252.88 255.81,252.88 " style="fill:#a1a1a1" />
     <polygon id="_72" points="256.48,57.39 257.48,57.39 257.48,252.88 256.48,252.88 " style="fill:#a1a1a1" />
     <polygon id="_73" points="257.14,57.39 258.15,57.39 258.15,252.88 257.14,252.88 " style="fill:#a1a1a1" />
     <polygon id="_74" points="257.81,57.39 258.82,57.39 258.82,252.88 257.81,252.88 " style="fill:#a1a1a1" />
     <polygon id="_75" points="258.48,57.39 259.48,57.39 259.48,252.88 258.48,252.88 " style="fill:#a2a2a2" />
     <polygon id="_76" points="259.15,57.39 260.15,57.39 260.15,252.88 259.15,252.88 " style="fill:#a2a2a2" />
     <polygon id="_77" points="259.82,57.39 260.82,57.39 260.82,252.88 259.82,252.88 " style="fill:#a2a2a2" />
     <polygon id="_78" points="260.49,57.39 261.49,57.39 261.49,252.88 260.49,252.88 " style="fill:#a2a2a2" />
     <polygon id="_79" points="261.16,57.39 262.16,57.39 262.16,252.88 261.16,252.88 " style="fill:#a2a2a2" />
     <polygon id="_80" points="261.82,57.39 262.83,57.39 262.83,252.88 261.82,252.88 " style="fill:#a2a2a2" />
     <polygon id="_81" points="262.49,57.39 263.5,57.39 263.5,252.88 262.49,252.88 " style="fill:#a3a3a3" />
     <polygon id="_82" points="263.16,57.39 264.17,57.39 264.17,252.88 263.16,252.88 " style="fill:#a3a3a3" />
     <polygon id="_83" points="263.83,57.39 264.83,57.39 264.83,252.88 263.83,252.88 " style="fill:#a3a3a3" />
     <polygon id="_84" points="264.5,57.39 265.5,57.39 265.5,252.88 264.5,252.88 " style="fill:#a3a3a3" />
     <polygon id="_85" points="265.17,57.39 266.17,57.39 266.17,252.88 265.17,252.88 " style="fill:#a3a3a3" />
     <polygon id="_86" points="265.84,57.39 266.84,57.39 266.84,252.88 265.84,252.88 " style="fill:#a3a3a3" />
     <polygon id="_87" points="266.5,57.39 267.51,57.39 267.51,252.88 266.5,252.88 " style="fill:#a3a3a3" />
     <polygon id="_88" points="267.17,57.39 268.18,57.39 268.18,252.88 267.17,252.88 " style="fill:#a4a4a4" />
     <polygon id="_89" points="267.84,57.39 268.85,57.39 268.85,252.88 267.84,252.88 " style="fill:#a4a4a4" />
     <polygon id="_90" points="268.51,57.39 269.51,57.39 269.51,252.88 268.51,252.88 " style="fill:#a4a4a4" />
     <polygon id="_91" points="269.18,57.39 270.18,57.39 270.18,252.88 269.18,252.88 " style="fill:#a4a4a4" />
     <polygon id="_92" points="269.85,57.39 270.85,57.39 270.85,252.88 269.85,252.88 " style="fill:#a4a4a4" />
     <polygon id="_93" points="270.52,57.39 271.52,57.39 271.52,252.88 270.52,252.88 " style="fill:#a4a4a4" />
     <polygon id="_94" points="271.19,57.39 272.19,57.39 272.19,252.88 271.19,252.88 " style="fill:#a4a4a4" />
     <polygon id="_95" points="271.85,57.39 272.86,57.39 272.86,252.88 271.85,252.88 " style="fill:#a5a5a5" />
     <polygon id="_96" points="272.52,57.39 273.53,57.39 273.53,252.88 272.52,252.88 " style="fill:#a5a5a5" />
     <polygon id="_97" points="273.19,57.39 274.19,57.39 274.19,252.88 273.19,252.88 " style="fill:#a5a5a5" />
     <polygon id="_98" points="273.86,57.39 274.86,57.39 274.86,252.88 273.86,252.88 " style="fill:#a5a5a5" />
     <polygon id="_99" points="274.53,57.39 275.53,57.39 275.53,252.88 274.53,252.88 " style="fill:#a5a5a5" />
     <polygon id="_100" points="275.2,57.39 276.2,57.39 276.2,252.88 275.2,252.88 " style="fill:#a5a5a5" />
     <polygon id="_101" points="275.87,57.39 276.87,57.39 276.87,252.88 275.87,252.88 " style="fill:#a5a5a5" />
     <polygon id="_102" points="276.53,57.39 277.54,57.39 277.54,252.88 276.53,252.88 " style="fill:#a6a6a6" />
     <polygon id="_103" points="277.2,57.39 278.21,57.39 278.21,252.88 277.2,252.88 " style="fill:#a6a6a6" />
     <polygon id="_104" points="277.87,57.39 278.87,57.39 278.87,252.88 277.87,252.88 " style="fill:#a6a6a6" />
     <polygon id="_105" points="278.54,57.39 279.54,57.39 279.54,252.88 278.54,252.88 " style="fill:#a6a6a6" />
     <polygon id="_106" points="279.21,57.39 280.21,57.39 280.21,252.88 279.21,252.88 " style="fill:#a7a7a7" />
     <polygon id="_107" points="279.88,57.39 280.88,57.39 280.88,252.88 279.88,252.88 " style="fill:#a7a7a7" />
     <polygon id="_108" points="280.55,57.39 281.55,57.39 281.55,252.88 280.55,252.88 " style="fill:#a7a7a7" />
     <polygon id="_109" points="281.21,57.39 282.22,57.39 282.22,252.88 281.21,252.88 " style="fill:#a7a7a7" />
     <polygon id="_110" points="281.88,57.39 282.89,57.39 282.89,252.88 281.88,252.88 " style="fill:#a7a7a7" />
     <polygon id="_111" points="282.55,57.39 283.55,57.39 283.55,252.88 282.55,252.88 " style="fill:#a7a7a7" />
     <polygon id="_112" points="283.22,57.39 284.22,57.39 284.22,252.88 283.22,252.88 " style="fill:#a8a8a8" />
     <polygon id="_113" points="283.89,57.39 284.89,57.39 284.89,252.88 283.89,252.88 " style="fill:#a8a8a8" />
     <polygon id="_114" points="284.56,57.39 285.56,57.39 285.56,252.88 284.56,252.88 " style="fill:#a8a8a8" />
     <polygon id="_115" points="285.23,57.39 286.23,57.39 286.23,252.88 285.23,252.88 " style="fill:#a8a8a8" />
     <polygon id="_116" points="285.89,57.39 286.9,57.39 286.9,252.88 285.89,252.88 " style="fill:#a8a8a8" />
     <polygon id="_117" points="286.56,57.39 287.57,57.39 287.57,252.88 286.56,252.88 " style="fill:#a8a8a8" />
     <polygon id="_118" points="287.23,57.39 288.23,57.39 288.23,252.88 287.23,252.88 " style="fill:#a9a9a9" />
     <polygon id="_119" points="287.9,57.39 288.9,57.39 288.9,252.88 287.9,252.88 " style="fill:#a9a9a9" />
     <polygon id="_120" points="288.57,57.39 289.57,57.39 289.57,252.88 288.57,252.88 " style="fill:#a9a9a9" />
     <polygon id="_121" points="289.24,57.39 290.24,57.39 290.24,252.88 289.24,252.88 " style="fill:#a9a9a9" />
     <polygon id="_122" points="289.91,57.39 290.91,57.39 290.91,252.88 289.91,252.88 " style="fill:#a9a9a9" />
     <polygon id="_123" points="290.57,57.39 291.58,57.39 291.58,252.88 290.57,252.88 " style="fill:#a9a9a9" />
     <polygon id="_124" points="291.24,57.39 292.25,57.39 292.25,252.88 291.24,252.88 " style="fill:#a9a9a9" />
     <polygon id="_125" points="291.91,57.39 292.91,57.39 292.91,252.88 291.91,252.88 " style="fill:#aaaaaa" />
     <polygon id="_126" points="292.58,57.39 293.58,57.39 293.58,252.88 292.58,252.88 " style="fill:#aaaaaa" />
     <polygon id="_127" points="293.25,57.39 294.25,57.39 294.25,252.88 293.25,252.88 " style="fill:#aaaaaa" />
     <polygon id="_128" points="293.92,57.39 294.92,57.39 294.92,252.88 293.92,252.88 " style="fill:#aaaaaa" />
     <polygon id="_129" points="294.59,57.39 295.59,57.39 295.59,252.88 294.59,252.88 " style="fill:#aaaaaa" />
     <polygon id="_130" points="295.25,57.39 296.26,57.39 296.26,252.88 295.25,252.88 " style="fill:#aaaaaa" />
     <polygon id="_131" points="295.92,57.39 296.93,57.39 296.93,252.88 295.92,252.88 " style="fill:#aaaaaa" />
     <polygon id="_132" points="296.59,57.39 297.6,57.39 297.6,252.88 296.59,252.88 " style="fill:#ababab" />
     <polygon id="_133" points="297.26,57.39 298.26,57.39 298.26,252.88 297.26,252.88 " style="fill:#ababab" />
     <polygon id="_134" points="297.93,57.39 298.93,57.39 298.93,252.88 297.93,252.88 " style="fill:#ababab" />
     <polygon id="_135" points="298.6,57.39 299.6,57.39 299.6,252.88 298.6,252.88 " style="fill:#ababab" />
     <polygon id="_136" points="299.27,57.39 300.27,57.39 300.27,252.88 299.27,252.88 " style="fill:#ababab" />
     <polygon id="_137" points="299.93,57.39 300.94,57.39 300.94,252.88 299.93,252.88 " style="fill:#ababab" />
     <polygon id="_138" points="300.6,57.39 301.61,57.39 301.61,252.88 300.6,252.88 " style="fill:#ababab" />
     <polygon id="_139" points="301.27,57.39 302.28,57.39 302.28,252.88 301.27,252.88 " style="fill:#acacac" />
     <polygon id="_140" points="301.94,57.39 302.94,57.39 302.94,252.88 301.94,252.88 " style="fill:#acacac" />
     <polygon id="_141" points="302.61,57.39 303.61,57.39 303.61,252.88 302.61,252.88 " style="fill:#acacac" />
     <polygon id="_142" points="303.28,57.39 304.28,57.39 304.28,252.88 303.28,252.88 " style="fill:#acacac" />
     <polygon id="_143" points="303.95,57.39 304.95,57.39 304.95,252.88 303.95,252.88 " style="fill:#acacac" />
     <polygon id="_144" points="304.62,57.39 305.62,57.39 305.62,252.88 304.62,252.88 " style="fill:#acacac" />
     <polygon id="_145" points="305.28,57.39 306.29,57.39 306.29,252.88 305.28,252.88 " style="fill:#adadad" />
     <polygon id="_146" points="305.95,57.39 306.96,57.39 306.96,252.88 305.95,252.88 " style="fill:#adadad" />
     <polygon id="_147" points="306.62,57.39 307.62,57.39 307.62,252.88 306.62,252.88 " style="fill:#adadad" />
     <polygon id="_148" points="307.29,57.39 308.29,57.39 308.29,252.88 307.29,252.88 " style="fill:#adadad" />
     <polygon id="_149" points="307.96,57.39 308.96,57.39 308.96,252.88 307.96,252.88 " style="fill:#adadad" />
     <polygon id="_150" points="308.63,57.39 309.63,57.39 309.63,252.88 308.63,252.88 " style="fill:#aeaeae" />
     <polygon id="_151" points="309.3,57.39 310.3,57.39 310.3,252.88 309.3,252.88 " style="fill:#aeaeae" />
     <polygon id="_152" points="309.96,57.39 310.97,57.39 310.97,252.88 309.96,252.88 " style="fill:#aeaeae" />
     <polygon id="_153" points="310.63,57.39 311.64,57.39 311.64,252.88 310.63,252.88 " style="fill:#aeaeae" />
     <polygon id="_154" points="311.3,57.39 312.3,57.39 312.3,252.88 311.3,252.88 " style="fill:#afafaf" />
     <polygon id="_155" points="311.97,57.39 312.97,57.39 312.97,252.88 311.97,252.88 " style="fill:#afafaf" />
     <polygon id="_156" points="312.64,57.39 313.64,57.39 313.64,252.88 312.64,252.88 " style="fill:#afafaf" />
     <polygon id="_157" points="313.31,57.39 314.31,57.39 314.31,252.88 313.31,252.88 " style="fill:#afafaf" />
     <polygon id="_158" points="313.98,57.39 314.98,57.39 314.98,252.88 313.98,252.88 " style="fill:#afafaf" />
     <polygon id="_159" points="314.64,57.39 315.65,57.39 315.65,252.88 314.64,252.88 " style="fill:#b0b0b0" />
     <polygon id="_160" points="315.31,57.39 316.32,57.39 316.32,252.88 315.31,252.88 " style="fill:#b0b0b0" />
     <polygon id="_161" points="315.98,57.39 316.98,57.39 316.98,252.88 315.98,252.88 " style="fill:#b0b0b0" />
     <polygon id="_162" points="316.65,57.39 317.65,57.39 317.65,252.88 316.65,252.88 " style="fill:#b0b0b0" />
     <polygon id="_163" points="317.32,57.39 318.32,57.39 318.32,252.88 317.32,252.88 " style="fill:#b1b1b1" />
     <polygon id="_164" points="317.99,57.39 318.99,57.39 318.99,252.88 317.99,252.88 " style="fill:#b1b1b1" />
     <polygon id="_165" points="318.66,57.39 319.66,57.39 319.66,252.88 318.66,252.88 " style="fill:#b1b1b1" />
     <polygon id="_166" points="319.32,57.39 320.33,57.39 320.33,252.88 319.32,252.88 " style="fill:#b1b1b1" />
     <polygon id="_167" points="319.99,57.39 321,57.39 321,252.88 319.99,252.88 " style="fill:#b1b1b1" />
     <polygon id="_168" points="320.66,57.39 321.66,57.39 321.66,252.88 320.66,252.88 " style="fill:#b2b2b2" />
     <polygon id="_169" points="321.33,57.39 322.33,57.39 322.33,252.88 321.33,252.88 " style="fill:#b2b2b2" />
     <polygon id="_170" points="322,57.39 323,57.39 323,252.88 322,252.88 " style="fill:#b2b2b2" />
     <polygon id="_171" points="322.67,57.39 323.67,57.39 323.67,252.88 322.67,252.88 " style="fill:#b2b2b2" />
     <polygon id="_172" points="323.34,57.39 324.34,57.39 324.34,252.88 323.34,252.88 " style="fill:#b2b2b2" />
     <polygon id="_173" points="324,57.39 325.01,57.39 325.01,252.88 324,252.88 " style="fill:#b3b3b3" />
     <polygon id="_174" points="324.67,57.39 325.68,57.39 325.68,252.88 324.67,252.88 " style="fill:#b3b3b3" />
     <polygon id="_175" points="325.34,57.39 326.34,57.39 326.34,252.88 325.34,252.88 " style="fill:#b3b3b3" />
     <polygon id="_176" points="326.01,57.39 327.01,57.39 327.01,252.88 326.01,252.88 " style="fill:#b3b3b3" />
     <polygon id="_177" points="326.68,57.39 327.68,57.39 327.68,252.88 326.68,252.88 " style="fill:#b3b3b3" />
     <polygon id="_178" points="327.35,57.39 328.35,57.39 328.35,252.88 327.35,252.88 " style="fill:#b3b3b3" />
     <polygon id="_179" points="328.02,57.39 329.02,57.39 329.02,252.88 328.02,252.88 " style="fill:#b4b4b4" />
     <polygon id="_180" points="328.68,57.39 329.69,57.39 329.69,252.88 328.68,252.88 " style="fill:#b4b4b4" />
     <polygon id="_181" points="329.35,57.39 330.36,57.39 330.36,252.88 329.35,252.88 " style="fill:#b4b4b4" />
     <polygon id="_182" points="330.02,57.39 331.03,57.39 331.03,252.88 330.02,252.88 " style="fill:#b4b4b4" />
     <polygon id="_183" points="330.69,57.39 331.69,57.39 331.69,252.88 330.69,252.88 " style="fill:#b5b5b5" />
     <polygon id="_184" points="331.36,57.39 332.36,57.39 332.36,252.88 331.36,252.88 " style="fill:#b5b5b5" />
     <polygon id="_185" points="332.03,57.39 333.03,57.39 333.03,252.88 332.03,252.88 " style="fill:#b5b5b5" />
     <polygon id="_186" points="332.7,57.39 333.7,57.39 333.7,252.88 332.7,252.88 " style="fill:#b5b5b5" />
     <polygon id="_187" points="333.36,57.39 334.37,57.39 334.37,252.88 333.36,252.88 " style="fill:#b6b6b6" />
     <polygon id="_188" points="334.03,57.39 335.04,57.39 335.04,252.88 334.03,252.88 " style="fill:#b6b6b6" />
     <polygon id="_189" points="334.7,57.39 335.71,57.39 335.71,252.88 334.7,252.88 " style="fill:#b6b6b6" />
     <polygon id="_190" points="335.37,57.39 336.37,57.39 336.37,252.88 335.37,252.88 " style="fill:#b7b7b7" />
     <polygon id="_191" points="336.04,57.39 337.04,57.39 337.04,252.88 336.04,252.88 " style="fill:#b7b7b7" />
     <polygon id="_192" points="336.71,57.39 337.71,57.39 337.71,252.88 336.71,252.88 " style="fill:#b7b7b7" />
     <polygon id="_193" points="337.38,57.39 338.38,57.39 338.38,252.88 337.38,252.88 " style="fill:#b8b8b8" />
     <polygon id="_194" points="338.05,57.39 339.05,57.39 339.05,252.88 338.05,252.88 " style="fill:#b8b8b8" />
     <polygon id="_195" points="338.71,57.39 339.72,57.39 339.72,252.88 338.71,252.88 " style="fill:#b8b8b8" />
     <polygon id="_196" points="339.38,57.39 340.39,57.39 340.39,252.88 339.38,252.88 " style="fill:#b8b8b8" />
     <polygon id="_197" points="340.05,57.39 341.05,57.39 341.05,252.88 340.05,252.88 " style="fill:#b9b9b9" />
     <polygon id="_198" points="340.72,57.39 341.72,57.39 341.72,252.88 340.72,252.88 " style="fill:#b9b9b9" />
     <polygon id="_199" points="341.39,57.39 342.39,57.39 342.39,252.88 341.39,252.88 " style="fill:#b9b9b9" />
     <polygon id="_200" points="342.06,57.39 343.06,57.39 343.06,252.88 342.06,252.88 " style="fill:#bababa" />
     <polygon id="_201" points="342.73,57.39 343.73,57.39 343.73,252.88 342.73,252.88 " style="fill:#bababa" />
     <polygon id="_202" points="343.39,57.39 344.4,57.39 344.4,252.88 343.39,252.88 " style="fill:#bababa" />
     <polygon id="_203" points="344.06,57.39 345.07,57.39 345.07,252.88 344.06,252.88 " style="fill:#bababa" />
     <polygon id="_204" points="344.73,57.39 345.73,57.39 345.73,252.88 344.73,252.88 " style="fill:#bbbbbb" />
     <polygon id="_205" points="345.4,57.39 346.4,57.39 346.4,252.88 345.4,252.88 " style="fill:#bbbbbb" />
     <polygon id="_206" points="346.07,57.39 347.07,57.39 347.07,252.88 346.07,252.88 " style="fill:#bbbbbb" />
     <polygon id="_207" points="346.74,57.39 347.74,57.39 347.74,252.88 346.74,252.88 " style="fill:#bbbbbb" />
     <polygon id="_208" points="347.41,57.39 348.41,57.39 348.41,252.88 347.41,252.88 " style="fill:#bcbcbc" />
     <polygon id="_209" points="348.07,57.39 349.08,57.39 349.08,252.88 348.07,252.88 " style="fill:#bcbcbc" />
     <polygon id="_210" points="348.74,57.39 349.75,57.39 349.75,252.88 348.74,252.88 " style="fill:#bcbcbc" />
     <polygon id="_211" points="349.41,57.39 350.41,57.39 350.41,252.88 349.41,252.88 " style="fill:#bdbdbd" />
     <polygon id="_212" points="350.08,57.39 351.08,57.39 351.08,252.88 350.08,252.88 " style="fill:#bdbdbd" />
     <polygon id="_213" points="350.75,57.39 351.75,57.39 351.75,252.88 350.75,252.88 " style="fill:#bdbdbd" />
     <polygon id="_214" points="351.42,57.39 352.42,57.39 352.42,252.88 351.42,252.88 " style="fill:#bdbdbd" />
     <polygon id="_215" points="352.09,57.39 353.09,57.39 353.09,252.88 352.09,252.88 " style="fill:#bebebe" />
     <polygon id="_216" points="352.75,57.39 353.76,57.39 353.76,252.88 352.75,252.88 " style="fill:#bebebe" />
     <polygon id="_217" points="353.42,57.39 354.43,57.39 354.43,252.88 353.42,252.88 " style="fill:#bfbfbf" />
     <polygon id="_218" points="354.09,57.39 355.09,57.39 355.09,252.88 354.09,252.88 " style="fill:#bfbfbf" />
     <polygon id="_219" points="354.76,57.39 355.76,57.39 355.76,252.88 354.76,252.88 " style="fill:#bfbfbf" />
     <polygon id="_220" points="355.43,57.39 356.43,57.39 356.43,252.88 355.43,252.88 " style="fill:#c0c0c0" />
     <polygon id="_221" points="356.1,57.39 357.1,57.39 357.1,252.88 356.1,252.88 " style="fill:#c0c0c0" />
     <polygon id="_222" points="356.77,57.39 357.77,57.39 357.77,252.88 356.77,252.88 " style="fill:#c0c0c0" />
     <polygon id="_223" points="357.43,57.39 358.44,57.39 358.44,252.88 357.43,252.88 " style="fill:#c1c1c1" />
     <polygon id="_224" points="358.1,57.39 359.11,57.39 359.11,252.88 358.1,252.88 " style="fill:#c1c1c1" />
     <polygon id="_225" points="358.77,57.39 359.77,57.39 359.77,252.88 358.77,252.88 " style="fill:#c2c2c2" />
     <polygon id="_226" points="359.44,57.39 360.44,57.39 360.44,252.88 359.44,252.88 " style="fill:#c2c2c2" />
     <polygon id="_227" points="360.11,57.39 361.11,57.39 361.11,252.88 360.11,252.88 " style="fill:#c2c2c2" />
     <polygon id="_228" points="360.78,57.39 361.78,57.39 361.78,252.88 360.78,252.88 " style="fill:#c3c3c3" />
     <polygon id="_229" points="361.45,57.39 362.45,57.39 362.45,252.88 361.45,252.88 " style="fill:#c3c3c3" />
     <polygon id="_230" points="362.11,57.39 363.12,57.39 363.12,252.88 362.11,252.88 " style="fill:#c3c3c3" />
     <polygon id="_231" points="362.78,57.39 363.79,57.39 363.79,252.88 362.78,252.88 " style="fill:#c3c3c3" />
     <polygon id="_232" points="363.45,57.39 364.46,57.39 364.46,252.88 363.45,252.88 " style="fill:#c4c4c4" />
     <polygon id="_233" points="364.12,57.39 365.12,57.39 365.12,252.88 364.12,252.88 " style="fill:#c4c4c4" />
     <polygon id="_234" points="364.79,57.39 365.79,57.39 365.79,252.88 364.79,252.88 " style="fill:#c5c5c5" />
     <polygon id="_235" points="365.46,57.39 366.46,57.39 366.46,252.88 365.46,252.88 " style="fill:#c5c5c5" />
     <polygon id="_236" points="366.13,57.39 367.13,57.39 367.13,252.88 366.13,252.88 " style="fill:#c5c5c5" />
     <polygon id="_237" points="366.79,57.39 367.8,57.39 367.8,252.88 366.79,252.88 " style="fill:#c6c6c6" />
     <polygon id="_238" points="367.46,57.39 368.47,57.39 368.47,252.88 367.46,252.88 " style="fill:#c6c6c6" />
     <polygon id="_239" points="368.13,57.39 369.14,57.39 369.14,252.88 368.13,252.88 " style="fill:#c7c7c7" />
     <polygon id="_240" points="368.8,57.39 369.8,57.39 369.8,252.88 368.8,252.88 " style="fill:#c7c7c7" />
     <polygon id="_241" points="369.47,57.39 370.47,57.39 370.47,252.88 369.47,252.88 " style="fill:#c8c8c8" />
     <polygon id="_242" points="370.14,57.39 371.14,57.39 371.14,252.88 370.14,252.88 " style="fill:#c8c8c8" />
     <polygon id="_243" points="370.81,57.39 371.81,57.39 371.81,252.88 370.81,252.88 " style="fill:#c9c9c9" />
     <polygon id="_244" points="371.48,57.39 372.48,57.39 372.48,252.88 371.48,252.88 " style="fill:#c9c9c9" />
     <polygon id="_245" points="372.14,57.39 373.15,57.39 373.15,252.88 372.14,252.88 " style="fill:#cacaca" />
     <polygon id="_246" points="372.81,57.39 373.82,57.39 373.82,252.88 372.81,252.88 " style="fill:#cacaca" />
     <polygon id="_247" points="373.48,57.39 374.48,57.39 374.48,252.88 373.48,252.88 " style="fill:#cbcbcb" />
     <polygon id="_248" points="374.15,57.39 375.15,57.39 375.15,252.88 374.15,252.88 " style="fill:#cbcbcb" />
     <polygon id="_249" points="374.82,57.39 375.82,57.39 375.82,252.88 374.82,252.88 " style="fill:#cbcbcb" />
     <polygon id="_250" points="375.49,57.39 376.49,57.39 376.49,252.88 375.49,252.88 " style="fill:#cccccc" />
     <polygon id="_251" points="376.16,57.39 377.16,57.39 377.16,252.88 376.16,252.88 " style="fill:#cccccc" />
     <polygon id="_252" points="376.82,57.39 377.83,57.39 377.83,252.88 376.82,252.88 " style="fill:#cdcdcd" />
     <polygon id="_253" points="377.49,57.39 378.5,57.39 378.5,252.88 377.49,252.88 " style="fill:#cdcdcd" />
     <polygon id="_254" points="378.16,57.39 379.16,57.39 379.16,252.88 378.16,252.88 " style="fill:#cecece" />
     <polygon id="_255" points="378.83,57.39 379.91,57.39 379.91,252.88 378.83,252.88 " style="fill:#cecece" />
    </g>
   </g>
   <g>
    <g style="clip-path:url(#id1)">
     <polygon points="-3.97,-7.09 2.4,-7.09 2.4,319.49 -3.97,319.49 " style="fill:#7e7e7e" />
     <polygon id="_1_510" points="1.6,-7.09 4.01,-7.09 4.01,319.49 1.6,319.49 " style="fill:#7f7f7f" />
     <polygon id="_2_511" points="3.21,-7.09 5.61,-7.09 5.61,319.49 3.21,319.49 " style="fill:#808080" />
     <polygon id="_3_512" points="4.81,-7.09 7.22,-7.09 7.22,319.49 4.81,319.49 " style="fill:#818181" />
     <polygon id="_4_513" points="6.41,-7.09 8.82,-7.09 8.82,319.49 6.41,319.49 " style="fill:#828282" />
     <polygon id="_5_514" points="8.02,-7.09 10.42,-7.09 10.42,319.49 8.02,319.49 " style="fill:#838383" />
     <polygon id="_6_515" points="9.62,-7.09 12.03,-7.09 12.03,319.49 9.62,319.49 " style="fill:#848484" />
     <polygon id="_7_516" points="11.23,-7.09 13.63,-7.09 13.63,319.49 11.23,319.49 " style="fill:#858585" />
     <polygon id="_8_517" points="12.83,-7.09 15.23,-7.09 15.23,319.49 12.83,319.49 " style="fill:#868686" />
     <polygon id="_9_518" points="14.43,-7.09 16.84,-7.09 16.84,319.49 14.43,319.49 " style="fill:#878787" />
     <polygon id="_10_519" points="16.04,-7.09 18.44,-7.09 18.44,319.49 16.04,319.49 " style="fill:#878787" />
     <polygon id="_11_520" points="17.64,-7.09 20.05,-7.09 20.05,319.49 17.64,319.49 " style="fill:#888888" />
     <polygon id="_12_521" points="19.24,-7.09 21.65,-7.09 21.65,319.49 19.24,319.49 " style="fill:#898989" />
     <polygon id="_13_522" points="20.85,-7.09 23.25,-7.09 23.25,319.49 20.85,319.49 " style="fill:#898989" />
     <polygon id="_14_523" points="22.45,-7.09 24.86,-7.09 24.86,319.49 22.45,319.49 " style="fill:#8a8a8a" />
     <polygon id="_15_524" points="24.06,-7.09 26.46,-7.09 26.46,319.49 24.06,319.49 " style="fill:#8b8b8b" />
     <polygon id="_16_525" points="25.66,-7.09 28.07,-7.09 28.07,319.49 25.66,319.49 " style="fill:#8c8c8c" />
     <polygon id="_17_526" points="27.26,-7.09 29.67,-7.09 29.67,319.49 27.26,319.49 " style="fill:#8c8c8c" />
     <polygon id="_18_527" points="28.87,-7.09 31.27,-7.09 31.27,319.49 28.87,319.49 " style="fill:#8d8d8d" />
     <polygon id="_19_528" points="30.47,-7.09 32.88,-7.09 32.88,319.49 30.47,319.49 " style="fill:#8e8e8e" />
     <polygon id="_20_529" points="32.07,-7.09 34.48,-7.09 34.48,319.49 32.07,319.49 " style="fill:#8f8f8f" />
     <polygon id="_21_530" points="33.68,-7.09 36.08,-7.09 36.08,319.49 33.68,319.49 " style="fill:#8f8f8f" />
     <polygon id="_22_531" points="35.28,-7.09 37.69,-7.09 37.69,319.49 35.28,319.49 " style="fill:#909090" />
     <polygon id="_23_532" points="36.89,-7.09 39.29,-7.09 39.29,319.49 36.89,319.49 " style="fill:#909090" />
     <polygon id="_24_533" points="38.49,-7.09 40.9,-7.09 40.9,319.49 38.49,319.49 " style="fill:#919191" />
     <polygon id="_25_534" points="40.09,-7.09 42.5,-7.09 42.5,319.49 40.09,319.49 " style="fill:#919191" />
     <polygon id="_26_535" points="41.7,-7.09 44.1,-7.09 44.1,319.49 41.7,319.49 " style="fill:#929292" />
     <polygon id="_27_536" points="43.3,-7.09 45.71,-7.09 45.71,319.49 43.3,319.49 " style="fill:#929292" />
     <polygon id="_28_537" points="44.9,-7.09 47.31,-7.09 47.31,319.49 44.9,319.49 " style="fill:#929292" />
     <polygon id="_29_538" points="46.51,-7.09 48.91,-7.09 48.91,319.49 46.51,319.49 " style="fill:#939393" />
     <polygon id="_30_539" points="48.11,-7.09 50.52,-7.09 50.52,319.49 48.11,319.49 " style="fill:#939393" />
     <polygon id="_31_540" points="49.72,-7.09 52.12,-7.09 52.12,319.49 49.72,319.49 " style="fill:#949494" />
     <polygon id="_32_541" points="51.32,-7.09 53.73,-7.09 53.73,319.49 51.32,319.49 " style="fill:#959595" />
     <polygon id="_33_542" points="52.92,-7.09 55.33,-7.09 55.33,319.49 52.92,319.49 " style="fill:#959595" />
     <polygon id="_34_543" points="54.53,-7.09 56.93,-7.09 56.93,319.49 54.53,319.49 " style="fill:#969696" />
     <polygon id="_35_544" points="56.13,-7.09 58.54,-7.09 58.54,319.49 56.13,319.49 " style="fill:#969696" />
     <polygon id="_36_545" points="57.74,-7.09 60.14,-7.09 60.14,319.49 57.74,319.49 " style="fill:#969696" />
     <polygon id="_37_546" points="59.34,-7.09 61.74,-7.09 61.74,319.49 59.34,319.49 " style="fill:#979797" />
     <polygon id="_38_547" points="60.94,-7.09 63.35,-7.09 63.35,319.49 60.94,319.49 " style="fill:#979797" />
     <polygon id="_39_548" points="62.55,-7.09 64.95,-7.09 64.95,319.49 62.55,319.49 " style="fill:#989898" />
     <polygon id="_40_549" points="64.15,-7.09 66.56,-7.09 66.56,319.49 64.15,319.49 " style="fill:#989898" />
     <polygon id="_41_550" points="65.75,-7.09 68.16,-7.09 68.16,319.49 65.75,319.49 " style="fill:#989898" />
     <polygon id="_42_551" points="67.36,-7.09 69.76,-7.09 69.76,319.49 67.36,319.49 " style="fill:#999999" />
     <polygon id="_43_552" points="68.96,-7.09 71.37,-7.09 71.37,319.49 68.96,319.49 " style="fill:#999999" />
     <polygon id="_44_553" points="70.57,-7.09 72.97,-7.09 72.97,319.49 70.57,319.49 " style="fill:#999999" />
     <polygon id="_45_554" points="72.17,-7.09 74.57,-7.09 74.57,319.49 72.17,319.49 " style="fill:#9a9a9a" />
     <polygon id="_46_555" points="73.77,-7.09 76.18,-7.09 76.18,319.49 73.77,319.49 " style="fill:#9a9a9a" />
     <polygon id="_47_556" points="75.38,-7.09 77.78,-7.09 77.78,319.49 75.38,319.49 " style="fill:#9a9a9a" />
     <polygon id="_48_557" points="76.98,-7.09 79.39,-7.09 79.39,319.49 76.98,319.49 " style="fill:#9a9a9a" />
     <polygon id="_49_558" points="78.58,-7.09 80.99,-7.09 80.99,319.49 78.58,319.49 " style="fill:#9b9b9b" />
     <polygon id="_50_559" points="80.19,-7.09 82.59,-7.09 82.59,319.49 80.19,319.49 " style="fill:#9b9b9b" />
     <polygon id="_51_560" points="81.79,-7.09 84.2,-7.09 84.2,319.49 81.79,319.49 " style="fill:#9b9b9b" />
     <polygon id="_52_561" points="83.4,-7.09 85.8,-7.09 85.8,319.49 83.4,319.49 " style="fill:#9c9c9c" />
     <polygon id="_53_562" points="85,-7.09 87.4,-7.09 87.4,319.49 85,319.49 " style="fill:#9c9c9c" />
     <polygon id="_54_563" points="86.6,-7.09 89.01,-7.09 89.01,319.49 86.6,319.49 " style="fill:#9c9c9c" />
     <polygon id="_55_564" points="88.21,-7.09 90.61,-7.09 90.61,319.49 88.21,319.49 " style="fill:#9d9d9d" />
     <polygon id="_56_565" points="89.81,-7.09 92.22,-7.09 92.22,319.49 89.81,319.49 " style="fill:#9d9d9d" />
     <polygon id="_57_566" points="91.41,-7.09 93.82,-7.09 93.82,319.49 91.41,319.49 " style="fill:#9d9d9d" />
     <polygon id="_58_567" points="93.02,-7.09 95.42,-7.09 95.42,319.49 93.02,319.49 " style="fill:#9e9e9e" />
     <polygon id="_59_568" points="94.62,-7.09 97.03,-7.09 97.03,319.49 94.62,319.49 " style="fill:#9e9e9e" />
     <polygon id="_60_569" points="96.23,-7.09 98.63,-7.09 98.63,319.49 96.23,319.49 " style="fill:#9e9e9e" />
     <polygon id="_61_570" points="97.83,-7.09 100.24,-7.09 100.24,319.49 97.83,319.49 " style="fill:#9e9e9e" />
     <polygon id="_62_571" points="99.43,-7.09 101.84,-7.09 101.84,319.49 99.43,319.49 " style="fill:#9f9f9f" />
     <polygon id="_63_572" points="101.04,-7.09 103.44,-7.09 103.44,319.49 101.04,319.49 " style="fill:#9f9f9f" />
     <polygon id="_64_573" points="102.64,-7.09 105.05,-7.09 105.05,319.49 102.64,319.49 " style="fill:#9f9f9f" />
     <polygon id="_65_574" points="104.24,-7.09 106.65,-7.09 106.65,319.49 104.24,319.49 " style="fill:#a0a0a0" />
     <polygon id="_66_575" points="105.85,-7.09 108.25,-7.09 108.25,319.49 105.85,319.49 " style="fill:#a0a0a0" />
     <polygon id="_67_576" points="107.45,-7.09 109.86,-7.09 109.86,319.49 107.45,319.49 " style="fill:#a0a0a0" />
     <polygon id="_68_577" points="109.06,-7.09 111.46,-7.09 111.46,319.49 109.06,319.49 " style="fill:#a0a0a0" />
     <polygon id="_69_578" points="110.66,-7.09 113.07,-7.09 113.07,319.49 110.66,319.49 " style="fill:#a0a0a0" />
     <polygon id="_70_579" points="112.26,-7.09 114.67,-7.09 114.67,319.49 112.26,319.49 " style="fill:#a1a1a1" />
     <polygon id="_71_580" points="113.87,-7.09 116.27,-7.09 116.27,319.49 113.87,319.49 " style="fill:#a1a1a1" />
     <polygon id="_72_581" points="115.47,-7.09 117.88,-7.09 117.88,319.49 115.47,319.49 " style="fill:#a1a1a1" />
     <polygon id="_73_582" points="117.07,-7.09 119.48,-7.09 119.48,319.49 117.07,319.49 " style="fill:#a1a1a1" />
     <polygon id="_74_583" points="118.68,-7.09 121.08,-7.09 121.08,319.49 118.68,319.49 " style="fill:#a1a1a1" />
     <polygon id="_75_584" points="120.28,-7.09 122.69,-7.09 122.69,319.49 120.28,319.49 " style="fill:#a2a2a2" />
     <polygon id="_76_585" points="121.89,-7.09 124.29,-7.09 124.29,319.49 121.89,319.49 " style="fill:#a2a2a2" />
     <polygon id="_77_586" points="123.49,-7.09 125.9,-7.09 125.9,319.49 123.49,319.49 " style="fill:#a2a2a2" />
     <polygon id="_78_587" points="125.09,-7.09 127.5,-7.09 127.5,319.49 125.09,319.49 " style="fill:#a2a2a2" />
     <polygon id="_79_588" points="126.7,-7.09 129.1,-7.09 129.1,319.49 126.7,319.49 " style="fill:#a2a2a2" />
     <polygon id="_80_589" points="128.3,-7.09 130.71,-7.09 130.71,319.49 128.3,319.49 " style="fill:#a2a2a2" />
     <polygon id="_81_590" points="129.91,-7.09 132.31,-7.09 132.31,319.49 129.91,319.49 " style="fill:#a3a3a3" />
     <polygon id="_82_591" points="131.51,-7.09 133.91,-7.09 133.91,319.49 131.51,319.49 " style="fill:#a3a3a3" />
     <polygon id="_83_592" points="133.11,-7.09 135.52,-7.09 135.52,319.49 133.11,319.49 " style="fill:#a3a3a3" />
     <polygon id="_84_593" points="134.72,-7.09 137.12,-7.09 137.12,319.49 134.72,319.49 " style="fill:#a3a3a3" />
     <polygon id="_85_594" points="136.32,-7.09 138.73,-7.09 138.73,319.49 136.32,319.49 " style="fill:#a3a3a3" />
     <polygon id="_86_595" points="137.92,-7.09 140.33,-7.09 140.33,319.49 137.92,319.49 " style="fill:#a3a3a3" />
     <polygon id="_87_596" points="139.53,-7.09 141.93,-7.09 141.93,319.49 139.53,319.49 " style="fill:#a3a3a3" />
     <polygon id="_88_597" points="141.13,-7.09 143.54,-7.09 143.54,319.49 141.13,319.49 " style="fill:#a4a4a4" />
     <polygon id="_89_598" points="142.74,-7.09 145.14,-7.09 145.14,319.49 142.74,319.49 " style="fill:#a4a4a4" />
     <polygon id="_90_599" points="144.34,-7.09 146.74,-7.09 146.74,319.49 144.34,319.49 " style="fill:#a4a4a4" />
     <polygon id="_91_600" points="145.94,-7.09 148.35,-7.09 148.35,319.49 145.94,319.49 " style="fill:#a4a4a4" />
     <polygon id="_92_601" points="147.55,-7.09 149.95,-7.09 149.95,319.49 147.55,319.49 " style="fill:#a4a4a4" />
     <polygon id="_93_602" points="149.15,-7.09 151.56,-7.09 151.56,319.49 149.15,319.49 " style="fill:#a4a4a4" />
     <polygon id="_94_603" points="150.75,-7.09 153.16,-7.09 153.16,319.49 150.75,319.49 " style="fill:#a4a4a4" />
     <polygon id="_95_604" points="152.36,-7.09 154.76,-7.09 154.76,319.49 152.36,319.49 " style="fill:#a5a5a5" />
     <polygon id="_96_605" points="153.96,-7.09 156.37,-7.09 156.37,319.49 153.96,319.49 " style="fill:#a5a5a5" />
     <polygon id="_97_606" points="155.57,-7.09 157.97,-7.09 157.97,319.49 155.57,319.49 " style="fill:#a5a5a5" />
     <polygon id="_98_607" points="157.17,-7.09 159.57,-7.09 159.57,319.49 157.17,319.49 " style="fill:#a5a5a5" />
     <polygon id="_99_608" points="158.77,-7.09 161.18,-7.09 161.18,319.49 158.77,319.49 " style="fill:#a5a5a5" />
     <polygon id="_100_609" points="160.38,-7.09 162.78,-7.09 162.78,319.49 160.38,319.49 " style="fill:#a5a5a5" />
     <polygon id="_101_610" points="161.98,-7.09 164.39,-7.09 164.39,319.49 161.98,319.49 " style="fill:#a5a5a5" />
     <polygon id="_102_611" points="163.58,-7.09 165.99,-7.09 165.99,319.49 163.58,319.49 " style="fill:#a6a6a6" />
     <polygon id="_103_612" points="165.19,-7.09 167.59,-7.09 167.59,319.49 165.19,319.49 " style="fill:#a6a6a6" />
     <polygon id="_104_613" points="166.79,-7.09 169.2,-7.09 169.2,319.49 166.79,319.49 " style="fill:#a6a6a6" />
     <polygon id="_105_614" points="168.4,-7.09 170.8,-7.09 170.8,319.49 168.4,319.49 " style="fill:#a6a6a6" />
     <polygon id="_106_615" points="170,-7.09 172.41,-7.09 172.41,319.49 170,319.49 " style="fill:#a7a7a7" />
     <polygon id="_107_616" points="171.6,-7.09 174.01,-7.09 174.01,319.49 171.6,319.49 " style="fill:#a7a7a7" />
     <polygon id="_108_617" points="173.21,-7.09 175.61,-7.09 175.61,319.49 173.21,319.49 " style="fill:#a7a7a7" />
     <polygon id="_109_618" points="174.81,-7.09 177.22,-7.09 177.22,319.49 174.81,319.49 " style="fill:#a7a7a7" />
     <polygon id="_110_619" points="176.41,-7.09 178.82,-7.09 178.82,319.49 176.41,319.49 " style="fill:#a7a7a7" />
     <polygon id="_111_620" points="178.02,-7.09 180.42,-7.09 180.42,319.49 178.02,319.49 " style="fill:#a7a7a7" />
     <polygon id="_112_621" points="179.62,-7.09 182.03,-7.09 182.03,319.49 179.62,319.49 " style="fill:#a8a8a8" />
     <polygon id="_113_622" points="181.23,-7.09 183.63,-7.09 183.63,319.49 181.23,319.49 " style="fill:#a8a8a8" />
     <polygon id="_114_623" points="182.83,-7.09 185.24,-7.09 185.24,319.49 182.83,319.49 " style="fill:#a8a8a8" />
     <polygon id="_115_624" points="184.43,-7.09 186.84,-7.09 186.84,319.49 184.43,319.49 " style="fill:#a8a8a8" />
     <polygon id="_116_625" points="186.04,-7.09 188.44,-7.09 188.44,319.49 186.04,319.49 " style="fill:#a8a8a8" />
     <polygon id="_117_626" points="187.64,-7.09 190.05,-7.09 190.05,319.49 187.64,319.49 " style="fill:#a8a8a8" />
     <polygon id="_118_627" points="189.24,-7.09 191.65,-7.09 191.65,319.49 189.24,319.49 " style="fill:#a9a9a9" />
     <polygon id="_119_628" points="190.85,-7.09 193.25,-7.09 193.25,319.49 190.85,319.49 " style="fill:#a9a9a9" />
     <polygon id="_120_629" points="192.45,-7.09 194.86,-7.09 194.86,319.49 192.45,319.49 " style="fill:#a9a9a9" />
     <polygon id="_121_630" points="194.06,-7.09 196.46,-7.09 196.46,319.49 194.06,319.49 " style="fill:#a9a9a9" />
     <polygon id="_122_631" points="195.66,-7.09 198.07,-7.09 198.07,319.49 195.66,319.49 " style="fill:#a9a9a9" />
     <polygon id="_123_632" points="197.26,-7.09 199.67,-7.09 199.67,319.49 197.26,319.49 " style="fill:#a9a9a9" />
     <polygon id="_124_633" points="198.87,-7.09 201.27,-7.09 201.27,319.49 198.87,319.49 " style="fill:#a9a9a9" />
     <polygon id="_125_634" points="200.47,-7.09 202.88,-7.09 202.88,319.49 200.47,319.49 " style="fill:#aaaaaa" />
     <polygon id="_126_635" points="202.08,-7.09 204.48,-7.09 204.48,319.49 202.08,319.49 " style="fill:#aaaaaa" />
     <polygon id="_127_636" points="203.68,-7.09 206.08,-7.09 206.08,319.49 203.68,319.49 " style="fill:#aaaaaa" />
     <polygon id="_128_637" points="205.28,-7.09 207.69,-7.09 207.69,319.49 205.28,319.49 " style="fill:#aaaaaa" />
     <polygon id="_129_638" points="206.89,-7.09 209.29,-7.09 209.29,319.49 206.89,319.49 " style="fill:#aaaaaa" />
     <polygon id="_130_639" points="208.49,-7.09 210.9,-7.09 210.9,319.49 208.49,319.49 " style="fill:#aaaaaa" />
     <polygon id="_131_640" points="210.09,-7.09 212.5,-7.09 212.5,319.49 210.09,319.49 " style="fill:#aaaaaa" />
     <polygon id="_132_641" points="211.7,-7.09 214.1,-7.09 214.1,319.49 211.7,319.49 " style="fill:#ababab" />
     <polygon id="_133_642" points="213.3,-7.09 215.71,-7.09 215.71,319.49 213.3,319.49 " style="fill:#ababab" />
     <polygon id="_134_643" points="214.91,-7.09 217.31,-7.09 217.31,319.49 214.91,319.49 " style="fill:#ababab" />
     <polygon id="_135_644" points="216.51,-7.09 218.91,-7.09 218.91,319.49 216.51,319.49 " style="fill:#ababab" />
     <polygon id="_136_645" points="218.11,-7.09 220.52,-7.09 220.52,319.49 218.11,319.49 " style="fill:#ababab" />
     <polygon id="_137_646" points="219.72,-7.09 222.12,-7.09 222.12,319.49 219.72,319.49 " style="fill:#ababab" />
     <polygon id="_138_647" points="221.32,-7.09 223.73,-7.09 223.73,319.49 221.32,319.49 " style="fill:#ababab" />
     <polygon id="_139_648" points="222.92,-7.09 225.33,-7.09 225.33,319.49 222.92,319.49 " style="fill:#acacac" />
     <polygon id="_140_649" points="224.53,-7.09 226.93,-7.09 226.93,319.49 224.53,319.49 " style="fill:#acacac" />
     <polygon id="_141_650" points="226.13,-7.09 228.54,-7.09 228.54,319.49 226.13,319.49 " style="fill:#acacac" />
     <polygon id="_142_651" points="227.74,-7.09 230.14,-7.09 230.14,319.49 227.74,319.49 " style="fill:#acacac" />
     <polygon id="_143_652" points="229.34,-7.09 231.74,-7.09 231.74,319.49 229.34,319.49 " style="fill:#acacac" />
     <polygon id="_144_653" points="230.94,-7.09 233.35,-7.09 233.35,319.49 230.94,319.49 " style="fill:#acacac" />
     <polygon id="_145_654" points="232.55,-7.09 234.95,-7.09 234.95,319.49 232.55,319.49 " style="fill:#adadad" />
     <polygon id="_146_655" points="234.15,-7.09 236.56,-7.09 236.56,319.49 234.15,319.49 " style="fill:#adadad" />
     <polygon id="_147_656" points="235.75,-7.09 238.16,-7.09 238.16,319.49 235.75,319.49 " style="fill:#adadad" />
     <polygon id="_148_657" points="237.36,-7.09 239.76,-7.09 239.76,319.49 237.36,319.49 " style="fill:#adadad" />
     <polygon id="_149_658" points="238.96,-7.09 241.37,-7.09 241.37,319.49 238.96,319.49 " style="fill:#adadad" />
     <polygon id="_150_659" points="240.57,-7.09 242.97,-7.09 242.97,319.49 240.57,319.49 " style="fill:#aeaeae" />
     <polygon id="_151_660" points="242.17,-7.09 244.58,-7.09 244.58,319.49 242.17,319.49 " style="fill:#aeaeae" />
     <polygon id="_152_661" points="243.77,-7.09 246.18,-7.09 246.18,319.49 243.77,319.49 " style="fill:#aeaeae" />
     <polygon id="_153_662" points="245.38,-7.09 247.78,-7.09 247.78,319.49 245.38,319.49 " style="fill:#aeaeae" />
     <polygon id="_154_663" points="246.98,-7.09 249.39,-7.09 249.39,319.49 246.98,319.49 " style="fill:#afafaf" />
     <polygon id="_155_664" points="248.58,-7.09 250.99,-7.09 250.99,319.49 248.58,319.49 " style="fill:#afafaf" />
     <polygon id="_156_665" points="250.19,-7.09 252.59,-7.09 252.59,319.49 250.19,319.49 " style="fill:#afafaf" />
     <polygon id="_157_666" points="251.79,-7.09 254.2,-7.09 254.2,319.49 251.79,319.49 " style="fill:#afafaf" />
     <polygon id="_158_667" points="253.4,-7.09 255.8,-7.09 255.8,319.49 253.4,319.49 " style="fill:#afafaf" />
     <polygon id="_159_668" points="255,-7.09 257.41,-7.09 257.41,319.49 255,319.49 " style="fill:#b0b0b0" />
     <polygon id="_160_669" points="256.6,-7.09 259.01,-7.09 259.01,319.49 256.6,319.49 " style="fill:#b0b0b0" />
     <polygon id="_161_670" points="258.21,-7.09 260.61,-7.09 260.61,319.49 258.21,319.49 " style="fill:#b0b0b0" />
     <polygon id="_162_671" points="259.81,-7.09 262.22,-7.09 262.22,319.49 259.81,319.49 " style="fill:#b0b0b0" />
     <polygon id="_163_672" points="261.41,-7.09 263.82,-7.09 263.82,319.49 261.41,319.49 " style="fill:#b1b1b1" />
     <polygon id="_164_673" points="263.02,-7.09 265.42,-7.09 265.42,319.49 263.02,319.49 " style="fill:#b1b1b1" />
     <polygon id="_165_674" points="264.62,-7.09 267.03,-7.09 267.03,319.49 264.62,319.49 " style="fill:#b1b1b1" />
     <polygon id="_166_675" points="266.23,-7.09 268.63,-7.09 268.63,319.49 266.23,319.49 " style="fill:#b1b1b1" />
     <polygon id="_167_676" points="267.83,-7.09 270.24,-7.09 270.24,319.49 267.83,319.49 " style="fill:#b1b1b1" />
     <polygon id="_168_677" points="269.43,-7.09 271.84,-7.09 271.84,319.49 269.43,319.49 " style="fill:#b2b2b2" />
     <polygon id="_169_678" points="271.04,-7.09 273.44,-7.09 273.44,319.49 271.04,319.49 " style="fill:#b2b2b2" />
     <polygon id="_170_679" points="272.64,-7.09 275.05,-7.09 275.05,319.49 272.64,319.49 " style="fill:#b2b2b2" />
     <polygon id="_171_680" points="274.25,-7.09 276.65,-7.09 276.65,319.49 274.25,319.49 " style="fill:#b2b2b2" />
     <polygon id="_172_681" points="275.85,-7.09 278.26,-7.09 278.26,319.49 275.85,319.49 " style="fill:#b2b2b2" />
     <polygon id="_173_682" points="277.45,-7.09 279.86,-7.09 279.86,319.49 277.45,319.49 " style="fill:#b3b3b3" />
     <polygon id="_174_683" points="279.06,-7.09 281.46,-7.09 281.46,319.49 279.06,319.49 " style="fill:#b3b3b3" />
     <polygon id="_175_684" points="280.66,-7.09 283.07,-7.09 283.07,319.49 280.66,319.49 " style="fill:#b3b3b3" />
     <polygon id="_176_685" points="282.26,-7.09 284.67,-7.09 284.67,319.49 282.26,319.49 " style="fill:#b3b3b3" />
     <polygon id="_177_686" points="283.87,-7.09 286.27,-7.09 286.27,319.49 283.87,319.49 " style="fill:#b3b3b3" />
     <polygon id="_178_687" points="285.47,-7.09 287.88,-7.09 287.88,319.49 285.47,319.49 " style="fill:#b3b3b3" />
     <polygon id="_179_688" points="287.08,-7.09 289.48,-7.09 289.48,319.49 287.08,319.49 " style="fill:#b4b4b4" />
     <polygon id="_180_689" points="288.68,-7.09 291.09,-7.09 291.09,319.49 288.68,319.49 " style="fill:#b4b4b4" />
     <polygon id="_181_690" points="290.28,-7.09 292.69,-7.09 292.69,319.49 290.28,319.49 " style="fill:#b4b4b4" />
     <polygon id="_182_691" points="291.89,-7.09 294.29,-7.09 294.29,319.49 291.89,319.49 " style="fill:#b4b4b4" />
     <polygon id="_183_692" points="293.49,-7.09 295.9,-7.09 295.9,319.49 293.49,319.49 " style="fill:#b5b5b5" />
     <polygon id="_184_693" points="295.09,-7.09 297.5,-7.09 297.5,319.49 295.09,319.49 " style="fill:#b5b5b5" />
     <polygon id="_185_694" points="296.7,-7.09 299.1,-7.09 299.1,319.49 296.7,319.49 " style="fill:#b5b5b5" />
     <polygon id="_186_695" points="298.3,-7.09 300.71,-7.09 300.71,319.49 298.3,319.49 " style="fill:#b5b5b5" />
     <polygon id="_187_696" points="299.91,-7.09 302.31,-7.09 302.31,319.49 299.91,319.49 " style="fill:#b6b6b6" />
     <polygon id="_188_697" points="301.51,-7.09 303.92,-7.09 303.92,319.49 301.51,319.49 " style="fill:#b6b6b6" />
     <polygon id="_189_698" points="303.11,-7.09 305.52,-7.09 305.52,319.49 303.11,319.49 " style="fill:#b6b6b6" />
     <polygon id="_190_699" points="304.72,-7.09 307.12,-7.09 307.12,319.49 304.72,319.49 " style="fill:#b7b7b7" />
     <polygon id="_191_700" points="306.32,-7.09 308.73,-7.09 308.73,319.49 306.32,319.49 " style="fill:#b7b7b7" />
     <polygon id="_192_701" points="307.92,-7.09 310.33,-7.09 310.33,319.49 307.92,319.49 " style="fill:#b7b7b7" />
     <polygon id="_193_702" points="309.53,-7.09 311.93,-7.09 311.93,319.49 309.53,319.49 " style="fill:#b8b8b8" />
     <polygon id="_194_703" points="311.13,-7.09 313.54,-7.09 313.54,319.49 311.13,319.49 " style="fill:#b8b8b8" />
     <polygon id="_195_704" points="312.74,-7.09 315.14,-7.09 315.14,319.49 312.74,319.49 " style="fill:#b8b8b8" />
     <polygon id="_196_705" points="314.34,-7.09 316.75,-7.09 316.75,319.49 314.34,319.49 " style="fill:#b8b8b8" />
     <polygon id="_197_706" points="315.94,-7.09 318.35,-7.09 318.35,319.49 315.94,319.49 " style="fill:#b9b9b9" />
     <polygon id="_198_707" points="317.55,-7.09 319.95,-7.09 319.95,319.49 317.55,319.49 " style="fill:#b9b9b9" />
     <polygon id="_199_708" points="319.15,-7.09 321.56,-7.09 321.56,319.49 319.15,319.49 " style="fill:#b9b9b9" />
     <polygon id="_200_709" points="320.76,-7.09 323.16,-7.09 323.16,319.49 320.76,319.49 " style="fill:#bababa" />
     <polygon id="_201_710" points="322.36,-7.09 324.76,-7.09 324.76,319.49 322.36,319.49 " style="fill:#bababa" />
     <polygon id="_202_711" points="323.96,-7.09 326.37,-7.09 326.37,319.49 323.96,319.49 " style="fill:#bababa" />
     <polygon id="_203_712" points="325.57,-7.09 327.97,-7.09 327.97,319.49 325.57,319.49 " style="fill:#bababa" />
     <polygon id="_204_713" points="327.17,-7.09 329.58,-7.09 329.58,319.49 327.17,319.49 " style="fill:#bbbbbb" />
     <polygon id="_205_714" points="328.77,-7.09 331.18,-7.09 331.18,319.49 328.77,319.49 " style="fill:#bbbbbb" />
     <polygon id="_206_715" points="330.38,-7.09 332.78,-7.09 332.78,319.49 330.38,319.49 " style="fill:#bbbbbb" />
     <polygon id="_207_716" points="331.98,-7.09 334.39,-7.09 334.39,319.49 331.98,319.49 " style="fill:#bbbbbb" />
     <polygon id="_208_717" points="333.59,-7.09 335.99,-7.09 335.99,319.49 333.59,319.49 " style="fill:#bcbcbc" />
     <polygon id="_209_718" points="335.19,-7.09 337.59,-7.09 337.59,319.49 335.19,319.49 " style="fill:#bcbcbc" />
     <polygon id="_210_719" points="336.79,-7.09 339.2,-7.09 339.2,319.49 336.79,319.49 " style="fill:#bcbcbc" />
     <polygon id="_211_720" points="338.4,-7.09 340.8,-7.09 340.8,319.49 338.4,319.49 " style="fill:#bdbdbd" />
     <polygon id="_212_721" points="340,-7.09 342.41,-7.09 342.41,319.49 340,319.49 " style="fill:#bdbdbd" />
     <polygon id="_213_722" points="341.6,-7.09 344.01,-7.09 344.01,319.49 341.6,319.49 " style="fill:#bdbdbd" />
     <polygon id="_214_723" points="343.21,-7.09 345.61,-7.09 345.61,319.49 343.21,319.49 " style="fill:#bdbdbd" />
     <polygon id="_215_724" points="344.81,-7.09 347.22,-7.09 347.22,319.49 344.81,319.49 " style="fill:#bebebe" />
     <polygon id="_216_725" points="346.42,-7.09 348.82,-7.09 348.82,319.49 346.42,319.49 " style="fill:#bebebe" />
     <polygon id="_217_726" points="348.02,-7.09 350.43,-7.09 350.43,319.49 348.02,319.49 " style="fill:#bfbfbf" />
     <polygon id="_218_727" points="349.62,-7.09 352.03,-7.09 352.03,319.49 349.62,319.49 " style="fill:#bfbfbf" />
     <polygon id="_219_728" points="351.23,-7.09 353.63,-7.09 353.63,319.49 351.23,319.49 " style="fill:#bfbfbf" />
     <polygon id="_220_729" points="352.83,-7.09 355.24,-7.09 355.24,319.49 352.83,319.49 " style="fill:#c0c0c0" />
     <polygon id="_221_730" points="354.43,-7.09 356.84,-7.09 356.84,319.49 354.43,319.49 " style="fill:#c0c0c0" />
     <polygon id="_222_731" points="356.04,-7.09 358.44,-7.09 358.44,319.49 356.04,319.49 " style="fill:#c0c0c0" />
     <polygon id="_223_732" points="357.64,-7.09 360.05,-7.09 360.05,319.49 357.64,319.49 " style="fill:#c1c1c1" />
     <polygon id="_224_733" points="359.25,-7.09 361.65,-7.09 361.65,319.49 359.25,319.49 " style="fill:#c1c1c1" />
     <polygon id="_225_734" points="360.85,-7.09 363.26,-7.09 363.26,319.49 360.85,319.49 " style="fill:#c2c2c2" />
     <polygon id="_226_735" points="362.45,-7.09 364.86,-7.09 364.86,319.49 362.45,319.49 " style="fill:#c2c2c2" />
     <polygon id="_227_736" points="364.06,-7.09 366.46,-7.09 366.46,319.49 364.06,319.49 " style="fill:#c2c2c2" />
     <polygon id="_228_737" points="365.66,-7.09 368.07,-7.09 368.07,319.49 365.66,319.49 " style="fill:#c3c3c3" />
     <polygon id="_229_738" points="367.26,-7.09 369.67,-7.09 369.67,319.49 367.26,319.49 " style="fill:#c3c3c3" />
     <polygon id="_230_739" points="368.87,-7.09 371.27,-7.09 371.27,319.49 368.87,319.49 " style="fill:#c3c3c3" />
     <polygon id="_231_740" points="370.47,-7.09 372.88,-7.09 372.88,319.49 370.47,319.49 " style="fill:#c3c3c3" />
     <polygon id="_232_741" points="372.08,-7.09 374.48,-7.09 374.48,319.49 372.08,319.49 " style="fill:#c4c4c4" />
     <polygon id="_233_742" points="373.68,-7.09 376.09,-7.09 376.09,319.49 373.68,319.49 " style="fill:#c4c4c4" />
     <polygon id="_234_743" points="375.28,-7.09 377.69,-7.09 377.69,319.49 375.28,319.49 " style="fill:#c5c5c5" />
     <polygon id="_235_744" points="376.89,-7.09 379.29,-7.09 379.29,319.49 376.89,319.49 " style="fill:#c5c5c5" />
     <polygon id="_236_745" points="378.49,-7.09 380.9,-7.09 380.9,319.49 378.49,319.49 " style="fill:#c5c5c5" />
     <polygon id="_237_746" points="380.09,-7.09 382.5,-7.09 382.5,319.49 380.09,319.49 " style="fill:#c6c6c6" />
     <polygon id="_238_747" points="381.7,-7.09 384.1,-7.09 384.1,319.49 381.7,319.49 " style="fill:#c6c6c6" />
     <polygon id="_239_748" points="383.3,-7.09 385.71,-7.09 385.71,319.49 383.3,319.49 " style="fill:#c7c7c7" />
     <polygon id="_240_749" points="384.91,-7.09 387.31,-7.09 387.31,319.49 384.91,319.49 " style="fill:#c7c7c7" />
     <polygon id="_241_750" points="386.51,-7.09 388.92,-7.09 388.92,319.49 386.51,319.49 " style="fill:#c8c8c8" />
     <polygon id="_242_751" points="388.11,-7.09 390.52,-7.09 390.52,319.49 388.11,319.49 " style="fill:#c8c8c8" />
     <polygon id="_243_752" points="389.72,-7.09 392.12,-7.09 392.12,319.49 389.72,319.49 " style="fill:#c9c9c9" />
     <polygon id="_244_753" points="391.32,-7.09 393.73,-7.09 393.73,319.49 391.32,319.49 " style="fill:#c9c9c9" />
     <polygon id="_245_754" points="392.93,-7.09 395.33,-7.09 395.33,319.49 392.93,319.49 " style="fill:#cacaca" />
     <polygon id="_246_755" points="394.53,-7.09 396.93,-7.09 396.93,319.49 394.53,319.49 " style="fill:#cacaca" />
     <polygon id="_247_756" points="396.13,-7.09 398.54,-7.09 398.54,319.49 396.13,319.49 " style="fill:#cbcbcb" />
     <polygon id="_248_757" points="397.74,-7.09 400.14,-7.09 400.14,319.49 397.74,319.49 " style="fill:#cbcbcb" />
     <polygon id="_249_758" points="399.34,-7.09 401.75,-7.09 401.75,319.49 399.34,319.49 " style="fill:#cbcbcb" />
     <polygon id="_250_759" points="400.94,-7.09 403.35,-7.09 403.35,319.49 400.94,319.49 " style="fill:#cccccc" />
     <polygon id="_251_760" points="402.55,-7.09 404.95,-7.09 404.95,319.49 402.55,319.49 " style="fill:#cccccc" />
     <polygon id="_252_761" points="404.15,-7.09 406.56,-7.09 406.56,319.49 404.15,319.49 " style="fill:#cdcdcd" />
     <polygon id="_253_762" points="405.76,-7.09 408.16,-7.09 408.16,319.49 405.76,319.49 " style="fill:#cdcdcd" />
     <polygon id="_254_763" points="407.36,-7.09 409.76,-7.09 409.76,319.49 407.36,319.49 " style="fill:#cecece" />
     <polygon id="_255_764" points="408.96,-7.09 410.57,-7.09 410.57,319.49 408.96,319.49 " style="fill:#cecece" />
    </g>
   </g>
   <path d="M223.15 179.11l-23.72 0.46 -99.56 0c15.39,43.09 65.53,57.73 103.42,41.26l1.61 23.01c-10.87,5.44 -24.63,9.58 -40.93,9.58 -15.77,0 -29.71,-3.67 -41.2,-9.04 -14.32,-6.7 -18.4,-10.07 -29.27,-20.15 -30.33,-28.13 -40.34,-68.03 -27.72,-105.95 3.13,-9.41 10.73,-22.71 17.05,-28.93 8.38,-8.25 15.91,-14.53 26.62,-19.99 25.84,-13.17 56.94,-12.23 83.25,0.02l1.38 19.67c-37.66,-17.85 -90.56,0.32 -97.48,43.54l100.04 0 20.48 -0.74" style="fill:none;stroke:#7e7e7e;stroke-width:5.27;stroke-miterlimit:2.61313" />
  </g>
 </g>
</svg>